<?xml version="1.0" encoding="UTF-8"?>
<svg width="1089px" height="480px" viewBox="0 0 1089 480" version="1.1" xmlns="http://www.w3.org/2000/svg" xmlns:xlink="http://www.w3.org/1999/xlink">
    <!-- Generator: Sketch 55.2 (78181) - https://sketchapp.com -->
    <title>hero</title>
    <desc>Created with Sketch.</desc>
    <g id="Page-1" stroke="none" stroke-width="1" fill="none" fill-rule="evenodd">
        <g id="home" transform="translate(-389.000000, -309.000000)" fill-rule="nonzero">
            <g id="hero" transform="translate(-91.000000, -140.000000)">
                <g id="maintitle" transform="translate(631.000000, 449.000000)">
                    <path d="M240.234375,396.554688 L111.376953,333.664063 C78.5642891,378.55361 60.2213735,408.175709 56.3476562,422.53125 C53.6132676,432.785208 47.5179509,441.38701 38.0615234,448.336914 C28.6050959,455.286819 21.8261924,458.761719 17.7246094,458.761719 C6.10345752,458.761719 0.29296875,454.318404 0.29296875,445.431641 C0.29296875,440.418595 7.18580347,426.006304 20.9716797,402.194336 C34.7575559,378.382368 53.7270928,350.298339 77.8808594,317.941406 C64.4367817,312.472629 56.1198076,308.826832 52.9296875,307.003906 C49.7395674,305.18098 48.4863247,301.70608 49.1699219,296.579102 C49.853519,291.452123 53.8411094,283.419977 61.1328125,272.482422 C67.5130527,262.912062 72.2981611,256.474951 75.4882812,253.170898 C78.6784014,249.866845 82.4381294,247.246429 86.7675781,245.30957 C91.0970269,243.372712 95.6542729,242.062503 100.439453,241.378906 C105.224633,240.695309 118.668509,238.986342 140.771484,236.251953 C158.772876,211.870321 178.312069,185.552225 199.389648,157.296875 C220.467228,129.041525 236.930279,107.052813 248.779297,91.3300781 C213.004378,96.1152583 188.053456,100.102849 173.925781,103.292969 C158.886644,106.255223 146.297251,108.704743 136.157227,110.641602 C126.017202,112.57846 118.896505,114.287427 114.794922,115.768555 C110.693339,117.249682 108.642578,119.357408 108.642578,122.091797 C108.642578,124.59832 111.149063,126.307287 116.162109,127.21875 C121.175155,128.130213 127.498334,128.585938 135.131836,128.585938 C142.765338,128.585938 148.689758,128.870765 152.905273,129.44043 C157.120789,130.010094 159.228516,131.320302 159.228516,133.371094 C159.228516,135.649751 156.437202,136.959959 150.854492,137.301758 C145.271782,137.643556 129.606249,138.384109 103.857422,139.523438 C89.2740156,139.979169 77.0264167,140.434894 67.1142578,140.890625 C57.2020989,141.346356 50.3092642,141.574219 46.4355469,141.574219 C41.1946353,141.574219 37.0931138,139.979183 34.1308594,136.789063 C31.168605,133.598942 29.6875,129.38349 29.6875,124.142578 C29.6875,120.268861 31.8521919,113.091198 36.1816406,102.609375 C40.5110894,92.1275518 46.6633716,81.5319546 54.6386719,70.8222656 C62.6139722,60.1125767 71.7284644,51.7956025 81.9824219,45.8710938 C93.6035737,38.8072563 111.661661,31.6865593 136.157227,24.5087891 C160.652792,17.3310188 187.882337,11.52053 217.84668,7.07714844 C247.811022,2.63376685 277.490087,0.412109375 306.884766,0.412109375 C324.658292,0.412109375 342.032793,1.43748975 359.008789,3.48828125 C375.984785,5.53907275 391.365491,8.04555811 405.151367,11.0078125 C418.937243,13.9700669 429.817668,16.9322769 437.792969,19.8945313 C458.52875,26.7305029 474.422145,37.0982378 485.473633,50.9980469 C496.52512,64.897856 502.050781,80.1646304 502.050781,96.7988281 C502.050781,112.977294 499.259468,128.756759 493.676758,144.137695 C488.094048,159.518632 479.549211,173.760026 468.041992,186.862305 C456.534773,199.964584 442.692138,210.617146 426.513672,218.820313 C413.29746,225.656284 393.245577,232.606084 366.357422,239.669922 C339.469267,246.733759 306.998888,252.999973 268.945312,258.46875 C230.891737,263.937527 188.395417,267.925118 141.455078,270.431641 C176.546399,282.73639 209.301606,295.09792 239.72168,307.516602 C270.141754,319.935283 295.776263,330.986605 316.625977,340.670898 C337.47569,350.355192 353.824811,358.273407 365.673828,364.425781 C382.308026,373.084679 393.131485,379.350892 398.144531,383.224609 C403.157577,387.098327 406.461581,392.111297 408.056641,398.263672 C409.651701,404.416046 410.449219,414.555919 410.449219,428.683594 C410.449219,444.634194 409.480804,456.426069 407.543945,464.05957 C405.607087,471.693072 401.4486,475.509766 395.068359,475.509766 C393.017568,475.509766 387.605838,473.288108 378.833008,468.844727 C370.060177,464.401345 357.92651,457.907269 342.431641,449.362305 C326.936771,440.81734 312.866274,433.183953 300.219727,426.461914 C287.573179,419.739875 267.578262,409.770899 240.234375,396.554688 Z M270.3125,87.9121094 C270.540366,89.5071694 270.711262,90.9882744 270.825195,92.3554688 C270.939128,93.7226631 270.996094,95.6594927 270.996094,98.1660156 C270.996094,104.546256 269.002299,111.894815 265.014648,120.211914 C261.026998,128.529013 255.900096,137.073849 249.633789,145.84668 C243.367482,154.61951 234.025127,167.151937 221.606445,183.444336 C209.187763,199.736735 197.737683,214.718682 187.255859,228.390625 C235.107661,219.275996 275.951979,210.503297 309.790039,202.072266 C343.628099,193.641234 371.484266,185.153363 393.359375,176.608398 C415.234484,168.063434 431.697536,159.062873 442.749023,149.606445 C453.800511,140.150018 459.326172,130.294973 459.326172,120.041016 C459.326172,108.647729 447.76216,99.704134 424.633789,93.2099609 C401.505418,86.7157878 373.193527,83.46875 339.697266,83.46875 C332.861294,83.46875 325.626666,83.6396467 317.993164,83.9814453 C310.359662,84.3232439 301.24517,85.0068308 290.649414,86.0322266 C280.053658,87.0576223 273.274754,87.6842437 270.3125,87.9121094 Z M494.189453,332.638672 L494.189453,341.183594 C494.189453,354.627671 497.493457,365.109337 504.101562,372.628906 C510.709668,380.148475 519.368436,383.908203 530.078125,383.908203 C541.243545,383.908203 552.807557,381.287787 564.770508,376.046875 C576.733458,370.805963 588.639264,363.856163 600.488281,355.197266 C612.337299,346.538368 626.806555,334.917391 643.896484,320.333984 L643.896484,341.183594 C618.147658,372.173332 593.994253,395.927977 571.435547,412.448242 C548.87684,428.968507 525.976679,437.228516 502.734375,437.228516 C482.454326,437.228516 466.390033,429.367266 454.541016,413.644531 C442.691998,397.921796 436.767578,376.388809 436.767578,349.044922 C436.767578,325.119021 442.350205,303.415136 453.515625,283.932617 C464.681045,264.450098 482.91003,243.885525 508.203125,222.238281 C525.52092,207.427009 542.724524,196.261756 559.814453,188.742187 C576.904382,181.222619 592.171157,177.462891 605.615234,177.462891 C616.324923,177.462891 624.812794,179.91241 631.079102,184.811523 C637.345409,189.710636 640.478516,197.059196 640.478516,206.857422 C640.478516,221.212962 635.123751,235.511322 624.414062,249.75293 C613.704374,263.994537 597.355253,278.122 575.366211,292.135742 C553.377169,306.149484 526.31852,319.650326 494.189453,332.638672 Z M497.607422,310.421875 C518.115337,302.446575 535.660734,292.534564 550.244141,280.685547 C564.827547,268.836529 575.594041,257.50038 582.543945,246.676758 C589.49385,235.853136 592.96875,227.934921 592.96875,222.921875 C592.96875,217.680963 590.576196,215.060547 585.791016,215.060547 C581.689433,215.060547 575.02446,217.680963 565.795898,222.921875 C556.567337,228.162787 547.224982,234.998656 537.768555,243.429688 C528.312127,251.860719 519.824256,261.772729 512.304688,273.166016 C504.785119,284.559302 499.886079,296.977797 497.607422,310.421875 Z M863.671875,319.650391 L863.671875,342.550781 C848.632737,356.222725 836.556035,365.337217 827.441406,369.894531 C818.326777,374.451846 805.224695,376.274744 788.134766,375.363281 C758.512222,410.454603 732.421988,428 709.863281,428 C697.102801,428 685.481823,423.784547 675,415.353516 C664.518177,406.922484 656.144237,395.415438 649.87793,380.832031 C643.611622,366.248625 640.478516,349.95647 640.478516,331.955078 C640.478516,317.371672 645.32059,301.193448 655.004883,283.419922 C664.689176,265.646396 677.221603,249.069413 692.602539,233.688477 C707.983475,218.30754 724.446527,205.889045 741.992188,196.432617 C759.537848,186.97619 775.830003,182.248047 790.869141,182.248047 C801.57883,182.248047 810.009735,183.900049 816.162109,187.204102 C822.314484,190.508155 825.390625,195.122366 825.390625,201.046875 C825.390625,205.604189 822.770208,210.845022 817.529297,216.769531 C826.188194,218.592457 832.112614,221.611633 835.302734,225.827148 C838.492854,230.042664 840.087891,237.733017 840.087891,248.898437 C840.087891,259.835992 837.52444,273.621662 832.397461,290.255859 C827.270482,306.890057 820.263716,322.498625 811.376953,337.082031 L817.529297,343.234375 L822.65625,343.234375 C826.529967,343.234375 830.346661,342.26596 834.106445,340.329102 C837.86623,338.392243 841.227199,336.341482 844.189453,334.176758 C847.151708,332.012033 853.645783,327.169959 863.671875,319.650391 Z M793.261719,229.757812 C774.348864,241.151099 758.17064,251.461868 744.726562,260.69043 C731.282485,269.918991 719.88937,279.261346 710.546875,288.717773 C701.20438,298.174201 694.938167,307.687452 691.748047,317.257812 C686.051404,342.778773 683.203125,356.564443 683.203125,358.615234 C683.203125,373.654372 693.684791,381.173828 714.648438,381.173828 C724.446664,381.173828 740.85275,372.742923 763.867188,355.880859 C759.99347,345.17117 758.056641,334.917367 758.056641,325.119141 C758.056641,310.7636 761.018851,296.123447 766.943359,281.198242 C772.867868,266.273037 781.640567,249.126399 793.261719,229.757812 Z" id="Reo" fill="#C5C5C5" opacity="0.167154948"></path>
                    <path d="M762.31985,36.4703189 L761.449821,36.8569985 C761.127588,36.1964208 760.579792,35.2297217 760.144777,34.6335906 L760.998695,34.2630226 C761.401486,34.843042 761.981506,35.8097412 762.31985,36.4703189 Z M758.662505,36.8569985 L753.103985,36.8569985 C752.572301,36.8569985 752.040616,36.8731102 751.621713,36.9053335 L751.621713,35.5680664 C752.088951,35.6164013 752.572301,35.6647363 753.087874,35.6647363 L758.662505,35.6647363 C759.113632,35.6647363 759.693651,35.632513 760.160889,35.5680664 L760.160889,36.9053335 C759.693651,36.8731102 759.129743,36.8569985 758.662505,36.8569985 Z M751.122252,39.6926493 L761.659273,39.6926493 C761.997617,39.6926493 762.529302,39.6765376 762.915981,39.6282027 L762.915981,40.9493582 C762.561525,40.9332465 762.045952,40.9171349 761.659273,40.9171349 L757.276903,40.9171349 C757.228568,42.6571933 756.970782,44.1233536 756.326316,45.3156158 C755.746296,46.3950965 754.521811,47.5551355 753.15232,48.2640482 L751.960058,47.3779073 C753.216767,46.8623344 754.376806,45.9278586 755.00516,44.9128245 C755.714073,43.7850089 755.891301,42.4316301 755.939636,40.9171349 L751.122252,40.9171349 C750.622791,40.9171349 750.155553,40.9171349 749.720538,40.9493582 L749.720538,39.6282027 C750.155553,39.660426 750.622791,39.6926493 751.122252,39.6926493 Z M761.917059,33.9730128 L762.770977,33.6185565 C763.189879,34.198576 763.818234,35.21361 764.124355,35.8097412 L763.254326,36.1964208 C762.89987,35.4875081 762.384297,34.5852556 761.917059,33.9730128 Z M762.12651,73.2920132 L761.33704,73.5659112 C761.095365,72.8731102 760.724797,71.9064111 760.418675,71.2941683 L761.192035,71.0524935 C761.482044,71.632513 761.917059,72.6314354 762.12651,73.2920132 Z M759.661428,74.4359404 L761.417598,74.4359404 C762.142622,74.4359404 762.674307,74.3876055 762.89987,74.3392705 L762.89987,75.708761 C762.722642,75.6926493 762.142622,75.660426 761.433709,75.660426 L759.661428,75.660426 L759.661428,76.2243338 C759.661428,80.5100332 758.726952,82.7173296 755.053495,84.3768297 L753.974015,83.345684 C756.906335,82.23398 758.356384,80.8483779 758.356384,76.3371154 L758.356384,75.660426 L753.780675,75.660426 L753.780675,78.2705136 C753.780675,78.8666447 753.82901,79.5755574 753.845121,79.7205623 L752.411184,79.7205623 C752.427296,79.5755574 752.491743,78.8827564 752.491743,78.2705136 L752.491743,75.660426 L750.751684,75.660426 C750.042771,75.660426 749.317747,75.708761 749.140519,75.708761 L749.140519,74.3231589 C749.285524,74.3553822 750.074995,74.4359404 750.751684,74.4359404 L752.491743,74.4359404 L752.491743,72.373649 C752.491743,71.8419645 752.443408,71.3425033 752.411184,71.1974984 L753.845121,71.1974984 C753.82901,71.3425033 753.780675,71.8097412 753.780675,72.3575373 L753.780675,74.4359404 L758.356384,74.4359404 L758.356384,72.4219839 C758.356384,71.7936295 758.308049,71.261945 758.291937,71.1008285 L759.741986,71.1008285 C759.725874,71.261945 759.661428,71.7936295 759.661428,72.4219839 L759.661428,74.4359404 Z M762.013729,70.8108187 L762.787088,70.569144 C763.09321,71.1491634 763.528224,72.1319742 763.753787,72.7925519 L762.964316,73.0503384 C762.70653,72.3414257 762.335962,71.4069499 762.013729,70.8108187 Z M761.159811,106.762484 L762.22318,107.729183 C761.111476,108.856999 759.564758,110.178154 757.905258,111.225411 L757.905258,118.121198 C757.905258,118.733441 757.937481,119.522912 758.001928,119.845145 L756.422986,119.845145 C756.471321,119.539024 756.519656,118.733441 756.519656,118.121198 L756.519656,112.030994 C754.795709,112.981581 752.572301,113.916057 750.461674,114.544412 L749.720538,113.287703 C752.411184,112.659348 755.150165,111.434863 756.922447,110.323159 C758.565835,109.308125 760.257559,107.906411 761.159811,106.762484 Z M752.008393,143.535843 C753.15232,144.293091 755.214612,145.968703 756.116864,146.870955 L755.10183,147.885989 C754.296248,147.048183 752.282291,145.324236 751.090029,144.518654 L752.008393,143.535843 Z M750.622791,154.33065 C753.44233,153.911747 755.536845,152.928936 757.067452,151.978349 C759.548646,150.415518 761.514268,148.030994 762.448743,146.049261 L763.222103,147.418751 C762.110399,149.432708 760.241447,151.623892 757.808588,153.138388 C756.197423,154.169533 754.167354,155.152344 751.476708,155.651805 L750.622791,154.33065 Z M764.043797,179.906411 L763.173768,180.293091 C762.819311,179.60029 762.287627,178.681926 761.836501,178.069683 L762.690418,177.715226 C763.109321,178.295246 763.737676,179.31028 764.043797,179.906411 Z M762.239292,180.566989 L761.353151,180.953668 C761.030918,180.309202 760.483122,179.326392 760.048107,178.714149 L760.902025,178.359692 C761.304816,178.9236 761.900947,179.922523 762.239292,180.566989 Z M753.700116,178.73026 L755.214612,178.875265 C755.150165,179.181387 755.069607,179.50362 755.021272,179.825853 C754.924602,180.293091 754.779597,181.227567 754.602369,182.081484 C755.343505,182.017037 756.004083,181.968703 756.390762,181.968703 C757.824699,181.968703 758.984738,182.53261 758.984738,184.691572 C758.984738,186.592747 758.726952,189.106164 758.066374,190.443431 C757.550801,191.506801 756.76133,191.764587 755.730185,191.764587 C755.117942,191.764587 754.360694,191.651805 753.845121,191.539024 L753.63567,190.169533 C754.312359,190.395097 755.150165,190.52399 755.601291,190.52399 C756.181311,190.52399 756.648549,190.395097 756.986893,189.702295 C757.502466,188.638926 757.744141,186.560523 757.744141,184.836577 C757.744141,183.386528 757.083563,183.128741 756.052418,183.128741 C755.665738,183.128741 755.037384,183.177076 754.344583,183.241523 C753.764563,185.529378 752.668971,189.122276 750.993359,191.79681 L749.688315,191.265126 C751.315592,189.090053 752.491743,185.497154 753.039539,183.370416 C752.201733,183.450975 751.444485,183.531533 751.025582,183.579868 C750.638903,183.628203 749.994437,183.692649 749.591645,183.773208 L749.462752,182.371494 C749.962213,182.387605 750.365004,182.387605 750.880577,182.371494 C751.412262,182.355382 752.330626,182.274824 753.297325,182.194266 C753.522888,181.050338 753.716228,179.809741 753.700116,178.73026 Z M759.516423,181.243678 L760.692573,180.695882 C761.691496,181.984814 763.077098,184.884912 763.608782,186.367184 L762.368185,186.979426 C761.884836,185.336038 760.628127,182.548722 759.516423,181.243678 Z M755.58518,214.359692 L756.906335,214.359692 C756.890224,214.569144 756.890224,214.82693 756.874112,215.100828 C757.019117,217.227567 757.889146,224.67115 763.947127,227.442354 C763.608782,227.70014 763.238214,228.102932 763.060986,228.425165 C758.90418,226.459543 757.131898,222.33496 756.358539,219.11263 C755.649626,222.33496 753.990126,226.217868 749.913878,228.425165 C749.704427,228.135155 749.317747,227.764587 748.947179,227.506801 C755.472398,224.171689 755.472398,216.486431 755.58518,214.359692 Z M757.05134,262.910669 L763.576559,262.910669 L763.576559,264.070708 L749.301635,264.070708 L749.301635,262.910669 L755.826855,262.910669 L755.826855,258.81831 L751.041694,258.81831 L751.041694,257.658271 L755.826855,257.658271 L755.826855,254.145931 L752.040616,254.145931 C751.525043,255.160965 750.961136,256.047106 750.348893,256.77213 C750.12333,256.57879 749.591645,256.224334 749.269412,256.063217 C750.590568,254.645392 751.621713,252.421984 752.250068,250.134129 L753.458442,250.391916 C753.200655,251.278057 752.910646,252.148086 752.556189,252.96978 L755.826855,252.96978 L755.826855,249.876343 L757.05134,249.876343 L757.05134,252.96978 L762.819311,252.96978 L762.819311,254.145931 L757.05134,254.145931 L757.05134,257.658271 L762.22318,257.658271 L762.22318,258.81831 L757.05134,258.81831 L757.05134,262.910669 Z M757.889146,297.170611 L756.648549,297.170611 C756.696884,296.558368 756.712995,295.527222 756.712995,294.689417 C755.230723,295.494999 754.199578,296.316693 754.199578,297.363951 C754.199578,298.62066 755.440175,298.797888 757.083563,298.797888 C758.324161,298.797888 760.031996,298.652883 761.433709,298.411208 L761.401486,299.716252 C760.193112,299.861257 758.42083,299.974038 757.035228,299.974038 C754.747374,299.974038 752.910646,299.490689 752.910646,297.541179 C752.910646,295.656116 754.81182,294.463853 756.66466,293.497154 C756.503544,292.836577 755.923524,292.514344 755.230723,292.514344 C754.183466,292.514344 753.216767,293.029916 752.475631,293.690494 C752.024505,294.125509 751.573378,294.72164 751.025582,295.366106 L749.92999,294.544412 C751.960058,292.57879 753.007315,290.935402 753.603447,289.678693 L752.942869,289.678693 C752.266179,289.678693 751.186699,289.646469 750.31667,289.582023 L750.31667,288.373649 C751.170587,288.470319 752.282291,288.534766 753.007315,288.534766 C753.34566,288.534766 753.684005,288.534766 754.054573,288.518654 C754.280136,287.809741 754.425141,287.084717 754.457364,286.536921 L755.77852,286.649702 C755.665738,287.100828 755.520733,287.761406 755.29517,288.486431 C756.922447,288.405872 758.662505,288.260867 760.177001,288.003081 L760.160889,289.195343 C758.581947,289.437018 756.616325,289.582023 754.876267,289.646469 C754.521811,290.468164 754.02235,291.354305 753.44233,292.095441 C754.02235,291.724873 754.940714,291.499309 755.649626,291.499309 C756.680772,291.499309 757.518578,291.998771 757.760253,292.949358 C758.855845,292.433785 759.822544,292.047106 760.66035,291.660426 C761.1437,291.450975 761.530379,291.257635 761.981506,291.032072 L762.497078,292.240445 C762.094287,292.353227 761.514268,292.57879 761.095365,292.739907 C760.193112,293.094363 759.049185,293.561601 757.840811,294.125509 C757.856923,295.043873 757.873034,296.397252 757.889146,297.170611 Z M755.923524,327.595979 L751.702272,327.595979 L751.702272,328.514344 L755.923524,328.514344 L755.923524,327.595979 Z M751.68616,330.23829 L755.923524,330.23829 L755.923524,329.303815 L751.702272,329.303815 L751.702272,329.319926 C751.702272,329.609936 751.702272,329.916057 751.68616,330.23829 Z M756.181311,333.057829 L752.475631,333.057829 L752.475631,334.959004 L756.181311,334.959004 L756.181311,333.057829 Z M757.003005,331.140543 L751.605602,331.140543 C751.573378,331.462776 751.525043,331.801121 751.460597,332.139465 L757.24468,332.139465 L757.24468,336.425165 L756.181311,336.425165 L756.181311,335.877369 L752.475631,335.877369 L752.475631,336.537946 L751.428374,336.537946 L751.428374,332.348917 C751.154475,333.718407 750.655014,335.104009 749.752762,336.215713 C749.607757,335.99015 749.172742,335.60347 748.947179,335.474577 C750.461674,333.637849 750.638903,331.140543 750.638903,329.303814 L750.638903,326.693727 L757.003005,326.693727 L757.003005,331.140543 Z M753.168432,322.021348 L754.264024,322.021348 C755.456287,322.9236 756.986893,324.212532 757.792476,325.050338 L757.003005,325.952591 C756.310204,325.179232 755.00516,323.922523 753.893456,323.052494 C753.44233,323.632513 752.894534,324.293091 752.233956,324.937557 L755.955748,324.937557 L755.955748,325.807586 L752.040616,325.807586 L752.040616,325.130897 C751.380039,325.759251 750.590568,326.387605 749.704427,326.951513 C749.559422,326.709839 749.188854,326.307047 748.947179,326.145931 C750.945024,324.953668 752.378961,323.326392 753.168432,322.021348 Z M759.451976,323.79363 L759.451976,332.655038 L758.324161,332.655038 L758.324161,323.79363 L759.451976,323.79363 Z M761.917059,322.182464 L763.077098,322.182464 L763.077098,334.991228 C763.077098,335.79681 762.867646,336.151267 762.368185,336.360718 C761.868724,336.554058 761.014806,336.586281 759.580869,336.57017 C759.532534,336.264048 759.339195,335.716252 759.161966,335.377907 C760.257559,335.426242 761.208146,335.410131 761.514268,335.394019 C761.788166,335.394019 761.917059,335.297349 761.917059,335.007339 L761.917059,322.182464 Z M750.993359,364.884912 C751.460597,364.804353 751.992281,364.659348 752.475631,364.498232 C753.619558,364.143776 756.229646,363.193188 758.114709,363.193188 C760.37034,363.193188 762.013729,364.546567 762.013729,366.72164 C762.013729,369.798965 759.049185,371.377907 754.747374,371.635694 L754.231801,370.395097 C757.679695,370.282315 760.708685,369.315616 760.708685,366.705528 C760.708685,365.352149 759.645316,364.369339 758.018039,364.369339 C756.036306,364.369339 752.556189,365.819387 751.525043,366.222179 L750.993359,364.884912 Z M749.784985,396.647547 C750.397228,396.631435 750.896689,396.599212 751.20281,396.566989 C752.250068,396.470319 755.262947,396.164198 758.195267,395.922523 C759.935326,395.777518 761.433709,395.69696 762.497078,395.648625 L762.497078,396.937557 C761.594826,396.937557 760.193112,396.953668 759.371418,397.195343 C757.099675,397.920368 755.730185,400.337115 755.730185,402.222179 C755.730185,405.347839 758.630282,406.33065 761.224258,406.42732 L760.75702,407.764587 C757.808588,407.651805 754.441252,406.072863 754.441252,402.512188 C754.441252,400.014882 755.939636,398.000926 757.405796,397.130897 C756.004083,397.292013 751.653937,397.710916 749.92999,398.065372 L749.784985,396.647547 Z M751.992281,432.131974 C751.927835,432.518654 751.8795,433.25979 751.863388,433.678693 C751.847276,434.677615 751.863388,436.143776 751.97617,437.448819 C752.233956,440.123354 753.007315,441.879524 754.135131,441.879524 C754.956825,441.879524 755.697961,440.236135 756.116864,438.62497 L757.131898,439.785009 C756.181311,442.491766 755.1985,443.410131 754.102908,443.410131 C752.604524,443.410131 751.154475,441.911747 750.719461,437.771052 C750.558344,436.38545 750.542233,434.452052 750.542233,433.517576 C750.542233,433.147008 750.526121,432.486431 750.445563,432.099751 L751.992281,432.131974 Z M760.305894,432.566989 C761.739831,434.419829 762.883758,437.690494 763.109321,440.38114 L761.804277,440.896713 C761.530379,438.028839 760.56368,434.870955 759.049185,433.002003 L760.305894,432.566989 Z M756.390762,478.813999 C756.841889,478.813999 757.276903,478.781776 757.663583,478.71733 C757.518578,477.460621 756.76133,476.590592 755.552956,476.590592 C754.827932,476.590592 754.280136,477.025606 754.280136,477.573402 C754.280136,478.362873 755.1985,478.813999 756.390762,478.813999 Z M759.677539,467.229722 L760.418675,468.164198 C760.128666,468.357537 759.774209,468.599212 759.532534,468.77644 C758.743064,469.372571 756.600214,471.257635 755.375728,472.28878 C756.100753,472.047106 756.825777,471.950436 757.53469,471.950436 C760.193112,471.950436 762.110399,473.561601 762.110399,475.720562 C762.110399,478.298427 759.967549,479.974038 756.600214,479.974038 C754.425141,479.974038 753.087874,479.007339 753.087874,477.686184 C753.087874,476.590592 754.070684,475.591669 755.552956,475.591669 C757.550801,475.591669 758.630282,476.928936 758.839733,478.411208 C760.096442,477.927859 760.821467,477.009494 760.821467,475.704451 C760.821467,474.14162 759.242525,472.997693 757.228568,472.997693 C754.602369,472.997693 753.15232,474.109397 751.122252,476.171689 L750.187776,475.221101 C751.508932,474.125509 753.555112,472.417674 754.489587,471.644314 C755.375728,470.903178 757.357461,469.227567 758.146932,468.518654 C757.309127,468.550877 754.167354,468.695882 753.34566,468.744217 C752.975092,468.760329 752.604524,468.77644 752.266179,468.840887 L752.233956,467.50362 C752.588412,467.551955 753.039539,467.551955 753.361772,467.551955 C754.183466,467.551955 757.969704,467.439173 758.80751,467.358615 C759.274748,467.31028 759.500311,467.278057 759.677539,467.229722 Z" id="デザインが僕の人生を創っている" fill="#1A1A1A"></path>
                    <path d="M775.931887,45.3204641 C771.234807,45.3204641 767.443189,41.5288457 767.443189,36.8317663 C767.443189,32.1346868 771.234807,28.3430684 775.931887,28.3430684 C780.628966,28.3430684 784.420584,32.1346868 784.420584,36.8317663 C784.420584,41.5288457 780.628966,45.3204641 775.931887,45.3204641 Z M768.122284,36.8317663 C768.122284,41.1515703 771.612082,44.6413683 775.931887,44.6413683 C780.251691,44.6413683 783.741489,41.1515703 783.741489,36.8317663 C783.741489,32.5119622 780.251691,29.0221642 775.931887,29.0221642 C771.612082,29.0221642 768.122284,32.5119622 768.122284,36.8317663 Z M799.002281,28.4185235 L807.868254,43.7736347 L790.136308,43.7736347 L799.002281,28.4185235 Z M799.002281,30.0785355 L791.569954,42.9436287 L806.434607,42.9436287 L799.002281,30.0785355 Z M814.527166,29.2862571 L829.618184,29.2862571 L829.618184,44.3772755 L814.527166,44.3772755 L814.527166,29.2862571 Z M815.206262,29.9653529 L815.206262,43.6981796 L828.939089,43.6981796 L828.939089,29.9653529 L815.206262,29.9653529 Z" id="○△□" fill="#1A1A1A" transform="translate(798.530687, 36.831766) rotate(-270.000000) translate(-798.530687, -36.831766) "></path>
                </g>
                <g id="maintext" transform="translate(480.500000, 526.000000)" fill="#1A1A1A">
                    <path d="M48.509,203 L48.509,129.74 L68.606,129.74 C90.98,129.74 104.84,141.323 104.84,166.073 C104.84,190.724 90.98,203 69.398,203 L48.509,203 Z M63.161,191.219 L67.715,191.219 C81.377,191.219 89.891,183.893 89.891,166.073 C89.891,148.154 81.377,141.422 67.715,141.422 L63.161,141.422 L63.161,191.219 Z M142.064,204.386 C126.62,204.386 114.542,193.595 114.542,175.379 C114.542,157.361 127.115,146.174 140.381,146.174 C155.627,146.174 163.547,157.361 163.547,172.706 C163.547,175.379 163.25,178.052 162.854,179.339 L128.699,179.339 C129.887,188.447 135.827,193.199 144.044,193.199 C148.598,193.199 152.558,191.813 156.518,189.338 L161.468,198.248 C156.023,202.01 148.994,204.386 142.064,204.386 Z M128.501,169.736 L151.073,169.736 C151.073,162.212 147.707,157.46 140.579,157.46 C134.738,157.46 129.59,161.618 128.501,169.736 Z M191.366,204.386 C183.941,204.386 175.724,201.119 170.279,196.565 L176.912,187.457 C181.862,191.318 186.614,193.496 191.762,193.496 C197.306,193.496 199.781,191.12 199.781,187.655 C199.781,183.497 194.039,181.616 188.198,179.339 C181.169,176.666 173.051,172.409 173.051,163.202 C173.051,153.203 181.169,146.174 193.643,146.174 C201.761,146.174 207.899,149.54 212.552,153.005 L206.018,161.816 C202.058,159.044 198.197,157.064 194.039,157.064 C189.089,157.064 186.713,159.242 186.713,162.41 C186.713,166.469 192.158,167.954 197.999,170.132 C205.325,172.904 213.443,176.567 213.443,186.863 C213.443,196.565 205.82,204.386 191.366,204.386 Z M224.531,203 L224.531,147.56 L238.985,147.56 L238.985,203 L224.531,203 Z M231.857,138.65 C226.808,138.65 223.145,135.284 223.145,130.73 C223.145,125.978 226.808,122.81 231.857,122.81 C236.807,122.81 240.47,125.978 240.47,130.73 C240.47,135.284 236.807,138.65 231.857,138.65 Z M274.13,227.057 C261.062,227.057 250.964,222.602 250.964,212.801 C250.964,208.148 253.835,204.188 258.884,201.317 L258.884,200.822 C256.013,198.941 253.835,196.07 253.835,191.516 C253.835,187.358 256.706,183.497 259.973,181.121 L259.973,180.725 C256.211,177.953 252.647,172.706 252.647,166.271 C252.647,153.203 263.24,146.174 275.021,146.174 C278.09,146.174 281.06,146.768 283.337,147.56 L303.335,147.56 L303.335,158.252 L293.831,158.252 C295.316,160.133 296.405,163.202 296.405,166.667 C296.405,179.141 286.901,185.477 275.021,185.477 C272.843,185.477 270.269,184.982 267.893,184.19 C266.309,185.477 265.517,186.764 265.517,188.942 C265.517,191.912 267.695,193.496 274.229,193.496 L283.634,193.496 C296.999,193.496 304.226,197.654 304.226,207.356 C304.226,218.543 292.643,227.057 274.13,227.057 Z M275.021,176.468 C279.872,176.468 283.634,172.805 283.634,166.271 C283.634,159.737 279.971,156.074 275.021,156.074 C270.071,156.074 266.309,159.737 266.309,166.271 C266.309,172.805 270.17,176.468 275.021,176.468 Z M276.308,217.85 C284.624,217.85 290.366,214.187 290.366,209.831 C290.366,205.871 287.099,204.881 281.159,204.881 L274.427,204.881 C271.061,204.881 268.685,204.584 266.705,204.089 C264.23,206.069 263.042,208.247 263.042,210.524 C263.042,215.177 268.19,217.85 276.308,217.85 Z M313.73,203 L313.73,147.56 L325.61,147.56 L326.6,154.886 L326.996,154.886 C331.847,150.134 337.49,146.174 345.014,146.174 C356.993,146.174 362.141,154.49 362.141,168.449 L362.141,203 L347.588,203 L347.588,170.231 C347.588,161.717 345.212,158.648 339.767,158.648 C335.213,158.648 332.342,160.826 328.184,164.885 L328.184,203 L313.73,203 Z M423.224,204.386 C407.879,204.386 396.197,193.694 396.197,175.379 C396.197,156.866 409.463,146.174 424.511,146.174 C431.342,146.174 436.589,148.847 440.648,152.312 L433.718,161.717 C430.946,159.341 428.372,158.054 425.204,158.054 C416.789,158.054 411.047,164.885 411.047,175.379 C411.047,185.774 416.789,192.506 424.808,192.506 C428.768,192.506 432.53,190.625 435.599,188.051 L441.341,197.654 C436.094,202.307 429.362,204.386 423.224,204.386 Z M451.835,203 L451.835,147.56 L463.715,147.56 L464.705,157.361 L465.101,157.361 C469.16,150.134 475.1,146.174 480.842,146.174 C483.911,146.174 485.693,146.669 487.376,147.362 L484.802,159.935 C482.921,159.341 481.337,159.044 479.06,159.044 C474.704,159.044 469.457,161.915 466.289,169.934 L466.289,203 L451.835,203 Z M517.868,204.386 C502.424,204.386 490.346,193.595 490.346,175.379 C490.346,157.361 502.919,146.174 516.185,146.174 C531.431,146.174 539.351,157.361 539.351,172.706 C539.351,175.379 539.054,178.052 538.658,179.339 L504.503,179.339 C505.691,188.447 511.631,193.199 519.848,193.199 C524.402,193.199 528.362,191.813 532.322,189.338 L537.272,198.248 C531.827,202.01 524.798,204.386 517.868,204.386 Z M504.305,169.736 L526.877,169.736 C526.877,162.212 523.511,157.46 516.383,157.46 C510.542,157.46 505.394,161.618 504.305,169.736 Z M563.606,204.386 C553.706,204.386 547.172,197.357 547.172,187.952 C547.172,176.072 556.775,169.835 579.05,167.459 C578.852,162.014 576.476,157.856 569.645,157.856 C564.497,157.856 559.547,160.133 554.399,163.103 L549.152,153.5 C555.686,149.441 563.606,146.174 572.318,146.174 C586.376,146.174 593.603,154.589 593.603,170.627 L593.603,203 L581.723,203 L580.634,197.06 L580.337,197.06 C575.486,201.218 569.942,204.386 563.606,204.386 Z M568.358,193.001 C572.516,193.001 575.585,191.021 579.05,187.556 L579.05,176.369 C565.586,178.151 561.032,181.814 561.032,186.764 C561.032,191.12 564.101,193.001 568.358,193.001 Z M626.867,204.386 C613.7,204.386 608.651,196.07 608.651,183.596 L608.651,159.044 L600.83,159.044 L600.83,148.253 L609.344,147.56 L611.027,132.71 L623.204,132.71 L623.204,147.56 L636.866,147.56 L636.866,159.044 L623.204,159.044 L623.204,183.596 C623.204,189.932 625.778,192.902 630.728,192.902 C632.51,192.902 634.688,192.308 636.173,191.714 L638.549,202.307 C635.579,203.297 631.718,204.386 626.867,204.386 Z M670.328,204.386 C654.884,204.386 642.806,193.595 642.806,175.379 C642.806,157.361 655.379,146.174 668.645,146.174 C683.891,146.174 691.811,157.361 691.811,172.706 C691.811,175.379 691.514,178.052 691.118,179.339 L656.963,179.339 C658.151,188.447 664.091,193.199 672.308,193.199 C676.862,193.199 680.822,191.813 684.782,189.338 L689.732,198.248 C684.287,202.01 677.258,204.386 670.328,204.386 Z M656.765,169.736 L679.337,169.736 C679.337,162.212 675.971,157.46 668.843,157.46 C663.002,157.46 657.854,161.618 656.765,169.736 Z M726.263,203 L726.263,147.56 L738.143,147.56 L739.133,154.985 L739.529,154.985 C744.182,150.134 749.33,146.174 756.557,146.174 C764.477,146.174 769.13,149.738 771.803,155.876 C776.852,150.53 782.198,146.174 789.425,146.174 C801.206,146.174 806.651,154.49 806.651,168.449 L806.651,203 L792.098,203 L792.098,170.231 C792.098,161.717 789.623,158.648 784.376,158.648 C781.208,158.648 777.644,160.727 773.684,164.885 L773.684,203 L759.131,203 L759.131,170.231 C759.131,161.717 756.656,158.648 751.409,158.648 C748.241,158.648 744.677,160.727 740.717,164.885 L740.717,203 L726.263,203 Z M826.55,225.275 C823.283,225.275 821.105,224.879 818.927,224.186 L821.6,212.999 C822.59,213.296 824.174,213.692 825.461,213.692 C831.104,213.692 834.272,210.128 835.856,205.277 L836.846,202.01 L815.264,147.56 L829.916,147.56 L838.727,173.3 C840.41,178.25 841.796,183.596 843.38,188.942 L843.875,188.942 C845.162,183.794 846.548,178.448 847.835,173.3 L855.458,147.56 L869.417,147.56 L849.716,204.683 C844.865,217.751 838.925,225.275 826.55,225.275 Z M959.606,204.386 C949.508,204.386 945.944,197.753 945.944,187.457 L945.944,123.998 L960.398,123.998 L960.398,188.15 C960.398,191.417 961.982,192.506 963.368,192.506 C963.962,192.506 964.358,192.506 965.348,192.308 L967.13,203.099 C965.447,203.792 962.972,204.386 959.606,204.386 Z M977.129,203 L977.129,147.56 L991.583,147.56 L991.583,203 L977.129,203 Z M984.455,138.65 C979.406,138.65 975.743,135.284 975.743,130.73 C975.743,125.978 979.406,122.81 984.455,122.81 C989.405,122.81 993.068,125.978 993.068,130.73 C993.068,135.284 989.405,138.65 984.455,138.65 Z M1039.499,124.592 L1036.826,135.284 C1034.945,134.591 1032.767,134.096 1030.985,134.096 C1026.629,134.096 1024.253,136.67 1024.253,142.808 L1024.253,147.56 L1034.648,147.56 L1034.648,159.044 L1024.253,159.044 L1024.253,203 L1009.7,203 L1009.7,159.044 L1002.275,159.044 L1002.275,148.253 L1009.7,147.659 L1009.7,143.105 C1009.7,131.522 1015.046,122.612 1029.005,122.612 C1033.262,122.612 1037.024,123.602 1039.499,124.592 Z M1066.922,204.386 C1051.478,204.386 1039.4,193.595 1039.4,175.379 C1039.4,157.361 1051.973,146.174 1065.239,146.174 C1080.485,146.174 1088.405,157.361 1088.405,172.706 C1088.405,175.379 1088.108,178.052 1087.712,179.339 L1053.557,179.339 C1054.745,188.447 1060.685,193.199 1068.902,193.199 C1073.456,193.199 1077.416,191.813 1081.376,189.338 L1086.326,198.248 C1080.881,202.01 1073.852,204.386 1066.922,204.386 Z M1053.359,169.736 L1075.931,169.736 C1075.931,162.212 1072.565,157.46 1065.437,157.46 C1059.596,157.46 1054.448,161.618 1053.359,169.736 Z" id="Designcreatemylife" transform="translate(568.457000, 174.834500) rotate(-360.000000) translate(-568.457000, -174.834500) "></path>
                    <path d="M-63.76536,204 L-63.76536,203.31558 L-61.55106,203.31558 L-61.55106,195.35752 L-63.2554,195.35752 L-63.2554,194.83414 C-62.46362,194.69994 -61.85972,194.48522 -61.39002,194.21682 L-60.75928,194.21682 L-60.75928,203.31558 L-58.71944,203.31558 L-58.71944,204 L-63.76536,204 Z M-44.6753,199.61166 C-43.95062,199.61166 -43.132,199.19564 -42.3939,198.17572 C-42.47442,196.04194 -43.25278,194.68652 -44.78266,194.68652 C-45.84284,194.68652 -46.63462,195.7467 -46.63462,197.16922 C-46.63462,198.57832 -46.03072,199.61166 -44.6753,199.61166 Z M-47.21168,203.23506 L-46.74198,202.7251 C-46.29912,203.23506 -45.70864,203.50346 -45.03764,203.50346 C-43.68222,203.50346 -42.461,202.3225 -42.38048,198.94066 C-43.02464,199.71902 -43.85668,200.2424 -44.76924,200.2424 C-46.40648,200.2424 -47.41298,199.15538 -47.41298,197.16922 C-47.41298,195.33068 -46.19176,194.04236 -44.76924,194.04236 C-42.87702,194.04236 -41.61554,195.62592 -41.61554,198.57832 C-41.61554,202.69826 -43.2662,204.17446 -45.05106,204.17446 C-46.00388,204.17446 -46.6883,203.78528 -47.21168,203.23506 Z M-27.4237801,204.17446 C-29.1818001,204.17446 -30.4567001,203.0606 -30.4567001,201.57098 C-30.4567001,200.22898 -29.4904601,199.27616 -28.5913201,198.77962 L-28.5913201,198.72594 C-29.2891601,198.25624 -29.9333201,197.53156 -29.9333201,196.49822 C-29.9333201,195.0757 -28.8328801,194.08262 -27.4103601,194.08262 C-25.7865401,194.08262 -24.8203001,195.16964 -24.8203001,196.64584 C-24.8203001,197.70602 -25.6120801,198.632 -26.1623001,199.07486 L-26.1623001,199.14196 C-25.3302601,199.6385 -24.4982201,200.34976 -24.4982201,201.69176 C-24.4982201,203.07402 -25.6791801,204.17446 -27.4237801,204.17446 Z M-26.7393601,198.86014 C-25.9610001,198.21598 -25.5449801,197.47788 -25.5449801,196.67268 C-25.5449801,195.6125 -26.2294001,194.71336 -27.4237801,194.71336 C-28.4437001,194.71336 -29.1818001,195.46488 -29.1818001,196.49822 C-29.1818001,197.8268 -27.9605801,198.37702 -26.7393601,198.86014 Z M-27.4237801,203.54372 C-26.1220401,203.54372 -25.2765801,202.7251 -25.2765801,201.67834 C-25.2765801,200.18872 -26.6454201,199.65192 -28.1216201,199.07486 C-29.0476001,199.62508 -29.7186001,200.47054 -29.7186001,201.53072 C-29.7186001,202.67142 -28.7523601,203.54372 -27.4237801,203.54372 Z M-10.4540801,204.17446 C-12.2121001,204.17446 -13.4870001,203.0606 -13.4870001,201.57098 C-13.4870001,200.22898 -12.5207601,199.27616 -11.6216201,198.77962 L-11.6216201,198.72594 C-12.3194601,198.25624 -12.9636201,197.53156 -12.9636201,196.49822 C-12.9636201,195.0757 -11.8631801,194.08262 -10.4406601,194.08262 C-8.81684011,194.08262 -7.85060011,195.16964 -7.85060011,196.64584 C-7.85060011,197.70602 -8.64238011,198.632 -9.19260011,199.07486 L-9.19260011,199.14196 C-8.36056011,199.6385 -7.52852011,200.34976 -7.52852011,201.69176 C-7.52852011,203.07402 -8.70948011,204.17446 -10.4540801,204.17446 Z M-9.76966011,198.86014 C-8.99130011,198.21598 -8.57528011,197.47788 -8.57528011,196.67268 C-8.57528011,195.6125 -9.25970011,194.71336 -10.4540801,194.71336 C-11.4740001,194.71336 -12.2121001,195.46488 -12.2121001,196.49822 C-12.2121001,197.8268 -10.9908801,198.37702 -9.76966011,198.86014 Z M-10.4540801,203.54372 C-9.15234011,203.54372 -8.30688011,202.7251 -8.30688011,201.67834 C-8.30688011,200.18872 -9.67572011,199.65192 -11.1519201,199.07486 C-12.0779001,199.62508 -12.7489001,200.47054 -12.7489001,201.53072 C-12.7489001,202.67142 -11.7826601,203.54372 -10.4540801,203.54372 Z M3.48269985,200.61816 L3.48269985,199.96058 L6.78401985,199.96058 L6.78401985,200.61816 L3.48269985,200.61816 Z M17.7415598,204 L17.7415598,203.51688 C21.0562998,200.65842 22.3714598,198.64542 22.3714598,196.87398 C22.3714598,195.65276 21.7541398,194.69994 20.3718798,194.69994 C19.5264198,194.69994 18.7614798,195.22332 18.1978398,195.92116 L17.7012998,195.45146 C18.4393998,194.63284 19.2714398,194.04236 20.4523998,194.04236 C22.1567398,194.04236 23.1632398,195.15622 23.1632398,196.84714 C23.1632398,198.9004 21.5796798,200.95366 18.9761998,203.38268 C19.5129998,203.34242 20.0766398,203.30216 20.5865998,203.30216 L23.6329398,203.30216 L23.6329398,204 L17.7415598,204 Z M37.7039198,204.17446 C35.9190598,204.17446 34.8186198,202.51038 34.8186198,199.07486 C34.8186198,195.6796 35.9190598,194.04236 37.7039198,194.04236 C39.4753598,194.04236 40.5757998,195.6796 40.5757998,199.07486 C40.5757998,202.51038 39.4753598,204.17446 37.7039198,204.17446 Z M37.7039198,203.51688 C38.9653998,203.51688 39.7974398,202.04068 39.7974398,199.07486 C39.7974398,196.16272 38.9653998,194.69994 37.7039198,194.69994 C36.4290198,194.69994 35.5969798,196.16272 35.5969798,199.07486 C35.5969798,202.04068 36.4290198,203.51688 37.7039198,203.51688 Z M52.3116997,204 L52.3116997,203.31558 L54.5259997,203.31558 L54.5259997,195.35752 L52.8216597,195.35752 L52.8216597,194.83414 C53.6134397,194.69994 54.2173397,194.48522 54.6870397,194.21682 L55.3177797,194.21682 L55.3177797,203.31558 L57.3576197,203.31558 L57.3576197,204 L52.3116997,204 Z M71.4017597,199.61166 C72.1264397,199.61166 72.9450597,199.19564 73.6831597,198.17572 C73.6026397,196.04194 72.8242797,194.68652 71.2943997,194.68652 C70.2342197,194.68652 69.4424397,195.7467 69.4424397,197.16922 C69.4424397,198.57832 70.0463397,199.61166 71.4017597,199.61166 Z M68.8653797,203.23506 L69.3350797,202.7251 C69.7779397,203.23506 70.3684197,203.50346 71.0394197,203.50346 C72.3948397,203.50346 73.6160597,202.3225 73.6965797,198.94066 C73.0524197,199.71902 72.2203797,200.2424 71.3078197,200.2424 C69.6705797,200.2424 68.6640797,199.15538 68.6640797,197.16922 C68.6640797,195.33068 69.8852997,194.04236 71.3078197,194.04236 C73.2000397,194.04236 74.4615197,195.62592 74.4615197,198.57832 C74.4615197,202.69826 72.8108597,204.17446 71.0259997,204.17446 C70.0731797,204.17446 69.3887597,203.78528 68.8653797,203.23506 Z" id="1988-2019" transform="translate(5.348080, 199.108410) rotate(-270.000000) translate(-5.348080, -199.108410) "></path>
                    <path d="M48.2,270 L48.2,257.539 L51.906,257.539 C54.439,257.539 56.19,258.389 56.19,260.582 C56.19,261.823 55.527,262.911 54.354,263.285 L54.354,263.37 C55.85,263.659 56.904,264.645 56.904,266.345 C56.904,268.793 54.966,270 52.178,270 L48.2,270 Z M49.781,262.843 L51.634,262.843 C53.776,262.843 54.643,262.044 54.643,260.786 C54.643,259.324 53.64,258.78 51.702,258.78 L49.781,258.78 L49.781,262.843 Z M49.781,268.742 L51.957,268.742 C54.099,268.742 55.357,267.977 55.357,266.294 C55.357,264.747 54.133,264.05 51.957,264.05 L49.781,264.05 L49.781,268.742 Z M72.9895789,270.221 C71.4425789,270.221 70.2865789,269.269 70.2865789,267.603 C70.2865789,265.597 72.0375789,264.594 75.9645789,264.152 C75.9645789,262.962 75.5735789,261.823 74.0605789,261.823 C72.9895789,261.823 72.0205789,262.316 71.2895789,262.809 L70.6775789,261.738 C71.5275789,261.194 72.8365789,260.531 74.3155789,260.531 C76.5595789,260.531 77.5115789,262.044 77.5115789,264.322 L77.5115789,270 L76.2365789,270 L76.1005789,268.895 L76.0495789,268.895 C75.1655789,269.626 74.1285789,270.221 72.9895789,270.221 Z M73.4315789,268.98 C74.3325789,268.98 75.0635789,268.555 75.9645789,267.756 L75.9645789,265.172 C72.8535789,265.546 71.7995789,266.311 71.7995789,267.501 C71.7995789,268.555 72.5135789,268.98 73.4315789,268.98 Z M94.4981579,270.221 C93.1891579,270.221 91.9311579,269.677 91.0471579,268.946 L91.8121579,267.926 C92.6111579,268.572 93.4441579,269.014 94.5491579,269.014 C95.7731579,269.014 96.3681579,268.368 96.3681579,267.569 C96.3681579,266.634 95.2801579,266.209 94.2601579,265.818 C92.9681579,265.342 91.5061579,264.713 91.5061579,263.149 C91.5061579,261.687 92.6791579,260.531 94.6851579,260.531 C95.8241579,260.531 96.8271579,261.007 97.5581579,261.568 L96.8101579,262.571 C96.1641579,262.095 95.5181579,261.755 94.6851579,261.755 C93.5291579,261.755 93.0021579,262.367 93.0021579,263.081 C93.0021579,263.965 94.0051579,264.288 95.0421579,264.679 C96.3851579,265.189 97.8641579,265.733 97.8641579,267.484 C97.8641579,268.98 96.6741579,270.221 94.4981579,270.221 Z M115.394737,270.221 C112.946737,270.221 110.974737,268.436 110.974737,265.393 C110.974737,262.401 112.997737,260.531 115.139737,260.531 C117.485737,260.531 118.811737,262.231 118.811737,264.866 C118.811737,265.206 118.777737,265.529 118.743737,265.75 L112.521737,265.75 C112.623737,267.722 113.830737,268.98 115.581737,268.98 C116.482737,268.98 117.213737,268.708 117.893737,268.249 L118.454737,269.269 C117.638737,269.796 116.652737,270.221 115.394737,270.221 Z M112.504737,264.645 L117.451737,264.645 C117.451737,262.775 116.601737,261.772 115.156737,261.772 C113.847737,261.772 112.691737,262.826 112.504737,264.645 Z M135.866316,270.221 C133.554316,270.221 132.058316,268.47 132.058316,265.393 C132.058316,262.401 133.945316,260.531 136.053316,260.531 C137.141316,260.531 137.838316,260.939 138.654316,261.619 L138.569316,260.021 L138.569316,256.468 L140.116316,256.468 L140.116316,270 L138.858316,270 L138.705316,268.912 L138.671316,268.912 C137.940316,269.626 136.971316,270.221 135.866316,270.221 Z M136.206316,268.929 C137.056316,268.929 137.804316,268.504 138.569316,267.654 L138.569316,262.809 C137.787316,262.112 137.090316,261.84 136.325316,261.84 C134.829316,261.84 133.656316,263.268 133.656316,265.376 C133.656316,267.603 134.574316,268.929 136.206316,268.929 Z M170.332474,270 L170.332474,260.769 L171.879474,260.769 L171.879474,270 L170.332474,270 Z M171.114474,258.865 C170.502474,258.865 170.043474,258.44 170.043474,257.862 C170.043474,257.233 170.502474,256.859 171.114474,256.859 C171.726474,256.859 172.185474,257.233 172.185474,257.862 C172.185474,258.44 171.726474,258.865 171.114474,258.865 Z M186.639053,270 L186.639053,260.769 L187.914053,260.769 L188.050053,262.095 L188.101053,262.095 C188.985053,261.228 189.937053,260.531 191.195053,260.531 C193.133053,260.531 194.017053,261.789 194.017053,264.152 L194.017053,270 L192.470053,270 L192.470053,264.356 C192.470053,262.622 191.943053,261.891 190.719053,261.891 C189.767053,261.891 189.121053,262.367 188.186053,263.302 L188.186053,270 L186.639053,270 Z M226.528211,270 L222.550211,257.539 L224.199211,257.539 L226.222211,264.288 C226.664211,265.75 226.953211,266.94 227.429211,268.402 L227.497211,268.402 C227.956211,266.94 228.262211,265.75 228.704211,264.288 L230.710211,257.539 L232.308211,257.539 L228.347211,270 L226.528211,270 Z M247.203789,270.221 C245.656789,270.221 244.500789,269.269 244.500789,267.603 C244.500789,265.597 246.251789,264.594 250.178789,264.152 C250.178789,262.962 249.787789,261.823 248.274789,261.823 C247.203789,261.823 246.234789,262.316 245.503789,262.809 L244.891789,261.738 C245.741789,261.194 247.050789,260.531 248.529789,260.531 C250.773789,260.531 251.725789,262.044 251.725789,264.322 L251.725789,270 L250.450789,270 L250.314789,268.895 L250.263789,268.895 C249.379789,269.626 248.342789,270.221 247.203789,270.221 Z M247.645789,268.98 C248.546789,268.98 249.277789,268.555 250.178789,267.756 L250.178789,265.172 C247.067789,265.546 246.013789,266.311 246.013789,267.501 C246.013789,268.555 246.727789,268.98 247.645789,268.98 Z M266.298368,270 L266.298368,260.769 L267.573368,260.769 L267.709368,262.095 L267.760368,262.095 C268.644368,261.228 269.596368,260.531 270.854368,260.531 C272.792368,260.531 273.676368,261.789 273.676368,264.152 L273.676368,270 L272.129368,270 L272.129368,264.356 C272.129368,262.622 271.602368,261.891 270.378368,261.891 C269.426368,261.891 268.780368,262.367 267.845368,263.302 L267.845368,270 L266.298368,270 Z M291.954947,270.221 C289.506947,270.221 287.619947,268.453 287.619947,265.393 C287.619947,262.316 289.710947,260.531 292.073947,260.531 C293.280947,260.531 294.113947,261.041 294.776947,261.619 L293.977947,262.656 C293.433947,262.163 292.872947,261.823 292.124947,261.823 C290.458947,261.823 289.234947,263.268 289.234947,265.393 C289.234947,267.518 290.390947,268.929 292.090947,268.929 C292.940947,268.929 293.688947,268.538 294.266947,268.011 L294.929947,269.048 C294.113947,269.796 293.059947,270.221 291.954947,270.221 Z M311.780526,270.221 C309.519526,270.221 307.496526,268.453 307.496526,265.393 C307.496526,262.316 309.519526,260.531 311.780526,260.531 C314.041526,260.531 316.064526,262.316 316.064526,265.393 C316.064526,268.453 314.041526,270.221 311.780526,270.221 Z M311.780526,268.929 C313.378526,268.929 314.466526,267.518 314.466526,265.393 C314.466526,263.268 313.378526,261.823 311.780526,261.823 C310.182526,261.823 309.111526,263.268 309.111526,265.393 C309.111526,267.518 310.182526,268.929 311.780526,268.929 Z M332.813105,270.221 C330.875105,270.221 330.008105,268.963 330.008105,266.617 L330.008105,260.769 L331.555105,260.769 L331.555105,266.43 C331.555105,268.147 332.065105,268.878 333.289105,268.878 C334.241105,268.878 334.904105,268.419 335.788105,267.314 L335.788105,260.769 L337.335105,260.769 L337.335105,270 L336.043105,270 L335.924105,268.555 L335.873105,268.555 C335.006105,269.558 334.088105,270.221 332.813105,270.221 Z M354.066684,270 L350.734684,260.769 L352.349684,260.769 L354.083684,266.022 C354.372684,266.923 354.661684,267.875 354.950684,268.742 L355.018684,268.742 C355.290684,267.875 355.596684,266.923 355.868684,266.022 L357.619684,260.769 L359.149684,260.769 L355.868684,270 L354.066684,270 Z M376.221263,270.221 C373.773263,270.221 371.801263,268.436 371.801263,265.393 C371.801263,262.401 373.824263,260.531 375.966263,260.531 C378.312263,260.531 379.638263,262.231 379.638263,264.866 C379.638263,265.206 379.604263,265.529 379.570263,265.75 L373.348263,265.75 C373.450263,267.722 374.657263,268.98 376.408263,268.98 C377.309263,268.98 378.040263,268.708 378.720263,268.249 L379.281263,269.269 C378.465263,269.796 377.479263,270.221 376.221263,270.221 Z M373.331263,264.645 L378.278263,264.645 C378.278263,262.775 377.428263,261.772 375.983263,261.772 C374.674263,261.772 373.518263,262.826 373.331263,264.645 Z M393.547842,270 L393.547842,260.769 L394.822842,260.769 L394.958842,262.452 L395.009842,262.452 C395.655842,261.279 396.590842,260.531 397.627842,260.531 C398.035842,260.531 398.324842,260.582 398.613842,260.735 L398.324842,262.095 C398.018842,261.976 397.797842,261.942 397.423842,261.942 C396.658842,261.942 395.706842,262.486 395.094842,264.067 L395.094842,270 L393.547842,270 Z M429.34,270.221 C427.793,270.221 426.637,269.269 426.637,267.603 C426.637,265.597 428.388,264.594 432.315,264.152 C432.315,262.962 431.924,261.823 430.411,261.823 C429.34,261.823 428.371,262.316 427.64,262.809 L427.028,261.738 C427.878,261.194 429.187,260.531 430.666,260.531 C432.91,260.531 433.862,262.044 433.862,264.322 L433.862,270 L432.587,270 L432.451,268.895 L432.4,268.895 C431.516,269.626 430.479,270.221 429.34,270.221 Z M429.782,268.98 C430.683,268.98 431.414,268.555 432.315,267.756 L432.315,265.172 C429.204,265.546 428.15,266.311 428.15,267.501 C428.15,268.555 428.864,268.98 429.782,268.98 Z M448.434579,270 L448.434579,260.769 L449.709579,260.769 L449.845579,262.095 L449.896579,262.095 C450.780579,261.228 451.732579,260.531 452.990579,260.531 C454.928579,260.531 455.812579,261.789 455.812579,264.152 L455.812579,270 L454.265579,270 L454.265579,264.356 C454.265579,262.622 453.738579,261.891 452.514579,261.891 C451.562579,261.891 450.916579,262.367 449.981579,263.302 L449.981579,270 L448.434579,270 Z M473.598158,270.221 C471.286158,270.221 469.790158,268.47 469.790158,265.393 C469.790158,262.401 471.677158,260.531 473.785158,260.531 C474.873158,260.531 475.570158,260.939 476.386158,261.619 L476.301158,260.021 L476.301158,256.468 L477.848158,256.468 L477.848158,270 L476.590158,270 L476.437158,268.912 L476.403158,268.912 C475.672158,269.626 474.703158,270.221 473.598158,270.221 Z M473.938158,268.929 C474.788158,268.929 475.536158,268.504 476.301158,267.654 L476.301158,262.809 C475.519158,262.112 474.822158,261.84 474.057158,261.84 C472.561158,261.84 471.388158,263.268 471.388158,265.376 C471.388158,267.603 472.306158,268.929 473.938158,268.929 Z M510.801316,270 L510.801316,258.865 L507.027316,258.865 L507.027316,257.539 L516.156316,257.539 L516.156316,258.865 L512.382316,258.865 L512.382316,270 L510.801316,270 Z M532.207895,270.221 C529.946895,270.221 527.923895,268.453 527.923895,265.393 C527.923895,262.316 529.946895,260.531 532.207895,260.531 C534.468895,260.531 536.491895,262.316 536.491895,265.393 C536.491895,268.453 534.468895,270.221 532.207895,270.221 Z M532.207895,268.929 C533.805895,268.929 534.893895,267.518 534.893895,265.393 C534.893895,263.268 533.805895,261.823 532.207895,261.823 C530.609895,261.823 529.538895,263.268 529.538895,265.393 C529.538895,267.518 530.609895,268.929 532.207895,268.929 Z M550.554474,270 L550.554474,256.468 L552.084474,256.468 L552.084474,265.648 L552.118474,265.648 L556.079474,260.769 L557.796474,260.769 L554.702474,264.475 L558.204474,270 L556.521474,270 L553.818474,265.546 L552.084474,267.569 L552.084474,270 L550.554474,270 Z M571.723053,273.978 C571.281053,273.978 570.924053,273.91 570.635053,273.791 L570.941053,272.55 C571.128053,272.618 571.400053,272.703 571.638053,272.703 C572.692053,272.703 573.355053,271.853 573.729053,270.714 L573.933053,270.017 L570.227053,260.769 L571.842053,260.769 L573.729053,265.903 C574.001053,266.702 574.324053,267.654 574.613053,268.487 L574.698053,268.487 C574.953053,267.654 575.225053,266.719 575.480053,265.903 L577.129053,260.769 L578.642053,260.769 L575.157053,270.765 C574.511053,272.584 573.559053,273.978 571.723053,273.978 Z M595.577632,270.221 C593.316632,270.221 591.293632,268.453 591.293632,265.393 C591.293632,262.316 593.316632,260.531 595.577632,260.531 C597.838632,260.531 599.861632,262.316 599.861632,265.393 C599.861632,268.453 597.838632,270.221 595.577632,270.221 Z M595.577632,268.929 C597.175632,268.929 598.263632,267.518 598.263632,265.393 C598.263632,263.268 597.175632,261.823 595.577632,261.823 C593.979632,261.823 592.908632,263.268 592.908632,265.393 C592.908632,267.518 593.979632,268.929 595.577632,268.929 Z" id="BasedinVancouverandTokyo"></path>
                </g>
            </g>
        </g>
    </g>
</svg>