<?xml version="1.0" encoding="UTF-8"?>
<svg width="36px" height="42px" viewBox="0 0 36 42" version="1.1" xmlns="http://www.w3.org/2000/svg" xmlns:xlink="http://www.w3.org/1999/xlink">
    <!-- Generator: Sketch 55 (78076) - https://sketchapp.com -->
    <title>logo</title>
    <desc>Created with Sketch.</desc>
    <g id="Page-1" stroke="none" stroke-width="1" fill="none" fill-rule="evenodd">
        <g id="home" transform="translate(-85.000000, -85.000000)" fill="#1A1A1A" fill-rule="nonzero">
            <path d="M94.1902439,104 L104.258537,104 C106.365864,104 107.946336,103.529416 109,102.588235 C110.053664,101.647054 110.580488,100.117658 110.580488,98 C110.580488,95.9607741 110.053664,94.4803968 109,93.5588235 C107.946336,92.6372503 106.365864,92.1764706 104.258537,92.1764706 L94.1902439,92.1764706 L94.1902439,104 Z M85,85 L107.536585,85 C109.409765,85 111.097553,85.3039185 112.6,85.9117647 C114.102447,86.5196109 115.390239,87.3529359 116.463415,88.4117647 C117.536591,89.4705935 118.356095,90.6960715 118.921951,92.0882353 C119.487808,93.4803991 119.770732,94.9803841 119.770732,96.5882353 C119.770732,99.0588359 119.253664,101.196069 118.219512,103 C117.185361,104.803931 115.497573,106.176466 113.156098,107.117647 L113.156098,107.235294 C114.287811,107.549021 115.224387,108.029409 115.965854,108.676471 C116.707321,109.323533 117.312193,110.088231 117.780488,110.970588 C118.248783,111.852946 118.590243,112.823524 118.804878,113.882353 C119.019513,114.941182 119.165853,115.999995 119.243902,117.058824 C119.282927,117.725494 119.321951,118.509799 119.360976,119.411765 C119.4,120.31373 119.468292,121.235289 119.565854,122.176471 C119.663415,123.117652 119.819511,124.0098 120.034146,124.852941 C120.248782,125.696083 120.57073,126.411762 121,127 L111.809756,127 C111.302436,125.66666 110.990244,124.078441 110.873171,122.235294 C110.756097,120.392148 110.580489,118.627459 110.346341,116.941176 C110.034145,114.745087 109.370737,113.13726 108.356098,112.117647 C107.341458,111.098034 105.682938,110.588235 103.380488,110.588235 L94.1902439,110.588235 L94.1902439,127 L85,127 L112.6,107.235294 L85,85 Z" id="logo"></path>
        </g>
    </g>
</svg>