<?xml version="1.0" encoding="UTF-8"?>
<svg width="1141px" height="496px" viewBox="0 0 1141 496" version="1.1" xmlns="http://www.w3.org/2000/svg" xmlns:xlink="http://www.w3.org/1999/xlink">
    <!-- Generator: Sketch 55.1 (78136) - https://sketchapp.com -->
    <title>title</title>
    <desc>Created with Sketch.</desc>
    <g id="Page-1" stroke="none" stroke-width="1" fill="none" fill-rule="evenodd">
        <g id="home" transform="translate(-388.000000, -305.000000)" fill="#1A1A1A" fill-rule="nonzero">
            <g id="hero" transform="translate(-98.000000, -140.000000)">
                <g id="title" transform="translate(481.000000, 442.000000)">
                    <g id="maintitle" transform="translate(943.000000, 0.000000)">
                        <path d="M13.5131262,33.9558664 L12.6535956,34.33788 C12.3352509,33.6852734 11.7940649,32.7302393 11.3642995,32.1413016 L12.207913,31.7752052 C12.6058439,32.3482256 13.1788643,33.3032597 13.5131262,33.9558664 Z M9.8999139,34.33788 L4.40846783,34.33788 C3.88319907,34.33788 3.35793032,34.3537972 2.94408221,34.3856317 L2.94408221,33.0645012 C3.40568202,33.1122529 3.88319907,33.1600046 4.39255059,33.1600046 L9.8999139,33.1600046 C10.3455965,33.1600046 10.9186169,33.1281702 11.3802168,33.0645012 L11.3802168,34.3856317 C10.9186169,34.3537972 10.3615137,34.33788 9.8999139,34.33788 Z M2.45064792,37.1393134 L12.8605196,37.1393134 C13.1947815,37.1393134 13.7200503,37.1233961 14.1020639,37.0756444 L14.1020639,38.3808577 C13.7518848,38.3649405 13.2425333,38.3490232 12.8605196,38.3490232 L8.53103169,38.3490232 C8.48327999,40.0680846 8.22860423,41.516553 7.59191483,42.6944284 C7.01889437,43.7608831 5.80918451,44.9069241 4.45621953,45.6072824 L3.27834414,44.7318345 C4.51988847,44.2224829 5.66592939,43.2992833 6.28670156,42.2964975 C6.9870599,41.1822911 7.16214948,39.8452433 7.20990119,38.3490232 L2.45064792,38.3490232 C1.95721364,38.3490232 1.49561382,38.3490232 1.06584848,38.3808577 L1.06584848,37.0756444 C1.49561382,37.1074789 1.95721364,37.1393134 2.45064792,37.1393134 Z M13.1151954,31.4886949 L13.9588088,31.1385158 C14.3726569,31.7115362 14.9934291,32.714322 15.2958566,33.3032597 L14.4363259,33.6852734 C14.0861467,32.984915 13.5767952,32.0935499 13.1151954,31.4886949 Z M13.3221194,72.5676454 L12.5421749,72.8382384 C12.3034164,72.1537972 11.93732,71.1987631 11.6348925,70.5939082 L12.3989198,70.3551497 C12.68543,70.9281702 13.1151954,71.9150387 13.3221194,72.5676454 Z M10.8867825,73.697769 L12.6217611,73.697769 C13.3380367,73.697769 13.8633054,73.6500173 14.0861467,73.6022656 L14.0861467,74.9552306 C13.9110571,74.9393134 13.3380367,74.9074789 12.6376783,74.9074789 L10.8867825,74.9074789 L10.8867825,75.4645821 C10.8867825,79.6985666 9.96358284,81.8792278 6.33445326,83.518703 L5.26799852,82.5 C8.16493529,81.4017108 9.59748644,80.0328286 9.59748644,75.5760028 L9.59748644,74.9074789 L5.0769917,74.9074789 L5.0769917,77.486071 C5.0769917,78.0750087 5.1247434,78.775367 5.14066064,78.9186221 L3.72402672,78.9186221 C3.73994396,78.775367 3.8036129,78.0909259 3.8036129,77.486071 L3.8036129,74.9074789 L2.08455152,74.9074789 C1.38419318,74.9074789 0.6679176,74.9552306 0.492828015,74.9552306 L0.492828015,73.5863484 C0.63608313,73.6181829 1.41602765,73.697769 2.08455152,73.697769 L3.8036129,73.697769 L3.8036129,71.660363 C3.8036129,71.1350942 3.75586119,70.6416599 3.72402672,70.4984048 L5.14066064,70.4984048 C5.1247434,70.6416599 5.0769917,71.1032597 5.0769917,71.6444457 L5.0769917,73.697769 L9.59748644,73.697769 L9.59748644,71.7081147 C9.59748644,71.0873425 9.54973473,70.5620737 9.5338175,70.4029014 L10.9663686,70.4029014 C10.9504514,70.5620737 10.8867825,71.0873425 10.8867825,71.7081147 L10.8867825,73.697769 Z M13.2106988,70.1163912 L13.9747261,69.8776326 C14.2771535,70.4506531 14.7069189,71.4216044 14.9297602,72.0742111 L14.1498156,72.3288868 C13.8951399,71.6285285 13.5290435,70.7053289 13.2106988,70.1163912 Z M12.3670853,107.868639 L13.4176228,108.823674 C12.3193336,109.93788 10.7912791,111.243093 9.15180386,112.277714 L9.15180386,119.09029 C9.15180386,119.695145 9.18363833,120.47509 9.24730727,120.793434 L7.68741824,120.793434 C7.73516994,120.491007 7.78292165,119.695145 7.78292165,119.09029 L7.78292165,113.073575 C6.0797775,114.012692 3.88319907,114.935892 1.79804129,115.556664 L1.06584848,114.31512 C3.72402672,113.694347 6.42995667,112.484638 8.18085252,111.386348 C9.80441049,110.383563 11.4757202,108.998763 12.3670853,107.868639 Z M3.32609585,146.432667 C4.45621953,147.180777 6.49362561,148.836169 7.38499077,149.727534 L6.38220497,150.73032 C5.58634322,149.902624 3.59668884,148.19948 2.41881345,147.403618 L3.32609585,146.432667 Z M1.95721364,157.097214 C4.74272976,156.683366 6.81197031,155.712415 8.32410764,154.773298 C10.7753618,153.229326 12.7172645,150.873575 13.6404641,148.915755 L14.4044914,150.26872 C13.3062022,152.258375 11.4598029,154.423119 9.05630045,155.919339 C7.46457695,156.938042 5.45900534,157.908993 2.80082709,158.402427 L1.95721364,157.097214 Z M15.2162704,184.598763 L14.3567397,184.980777 C14.0065605,184.296336 13.4812918,183.389053 13.0356092,182.784198 L13.8792227,182.434019 C14.2930708,183.00704 14.9138429,184.009825 15.2162704,184.598763 Z M13.4335401,185.25137 L12.5580921,185.633383 C12.2397474,184.996694 11.6985615,184.025743 11.2687961,183.420888 L12.1124096,183.070709 C12.5103404,183.627812 13.0992781,184.61468 13.4335401,185.25137 Z M4.99740552,183.436805 L6.49362561,183.58006 C6.42995667,183.882488 6.3503705,184.200832 6.30261879,184.519177 C6.20711538,184.980777 6.06386027,185.903976 5.88877068,186.74759 C6.62096349,186.683921 7.27357013,186.636169 7.65558377,186.636169 C9.07221768,186.636169 10.2182586,187.193272 10.2182586,189.326182 C10.2182586,191.204416 9.96358284,193.687504 9.31097621,195.008635 C8.80162469,196.059172 8.02168017,196.313848 7.00297713,196.313848 C6.3981222,196.313848 5.65001216,196.202427 5.14066064,196.091007 L4.93373658,194.738042 C5.60226045,194.960883 6.42995667,195.088221 6.87563925,195.088221 C7.44865971,195.088221 7.91025953,194.960883 8.24452146,194.276442 C8.75387298,193.225905 8.99263151,191.172581 8.99263151,189.469437 C8.99263151,188.036886 8.34002487,187.78221 7.32132183,187.78221 C6.93930819,187.78221 6.31853603,187.829962 5.63409492,187.893631 C5.06107446,190.153878 3.97870248,193.703422 2.32331004,196.345683 L1.03401401,195.820414 C2.64165474,193.671587 3.8036129,190.122044 4.34479889,188.020969 C3.51710267,188.100555 2.76899262,188.180141 2.35514451,188.227893 C1.97313087,188.275644 1.33644147,188.339313 0.938510595,188.4189 L0.811172715,187.0341 C1.304607,187.050017 1.70253788,187.050017 2.2118894,187.0341 C2.73715815,187.018183 3.64444055,186.938597 4.59947465,186.859011 C4.82231594,185.728887 5.01332276,184.50326 4.99740552,183.436805 Z M10.7435274,185.919894 L11.9054855,185.378708 C12.8923541,186.652086 14.2612363,189.517189 14.786505,190.981574 L13.560878,191.586429 C13.0833609,189.962871 11.8418166,187.20919 10.7435274,185.919894 Z M6.85972202,220.870709 L8.16493529,220.870709 C8.14901805,221.077633 8.14901805,221.332308 8.13310082,221.602901 C8.27635593,223.703976 9.13588662,231.057739 15.120767,233.795503 C14.786505,234.050179 14.4204086,234.44811 14.2453191,234.766455 C10.1386724,232.824552 8.38777658,228.74974 7.6237493,225.566293 C6.92339096,228.74974 5.28391575,232.585794 1.2568553,234.766455 C1.04993124,234.479945 0.6679176,234.113848 0.301821195,233.859172 C6.74830137,230.564305 6.74830137,222.971784 6.85972202,220.870709 Z M8.3081904,271.070235 L14.7546706,271.070235 L14.7546706,272.216276 L0.652000365,272.216276 L0.652000365,271.070235 L7.09848054,271.070235 L7.09848054,267.027257 L2.37106175,267.027257 L2.37106175,265.881216 L7.09848054,265.881216 L7.09848054,262.411259 L3.35793032,262.411259 C2.8485788,263.414045 2.29147557,264.289493 1.68662064,265.005768 C1.46377935,264.814761 0.938510595,264.464582 0.620165895,264.30541 C1.92537917,262.904693 2.94408221,260.708115 3.56485437,258.447867 L4.758647,258.702543 C4.50397124,259.577991 4.21746101,260.437522 3.86728184,261.249301 L7.09848054,261.249301 L7.09848054,258.193192 L8.3081904,258.193192 L8.3081904,261.249301 L14.0065605,261.249301 L14.0065605,262.411259 L8.3081904,262.411259 L8.3081904,265.881216 L13.4176228,265.881216 L13.4176228,267.027257 L8.3081904,267.027257 L8.3081904,271.070235 Z M9.13588662,307.151173 L7.91025953,307.151173 C7.95801123,306.546318 7.97392847,305.527615 7.97392847,304.699919 C6.50954285,305.495781 5.49083981,306.30756 5.49083981,307.34218 C5.49083981,308.583724 6.7164669,308.758814 8.34002487,308.758814 C9.56565197,308.758814 11.2528789,308.615559 12.6376783,308.3768 L12.6058439,309.666096 C11.4120512,309.809352 9.66115538,309.920772 8.29227317,309.920772 C6.0320258,309.920772 4.21746101,309.443255 4.21746101,307.51727 C4.21746101,305.654953 6.09569474,304.477078 7.92617676,303.522044 C7.76700441,302.869437 7.19398395,302.551092 6.50954285,302.551092 C5.47492257,302.551092 4.51988847,303.060444 3.78769566,303.713051 C3.34201308,304.142816 2.8963305,304.731754 2.35514451,305.368443 L1.27277253,304.556664 C3.27834414,302.614761 4.31296442,300.991203 4.90190211,299.749659 L4.24929548,299.749659 C3.58077161,299.749659 2.51431686,299.717825 1.65478617,299.654156 L1.65478617,298.460363 C2.49839963,298.555866 3.59668884,298.619535 4.31296442,298.619535 C4.64722635,298.619535 4.98148829,298.619535 5.34758469,298.603618 C5.57042598,297.90326 5.7136811,297.186984 5.74551557,296.645798 L7.05072884,296.757219 C6.93930819,297.202901 6.79605308,297.855508 6.57321179,298.571784 C8.18085252,298.492197 9.8999139,298.348942 11.396134,298.094267 L11.3802168,299.272142 C9.82032773,299.5109 7.87842506,299.654156 6.15936368,299.717825 C5.80918451,300.529604 5.31575022,301.405051 4.74272976,302.137244 C5.31575022,301.771148 6.22303262,301.548307 6.92339096,301.548307 C7.942094,301.548307 8.76979022,302.041741 9.00854874,302.980858 C10.0909207,302.471506 11.0459548,302.089493 11.873651,301.707479 C12.3511681,301.500555 12.7331817,301.309548 13.1788643,301.086707 L13.6882158,302.280499 C13.290285,302.39192 12.7172645,302.614761 12.3034164,302.773934 C11.4120512,303.124113 10.2819275,303.585713 9.08813492,304.142816 C9.10405215,305.050098 9.11996939,306.387146 9.13588662,307.151173 Z M7.19398395,339.44381 L3.02366838,339.44381 L3.02366838,340.351092 L7.19398395,340.351092 L7.19398395,339.44381 Z M3.00775115,342.054237 L7.19398395,342.054237 L7.19398395,341.131037 L3.02366838,341.131037 L3.02366838,341.146954 C3.02366838,341.433464 3.02366838,341.735892 3.00775115,342.054237 Z M7.44865971,344.839753 L3.78769566,344.839753 L3.78769566,346.717986 L7.44865971,346.717986 L7.44865971,344.839753 Z M8.2604387,342.945602 L2.92816497,342.945602 C2.8963305,343.263946 2.8485788,343.598208 2.78490986,343.93247 L8.49919722,343.93247 L8.49919722,348.166455 L7.44865971,348.166455 L7.44865971,347.625269 L3.78769566,347.625269 L3.78769566,348.277875 L2.75307539,348.277875 L2.75307539,344.139394 C2.48248239,345.492359 1.98904811,346.861241 1.09768295,347.959531 C0.95442783,347.736689 0.524662485,347.354676 0.301821195,347.227338 C1.79804129,345.412773 1.97313087,342.945602 1.97313087,341.131037 L1.97313087,338.552445 L8.2604387,338.552445 L8.2604387,342.945602 Z M4.47213677,333.936447 L5.55450875,333.936447 C6.73238414,334.827812 8.24452146,336.101191 9.04038321,336.928887 L8.2604387,337.820252 C7.57599759,337.056225 6.28670156,335.81468 5.18841234,334.95515 C4.74272976,335.52817 4.20154377,336.180777 3.54893714,336.817466 L7.22581842,336.817466 L7.22581842,337.676997 L3.35793032,337.676997 L3.35793032,337.008473 C2.70532368,337.629245 1.92537917,338.250017 1.04993124,338.807121 C0.906676125,338.568362 0.54057972,338.170431 0.301821195,338.011259 C2.27555834,336.833383 3.69219225,335.225743 4.47213677,333.936447 Z M10.6798584,335.687343 L10.6798584,344.441822 L9.56565197,344.441822 L9.56565197,335.687343 L10.6798584,335.687343 Z M13.1151954,334.095619 L14.2612363,334.095619 L14.2612363,346.749821 C14.2612363,347.545683 14.0543122,347.895862 13.560878,348.102786 C13.0674437,348.293793 12.2238302,348.325627 10.8071963,348.30971 C10.7594446,348.007282 10.5684378,347.466096 10.3933482,347.131834 C11.4757202,347.179586 12.414837,347.163669 12.7172645,347.147752 C12.9878575,347.147752 13.1151954,347.052248 13.1151954,346.765738 L13.1151954,334.095619 Z M2.32331004,378.517189 C2.78490986,378.437603 3.31017861,378.294347 3.78769566,378.135175 C4.91781935,377.784996 7.49641142,376.845879 9.35872791,376.845879 C11.5871408,376.845879 13.2106988,378.182927 13.2106988,380.331754 C13.2106988,383.371945 10.2819275,384.931834 6.0320258,385.18651 L5.52267428,383.960883 C8.92896257,383.849462 11.9214027,382.894428 11.9214027,380.315836 C11.9214027,378.978789 10.8708652,378.007837 9.2632245,378.007837 C7.3054046,378.007837 3.86728184,379.440388 2.8485788,379.838319 L2.32331004,378.517189 Z M1.12951742,412.130956 C1.73437235,412.115039 2.22780663,412.083204 2.5302341,412.05137 C3.56485437,411.955866 6.54137732,411.653439 9.43831409,411.41468 C11.1573755,411.271425 12.6376783,411.191839 13.6882158,411.144087 L13.6882158,412.417466 C12.7968507,412.417466 11.4120512,412.433383 10.6002722,412.672142 C8.35594211,413.388418 7.00297713,415.776003 7.00297713,417.638319 C7.00297713,420.726263 9.86807943,421.697214 12.4307543,421.792718 L11.9691545,423.113848 C9.05630045,423.002427 5.72959833,421.442538 5.72959833,417.924829 C5.72959833,415.457658 7.20990119,413.468004 8.65836957,412.608473 C7.27357013,412.767645 2.97591668,413.181493 1.27277253,413.531673 L1.12951742,412.130956 Z M3.31017861,449.421604 C3.24650967,449.803618 3.19875797,450.535811 3.18284073,450.949659 C3.1669235,451.936528 3.18284073,453.384996 3.29426138,454.674292 C3.54893714,457.316553 4.31296442,459.051532 5.42717087,459.051532 C6.23894985,459.051532 6.97114266,457.427974 7.38499077,455.83625 L8.38777658,456.982291 C7.44865971,459.656387 6.47770838,460.563669 5.3953364,460.563669 C3.91503354,460.563669 2.48248239,459.083366 2.05271705,454.992637 C1.8935447,453.623754 1.87762746,451.713686 1.87762746,450.790487 C1.87762746,450.42439 1.86171023,449.771784 1.78212405,449.38977 L3.31017861,449.421604 Z M11.5234719,449.85137 C12.9401058,451.681852 14.0702295,454.913051 14.2930708,457.571229 L13.0037747,458.08058 C12.7331817,455.247312 11.7781476,452.127534 10.2819275,450.281135 L11.5234719,449.85137 Z M7.65558377,497.774731 C8.10126635,497.774731 8.53103169,497.742897 8.91304533,497.679228 C8.76979022,496.437684 8.02168017,495.578153 6.82788755,495.578153 C6.11161197,495.578153 5.57042598,496.007918 5.57042598,496.549104 C5.57042598,497.329049 6.47770838,497.774731 7.65558377,497.774731 Z M10.9026997,486.330239 L11.6348925,487.253439 C11.3483823,487.444446 10.9982031,487.683204 10.7594446,487.858294 C9.97950008,488.447232 7.86250782,490.309548 6.65279796,491.328251 C7.36907354,491.089493 8.08534911,490.993989 8.78570745,490.993989 C11.4120512,490.993989 13.3062022,492.585713 13.3062022,494.718622 C13.3062022,497.26538 11.1892099,498.920772 7.86250782,498.920772 C5.7136811,498.920772 4.39255059,497.965738 4.39255059,496.660525 C4.39255059,495.578153 5.36350193,494.591284 6.82788755,494.591284 C8.80162469,494.591284 9.86807943,495.912415 10.0750035,497.3768 C11.3165478,496.899283 12.0328234,495.992001 12.0328234,494.702705 C12.0328234,493.158733 10.4729344,492.028609 8.48327999,492.028609 C5.88877068,492.028609 4.45621953,493.126899 2.45064792,495.164305 L1.52744829,494.225188 C2.83266156,493.142816 4.85415041,491.455589 5.77735004,490.691562 C6.65279796,489.959369 8.61061787,488.303976 9.39056238,487.603618 C8.56286616,487.635453 5.45900534,487.778708 4.64722635,487.826459 C4.28112995,487.842377 3.91503354,487.858294 3.58077161,487.921963 L3.54893714,486.600832 C3.89911631,486.648584 4.34479889,486.648584 4.66314359,486.648584 C5.47492257,486.648584 9.2154728,486.537163 10.043169,486.457577 C10.5047688,486.409825 10.7276101,486.377991 10.9026997,486.330239 Z" id="デザインが人生を創っている"></path>
                        <path d="M28.0284807,53.7054873 C22.0507473,53.7054873 17.2253481,48.8800881 17.2253481,42.9023547 C17.2253481,36.9246213 22.0507473,32.099222 28.0284807,32.099222 C34.0062141,32.099222 38.8316134,36.9246213 38.8316134,42.9023547 C38.8316134,48.8800881 34.0062141,53.7054873 28.0284807,53.7054873 Z M18.0895987,42.9023547 C18.0895987,48.3999488 22.5308866,52.8412367 28.0284807,52.8412367 C33.5260749,52.8412367 37.9673628,48.3999488 37.9673628,42.9023547 C37.9673628,37.4047605 33.5260749,32.9634726 28.0284807,32.9634726 C22.5308866,32.9634726 18.0895987,37.4047605 18.0895987,42.9023547 Z M57.3889946,32.1952499 L68.6722664,51.7369165 L46.1057227,51.7369165 L57.3889946,32.1952499 Z M57.3889946,34.3078625 L47.9302518,50.6806102 L66.8477374,50.6806102 L57.3889946,34.3078625 Z M77.1467238,33.2995701 L96.352293,33.2995701 L96.352293,52.5051392 L77.1467238,52.5051392 L77.1467238,33.2995701 Z M78.0109744,34.1638207 L78.0109744,51.6408886 L95.4880424,51.6408886 L95.4880424,34.1638207 L78.0109744,34.1638207 Z" id="○△□" transform="translate(56.788821, 42.902355) rotate(-270.000000) translate(-56.788821, -42.902355) "></path>
                    </g>
                    <g id="maintext" transform="translate(44.000000, 215.000000)">
                        <path d="M60.2622504,41.0634384 C60.2622504,52.9955775 56.8661039,62.1345995 50.073709,68.4807787 C43.281314,74.826958 33.4729784,78 20.6484079,78 L0.122587031,78 L0.122587031,5.51509652 L22.8794753,5.51509652 C34.7124554,5.51509652 43.9010562,8.63855976 50.4455535,14.8855799 C56.9900509,21.1326001 60.2622504,29.8584657 60.2622504,41.0634384 Z M44.2977231,41.4600726 C44.2977231,25.8921017 37.4227988,18.108233 23.6727438,18.108233 L15.492163,18.108233 L15.492163,65.307705 L22.0862069,65.307705 C36.8939584,65.307705 44.2977231,57.3585737 44.2977231,41.4600726 Z M97.0500742,32.2879063 C93.8439316,32.2879063 91.33194,33.3042713 89.5140241,35.3370318 C87.6961082,37.3697924 86.6549537,40.2536248 86.3905296,43.9886157 L107.61046,43.9886157 C107.544354,40.2536248 106.569305,37.3697924 104.685283,35.3370318 C102.801261,33.3042713 100.256217,32.2879063 97.0500742,32.2879063 Z M99.1819832,78.9915855 C90.2576686,78.9915855 83.2835867,76.5291727 78.2595281,71.6042732 C73.2354696,66.6793737 70.723478,59.7052918 70.723478,50.6818182 C70.723478,41.3939205 73.0454176,34.2132603 77.6893664,29.1396222 C82.3333153,24.0659841 88.7537675,21.5292031 96.9509157,21.5292031 C104.784481,21.5292031 110.882671,23.7602483 115.245669,28.2224055 C119.608667,32.6845628 121.790134,38.848858 121.790134,46.715476 L121.790134,54.053209 L86.0434747,54.053209 C86.2087398,58.3501012 87.4812618,61.7049321 89.861079,64.1178023 C92.2408962,66.5306726 95.5792009,67.7370896 99.876093,67.7370896 C103.214448,67.7370896 106.370964,67.3900381 109.345735,66.6959248 C112.320507,66.0018114 115.427444,64.894552 118.666639,63.3741132 L118.666639,75.0748226 C116.022398,76.3969433 113.196407,77.3802558 110.188583,78.0247896 C107.180758,78.6693235 103.511928,78.9915855 99.1819832,78.9915855 Z M172.757631,61.5396799 C172.757631,67.2247988 170.782743,71.5546791 166.832907,74.5294506 C162.883072,77.5042221 156.974933,78.9915855 149.108315,78.9915855 C145.075847,78.9915855 141.638385,78.7189022 138.795826,78.1735275 C135.953266,77.6281527 133.292538,76.8266291 130.813562,75.7689325 L130.813562,63.2749546 C133.623069,64.5970753 136.787847,65.7043348 140.307994,66.5967662 C143.82814,67.4891977 146.926814,67.9354067 149.604108,67.9354067 C155.090909,67.9354067 157.834268,66.3488857 157.834268,63.1757961 C157.834268,61.9858875 157.470691,61.0191012 156.743524,60.2754083 C156.016358,59.5317155 154.760362,58.6888762 152.975499,57.7468652 C151.190636,56.8048542 148.810855,55.7058579 145.836083,54.4498433 C141.572244,52.6649804 138.440518,51.0123543 136.44081,49.4919155 C134.441103,47.9714768 132.986792,46.2279563 132.077834,44.2613018 C131.168876,42.2946473 130.714404,39.8735501 130.714404,36.9979376 C130.714404,32.0730381 132.623187,28.2637351 136.44081,25.5699142 C140.258434,22.8760933 145.670784,21.5292031 152.678023,21.5292031 C159.354733,21.5292031 165.849553,22.983514 172.162679,25.8921795 L167.601386,36.7996205 C164.824932,35.6097119 162.23031,34.6346626 159.817439,33.8744432 C157.404569,33.1142238 154.942156,32.7341198 152.430127,32.7341198 C147.96797,32.7341198 145.736925,33.9405368 145.736925,36.353407 C145.736925,37.7085807 146.455817,38.8819452 147.893623,39.8735357 C149.331429,40.8651262 152.479682,42.3359634 157.338475,44.2860914 C161.668421,46.0379013 164.841463,47.6740011 166.857697,49.1944399 C168.873931,50.7148786 170.361294,52.4666623 171.319832,54.4498433 C172.278369,56.4330243 172.757631,58.7962795 172.757631,61.5396799 Z M183.912968,8.24195678 C183.912968,3.31705727 186.656327,0.854644453 192.143128,0.854644453 C197.629929,0.854644453 200.373288,3.31705727 200.373288,8.24195678 C200.373288,10.588721 199.687448,12.4148728 198.315748,13.7204669 C196.944048,15.0260611 194.886529,15.6788484 192.143128,15.6788484 C186.656327,15.6788484 183.912968,13.1999093 183.912968,8.24195678 Z M199.679178,78 L184.557499,78 L184.557499,22.5703679 L199.679178,22.5703679 L199.679178,78 Z M263.785184,22.5703679 L263.785184,30.2551559 L255.10881,32.4862234 C256.695355,34.9651997 257.488616,37.7416114 257.488616,40.815542 C257.488616,46.765085 255.41457,51.4007011 251.266416,54.7225293 C247.118263,58.0443575 241.358861,59.7052467 233.988038,59.7052467 L231.261178,59.5565088 L229.030111,59.3086124 C227.476619,60.498521 226.699884,61.8206219 226.699884,63.2749546 C226.699884,65.4564537 229.476296,66.5471869 235.029203,66.5471869 L244.449266,66.5471869 C250.531021,66.5471869 255.166637,67.8527615 258.356253,70.4639498 C261.545869,73.0751382 263.140653,76.9092306 263.140653,81.9663422 C263.140653,88.4447335 260.43861,93.4687167 255.034441,97.0384425 C249.630273,100.608168 241.871194,102.393004 231.756971,102.393004 C224.022565,102.393004 218.114427,101.046114 214.032379,98.3522933 C209.950332,95.6584725 207.909338,91.882222 207.909338,87.0234285 C207.909338,83.6850738 208.950493,80.8921357 211.032833,78.6445306 C213.115173,76.3969255 216.172531,74.7938782 220.204999,73.8353407 C218.651507,73.1742804 217.296354,72.0918103 216.139498,70.587898 C214.982643,69.0839858 214.404224,67.4892016 214.404224,65.8034978 C214.404224,63.6881047 215.015695,61.928058 216.238657,60.5233047 C217.461619,59.1185515 219.229928,57.7386088 221.54364,56.3834351 C218.634974,55.1274204 216.329561,53.1112167 214.62733,50.3347632 C212.9251,47.5583098 212.073998,44.2861102 212.073998,40.5180663 C212.073998,34.4693642 214.040623,29.7924325 217.973932,26.4871308 C221.907241,23.1818292 227.526169,21.5292031 234.830886,21.5292031 C236.384378,21.5292031 238.227056,21.6696763 240.358975,21.950627 C242.490895,22.2315776 243.854311,22.4381559 244.449266,22.5703679 L263.785184,22.5703679 Z M220.998268,85.8335258 C220.998268,87.9158659 221.998106,89.5519657 223.997814,90.7418743 C225.997521,91.9317829 228.798723,92.5267283 232.401501,92.5267283 C237.822196,92.5267283 242.069445,91.7830465 245.143376,90.2956608 C248.217306,88.808275 249.754248,86.775545 249.754248,84.1974097 C249.754248,82.1150696 248.845304,80.6772849 247.027388,79.8840125 C245.209472,79.0907401 242.400008,78.6941099 238.598911,78.6941099 L230.765385,78.6941099 C227.988932,78.6941099 225.666992,79.3468972 223.799497,80.6524913 C221.932001,81.9580855 220.998268,83.6850797 220.998268,85.8335258 Z M226.501567,40.7163834 C226.501567,43.724208 227.187407,46.1039895 228.559107,47.8557994 C229.930808,49.6076093 232.02138,50.4835011 234.830886,50.4835011 C237.673445,50.4835011 239.755754,49.6076093 241.077875,47.8557994 C242.399996,46.1039895 243.061046,43.724208 243.061046,40.7163834 C243.061046,34.039674 240.317687,30.7013694 234.830886,30.7013694 C229.277979,30.7013694 226.501567,34.039674 226.501567,40.7163834 Z M324.073585,78 L308.951906,78 L308.951906,45.6247319 C308.951906,41.6253169 308.241276,38.6258006 306.819997,36.6260931 C305.398717,34.6263855 303.134619,33.6265468 300.027636,33.6265468 C295.79685,33.6265468 292.739491,35.0395421 290.855469,37.865575 C288.971447,40.6916079 288.029451,45.3768028 288.029451,51.9213001 L288.029451,78 L272.907771,78 L272.907771,22.5703679 L284.459743,22.5703679 L286.492493,29.6602046 L287.335341,29.6602046 C289.021045,26.9829102 291.342984,24.9584433 294.301229,23.5867431 C297.259474,22.2150429 300.622568,21.5292031 304.390612,21.5292031 C310.83595,21.5292031 315.727723,23.2727236 319.066078,26.7598169 C322.404433,30.2469101 324.073585,35.2791565 324.073585,41.8567068 L324.073585,78 Z M388.526646,78.9915855 C371.272971,78.9915855 362.646263,69.5220383 362.646263,50.5826596 C362.646263,41.1625498 364.992992,33.9653634 369.68652,28.9908843 C374.380049,24.0164053 381.106237,21.5292031 389.865286,21.5292031 C396.277571,21.5292031 402.02871,22.7851989 407.118875,25.2972282 L402.65674,36.9979376 C400.276923,36.0394001 398.062404,35.2544028 396.013117,34.642922 C393.96383,34.0314412 391.914573,33.7257053 389.865286,33.7257053 C381.998668,33.7257053 378.065418,39.3115814 378.065418,50.4835011 C378.065418,61.3248906 381.998668,66.745504 389.865286,66.745504 C392.773952,66.745504 395.467732,66.3571369 397.946708,65.580391 C400.425685,64.8036451 402.904624,63.588965 405.3836,61.9363141 L405.3836,74.8765055 C402.937677,76.4299973 400.467001,77.5042043 397.971498,78.0991586 C395.475995,78.6941129 392.327743,78.9915855 388.526646,78.9915855 Z M449.162102,21.5292031 C451.211389,21.5292031 452.913594,21.6779395 454.268768,21.9754166 L453.128444,36.1550899 C451.905482,35.8245598 450.418119,35.6592971 448.666309,35.6592971 C443.840569,35.6592971 440.080844,36.8987667 437.387024,39.3777429 C434.693203,41.8567192 433.346312,45.3272339 433.346312,49.7893912 L433.346312,78 L418.224633,78 L418.224633,22.5703679 L429.677446,22.5703679 L431.908513,31.8912721 L432.652203,31.8912721 C434.370959,28.7842885 436.692899,26.28056 439.618091,24.3800116 C442.543283,22.4794631 445.724588,21.5292031 449.162102,21.5292031 Z M487.288566,32.2879063 C484.082424,32.2879063 481.570432,33.3042713 479.752516,35.3370318 C477.9346,37.3697924 476.893446,40.2536248 476.629022,43.9886157 L497.848952,43.9886157 C497.782846,40.2536248 496.807797,37.3697924 494.923775,35.3370318 C493.039753,33.3042713 490.494709,32.2879063 487.288566,32.2879063 Z M489.420475,78.9915855 C480.496161,78.9915855 473.522079,76.5291727 468.49802,71.6042732 C463.473962,66.6793737 460.96197,59.7052918 460.96197,50.6818182 C460.96197,41.3939205 463.28391,34.2132603 467.927858,29.1396222 C472.571807,24.0659841 478.992259,21.5292031 487.189408,21.5292031 C495.022973,21.5292031 501.121163,23.7602483 505.484161,28.2224055 C509.847159,32.6845628 512.028626,38.848858 512.028626,46.715476 L512.028626,54.053209 L476.281967,54.053209 C476.447232,58.3501012 477.719754,61.7049321 480.099571,64.1178023 C482.479388,66.5306726 485.817693,67.7370896 490.114585,67.7370896 C493.45294,67.7370896 496.609455,67.3900381 499.584227,66.6959248 C502.558999,66.0018114 505.665935,64.894552 508.905131,63.3741132 L508.905131,75.0748226 C506.26089,76.3969433 503.434899,77.3802558 500.427075,78.0247896 C497.41925,78.6693235 493.75042,78.9915855 489.420475,78.9915855 Z M559.525573,78 L556.600396,70.4639498 L556.203762,70.4639498 C553.658679,73.6700925 551.039267,75.8928745 548.345446,77.1323626 C545.651625,78.3718508 542.139795,78.9915855 537.80985,78.9915855 C532.488314,78.9915855 528.298907,77.4711696 525.241503,74.430292 C522.184099,71.3894145 520.65542,67.0595342 520.65542,61.4405214 C520.65542,55.5570844 522.712939,51.218941 526.82804,48.4259611 C530.94314,45.6329811 537.148751,44.0877758 545.445059,43.7902986 L555.063438,43.492823 L555.063438,41.0634384 C555.063438,35.4444255 552.187869,32.6349612 546.436644,32.6349612 C542.00754,32.6349612 536.801768,33.9735883 530.819172,36.6508827 L525.811665,26.4375516 C532.190897,23.0991969 539.264136,21.4300446 547.031595,21.4300446 C554.468524,21.4300446 560.170084,23.0496181 564.136446,26.2888137 C568.102808,29.5280094 570.085959,34.452835 570.085959,41.0634384 L570.085959,78 L559.525573,78 Z M555.063438,52.3179343 L549.213084,52.5162514 C544.817032,52.6484635 541.544833,53.441724 539.396387,54.8960568 C537.247941,56.3503895 536.173734,58.5649084 536.173734,61.5396799 C536.173734,65.8035191 538.61962,67.9354067 543.511467,67.9354067 C547.015087,67.9354067 549.816288,66.9273048 551.915154,64.9110708 C554.014021,62.8948368 555.063438,60.2175826 555.063438,56.8792279 L555.063438,52.3179343 Z M609.005692,66.9438212 C611.649933,66.9438212 614.822975,66.365402 618.524913,65.2085464 L618.524913,76.4630424 C614.756869,78.1487463 610.129516,78.9915855 604.642716,78.9915855 C598.594014,78.9915855 594.189765,77.4629064 591.429838,74.4055024 C588.669911,71.3480983 587.289969,66.762061 587.289969,60.6472529 L587.289969,33.9240224 L580.051394,33.9240224 L580.051394,27.5282957 L588.380713,22.4712094 L592.743689,10.7704999 L602.411648,10.7704999 L602.411648,22.5703679 L617.929962,22.5703679 L617.929962,33.9240224 L602.411648,33.9240224 L602.411648,60.6472529 C602.411648,62.795699 603.014857,64.38222 604.221292,65.4068636 C605.427727,66.4315071 607.022511,66.9438212 609.005692,66.9438212 Z M652.685035,32.2879063 C649.478893,32.2879063 646.966901,33.3042713 645.148985,35.3370318 C643.331069,37.3697924 642.289915,40.2536248 642.025491,43.9886157 L663.245422,43.9886157 C663.179315,40.2536248 662.204266,37.3697924 660.320244,35.3370318 C658.436222,33.3042713 655.891178,32.2879063 652.685035,32.2879063 Z M654.816944,78.9915855 C645.89263,78.9915855 638.918548,76.5291727 633.894489,71.6042732 C628.870431,66.6793737 626.358439,59.7052918 626.358439,50.6818182 C626.358439,41.3939205 628.680379,34.2132603 633.324328,29.1396222 C637.968276,24.0659841 644.388729,21.5292031 652.585877,21.5292031 C660.419442,21.5292031 666.517632,23.7602483 670.88063,28.2224055 C675.243628,32.6845628 677.425095,38.848858 677.425095,46.715476 L677.425095,54.053209 L641.678436,54.053209 C641.843701,58.3501012 643.116223,61.7049321 645.49604,64.1178023 C647.875857,66.5306726 651.214162,67.7370896 655.511054,67.7370896 C658.849409,67.7370896 662.005925,67.3900381 664.980696,66.6959248 C667.955468,66.0018114 671.062405,64.894552 674.3016,63.3741132 L674.3016,75.0748226 C671.657359,76.3969433 668.831368,77.3802558 665.823544,78.0247896 C662.815719,78.6693235 659.14689,78.9915855 654.816944,78.9915855 Z M765.725788,78 L750.604108,78 L750.604108,45.6247319 C750.604108,41.6253169 749.934795,38.6258006 748.596147,36.6260931 C747.2575,34.6263855 745.150402,33.6265468 742.27479,33.6265468 C738.407587,33.6265468 735.598122,35.0478052 733.846312,37.8903646 C732.094503,40.7329241 731.218611,45.4098558 731.218611,51.9213001 L731.218611,78 L716.096931,78 L716.096931,22.5703679 L727.648903,22.5703679 L729.681653,29.6602046 L730.524501,29.6602046 C732.011887,27.1151223 734.1603,25.1237079 736.969807,23.6859017 C739.779313,22.2480954 743.001934,21.5292031 746.637766,21.5292031 C754.934073,21.5292031 760.553002,24.2395098 763.49472,29.6602046 L764.833361,29.6602046 C766.320747,27.0820693 768.510476,25.0823918 771.402615,23.661112 C774.294754,22.2398323 777.55869,21.5292031 781.194522,21.5292031 C787.474596,21.5292031 792.225895,23.1405135 795.448565,26.3631826 C798.671234,29.5858518 800.282544,34.7503082 800.282544,41.8567068 L800.282544,78 L785.111285,78 L785.111285,45.6247319 C785.111285,41.6253169 784.441972,38.6258006 783.103324,36.6260931 C781.764677,34.6263855 779.657579,33.6265468 776.781967,33.6265468 C773.080029,33.6265468 770.31188,34.9486476 768.477438,37.592889 C766.642995,40.2371303 765.725788,44.4348005 765.725788,50.1860254 L765.725788,78 Z M807.868174,22.5703679 L824.427652,22.5703679 L834.88888,53.7557334 C835.781311,56.4660808 836.392783,59.6721753 836.723313,63.3741132 L837.020789,63.3741132 C837.384372,59.9696525 838.095001,56.7635579 839.152698,53.7557334 L849.415608,22.5703679 L865.628032,22.5703679 L842.177033,85.0898367 C840.028587,90.8741146 836.962966,95.2039949 832.980077,98.0796073 C828.997189,100.95522 824.345047,102.393004 819.023511,102.393004 C816.412323,102.393004 813.850752,102.112058 811.338723,101.550157 L811.338723,89.5519716 C813.156639,89.9816608 815.13979,90.1965022 817.288236,90.1965022 C819.965531,90.1965022 822.303996,89.3784523 824.303704,87.742328 C826.303411,86.1062037 827.865143,83.6355277 828.988946,80.330226 L829.881373,77.6033658 L807.868174,22.5703679 Z M967.810922,78 L952.689243,78 L952.689243,0.854644453 L967.810922,0.854644453 L967.810922,78 Z M983.03176,8.24195678 C983.03176,3.31705727 985.77512,0.854644453 991.26192,0.854644453 C996.748721,0.854644453 999.49208,3.31705727 999.49208,8.24195678 C999.49208,10.588721 998.806241,12.4148728 997.43454,13.7204669 C996.06284,15.0260611 994.005321,15.6788484 991.26192,15.6788484 C985.77512,15.6788484 983.03176,13.1999093 983.03176,8.24195678 Z M998.797971,78 L983.676291,78 L983.676291,22.5703679 L998.797971,22.5703679 L998.797971,78 Z M1045.30333,33.9240224 L1032.2144,33.9240224 L1032.2144,78 L1017.09272,78 L1017.09272,33.9240224 L1008.76341,33.9240224 L1008.76341,26.6358687 L1017.09272,22.5703679 L1017.09272,18.5048672 C1017.09272,12.191741 1018.64619,7.58091429 1021.75318,4.67224881 C1024.86016,1.76358333 1029.83456,0.309272402 1036.67654,0.309272402 C1041.89892,0.309272402 1046.54279,1.08600665 1050.60832,2.63949844 L1046.74113,13.7452566 C1043.70025,12.7867191 1040.89079,12.3074575 1038.31265,12.3074575 C1036.16421,12.3074575 1034.61074,12.9437185 1033.6522,14.2162597 C1032.69367,15.4888008 1032.2144,17.1166375 1032.2144,19.0998185 L1032.2144,22.5703679 L1045.30333,22.5703679 L1045.30333,33.9240224 Z M1076.93491,32.2879063 C1073.72877,32.2879063 1071.21678,33.3042713 1069.39886,35.3370318 C1067.58095,37.3697924 1066.53979,40.2536248 1066.27537,43.9886157 L1087.4953,43.9886157 C1087.42919,40.2536248 1086.45414,37.3697924 1084.57012,35.3370318 C1082.6861,33.3042713 1080.14105,32.2879063 1076.93491,32.2879063 Z M1079.06682,78.9915855 C1070.14251,78.9915855 1063.16842,76.5291727 1058.14437,71.6042732 C1053.12031,66.6793737 1050.60832,59.7052918 1050.60832,50.6818182 C1050.60832,41.3939205 1052.93025,34.2132603 1057.5742,29.1396222 C1062.21815,24.0659841 1068.6386,21.5292031 1076.83575,21.5292031 C1084.66932,21.5292031 1090.76751,23.7602483 1095.13051,28.2224055 C1099.4935,32.6845628 1101.67497,38.848858 1101.67497,46.715476 L1101.67497,54.053209 L1065.92831,54.053209 C1066.09358,58.3501012 1067.3661,61.7049321 1069.74592,64.1178023 C1072.12573,66.5306726 1075.46404,67.7370896 1079.76093,67.7370896 C1083.09929,67.7370896 1086.2558,67.3900381 1089.23057,66.6959248 C1092.20534,66.0018114 1095.31228,64.894552 1098.55148,63.3741132 L1098.55148,75.0748226 C1095.90724,76.3969433 1093.08124,77.3802558 1090.07342,78.0247896 C1087.0656,78.6693235 1083.39677,78.9915855 1079.06682,78.9915855 Z" id="Designcreatemylife" transform="translate(550.898779, 51.351138) rotate(-360.000000) translate(-550.898779, -51.351138) "></path>
                    </g>
                    <path d="M-61.703628,298 L-61.703628,297.281359 L-59.378613,297.281359 L-59.378613,288.925396 L-61.16817,288.925396 L-61.16817,288.375847 C-60.336801,288.234937 -59.702706,288.009481 -59.209521,287.727661 L-58.547244,287.727661 L-58.547244,297.281359 L-56.405412,297.281359 L-56.405412,298 L-61.703628,298 Z M-41.659065,293.392243 C-40.898151,293.392243 -40.0386,292.955422 -39.263595,291.884506 C-39.348141,289.644037 -40.165419,288.220846 -41.771793,288.220846 C-42.884982,288.220846 -43.716351,289.334035 -43.716351,290.827681 C-43.716351,292.307236 -43.082256,293.392243 -41.659065,293.392243 Z M-44.322264,297.196813 L-43.829079,296.661355 C-43.364076,297.196813 -42.744072,297.478633 -42.039522,297.478633 C-40.616331,297.478633 -39.33405,296.238625 -39.249504,292.687693 C-39.925872,293.504971 -40.799514,294.05452 -41.757702,294.05452 C-43.476804,294.05452 -44.533629,292.913149 -44.533629,290.827681 C-44.533629,288.897214 -43.251348,287.544478 -41.757702,287.544478 C-39.770871,287.544478 -38.446317,289.207216 -38.446317,292.307236 C-38.446317,296.633173 -40.17951,298.183183 -42.053613,298.183183 C-43.054074,298.183183 -43.772715,297.774544 -44.322264,297.196813 Z M-23.5449691,298.183183 C-25.3908901,298.183183 -26.7295351,297.01363 -26.7295351,295.449529 C-26.7295351,294.040429 -25.7149831,293.039968 -24.7708861,292.518601 L-24.7708861,292.462237 C-25.5036181,291.969052 -26.1799861,291.208138 -26.1799861,290.123131 C-26.1799861,288.629485 -25.0245241,287.586751 -23.5308781,287.586751 C-21.8258671,287.586751 -20.8113151,288.728122 -20.8113151,290.278132 C-20.8113151,291.391321 -21.6426841,292.3636 -22.2204151,292.828603 L-22.2204151,292.899058 C-21.3467731,293.420425 -20.4731311,294.167248 -20.4731311,295.576348 C-20.4731311,297.027721 -21.7131391,298.183183 -23.5449691,298.183183 Z M-22.8263281,292.603147 C-22.0090501,291.926779 -21.5722291,291.151774 -21.5722291,290.306314 C-21.5722291,289.193125 -22.2908701,288.249028 -23.5449691,288.249028 C-24.6158851,288.249028 -25.3908901,289.038124 -25.3908901,290.123131 C-25.3908901,291.51814 -24.1086091,292.095871 -22.8263281,292.603147 Z M-23.5449691,297.520906 C-22.1781421,297.520906 -21.2904091,296.661355 -21.2904091,295.562257 C-21.2904091,293.998156 -22.7276911,293.434516 -24.2777011,292.828603 C-25.2499801,293.406334 -25.9545301,294.294067 -25.9545301,295.407256 C-25.9545301,296.604991 -24.9399781,297.520906 -23.5449691,297.520906 Z M-5.72678412,298.183183 C-7.57270512,298.183183 -8.91135012,297.01363 -8.91135012,295.449529 C-8.91135012,294.040429 -7.89679812,293.039968 -6.95270112,292.518601 L-6.95270112,292.462237 C-7.68543312,291.969052 -8.36180112,291.208138 -8.36180112,290.123131 C-8.36180112,288.629485 -7.20633912,287.586751 -5.71269312,287.586751 C-4.00768212,287.586751 -2.99313012,288.728122 -2.99313012,290.278132 C-2.99313012,291.391321 -3.82449912,292.3636 -4.40223012,292.828603 L-4.40223012,292.899058 C-3.52858812,293.420425 -2.65494612,294.167248 -2.65494612,295.576348 C-2.65494612,297.027721 -3.89495412,298.183183 -5.72678412,298.183183 Z M-5.00814312,292.603147 C-4.19086512,291.926779 -3.75404412,291.151774 -3.75404412,290.306314 C-3.75404412,289.193125 -4.47268512,288.249028 -5.72678412,288.249028 C-6.79770012,288.249028 -7.57270512,289.038124 -7.57270512,290.123131 C-7.57270512,291.51814 -6.29042412,292.095871 -5.00814312,292.603147 Z M-5.72678412,297.520906 C-4.35995712,297.520906 -3.47222412,296.661355 -3.47222412,295.562257 C-3.47222412,293.998156 -4.90950612,293.434516 -6.45951612,292.828603 C-7.43179512,293.406334 -8.13634512,294.294067 -8.13634512,295.407256 C-8.13634512,296.604991 -7.12179312,297.520906 -5.72678412,297.520906 Z M8.90683484,294.449068 L8.90683484,293.758609 L12.3732208,293.758609 L12.3732208,294.449068 L8.90683484,294.449068 Z M23.8786378,298 L23.8786378,297.492724 C27.3591148,294.491341 28.7400328,292.377691 28.7400328,290.517679 C28.7400328,289.235398 28.0918468,288.234937 26.6404738,288.234937 C25.7527408,288.234937 24.9495538,288.784486 24.3577318,289.517218 L23.8363648,289.024033 C24.6113698,288.164482 25.4850118,287.544478 26.7250198,287.544478 C28.5145768,287.544478 29.5714018,288.714031 29.5714018,290.489497 C29.5714018,292.64542 27.9086638,294.801343 25.1750098,297.351814 C25.7386498,297.309541 26.3304718,297.267268 26.8659298,297.267268 L30.0645868,297.267268 L30.0645868,298 L23.8786378,298 Z M44.8391158,298.183183 C42.9650128,298.183183 41.8095508,296.435899 41.8095508,292.828603 C41.8095508,289.26358 42.9650128,287.544478 44.8391158,287.544478 C46.6991278,287.544478 47.8545898,289.26358 47.8545898,292.828603 C47.8545898,296.435899 46.6991278,298.183183 44.8391158,298.183183 Z M44.8391158,297.492724 C46.1636698,297.492724 47.0373118,295.942714 47.0373118,292.828603 C47.0373118,289.770856 46.1636698,288.234937 44.8391158,288.234937 C43.5004708,288.234937 42.6268288,289.770856 42.6268288,292.828603 C42.6268288,295.942714 43.5004708,297.492724 44.8391158,297.492724 Z M60.1772847,298 L60.1772847,297.281359 L62.5022997,297.281359 L62.5022997,288.925396 L60.7127427,288.925396 L60.7127427,288.375847 C61.5441117,288.234937 62.1782067,288.009481 62.6713917,287.727661 L63.3336687,287.727661 L63.3336687,297.281359 L65.4755007,297.281359 L65.4755007,298 L60.1772847,298 Z M80.2218477,293.392243 C80.9827617,293.392243 81.8423127,292.955422 82.6173177,291.884506 C82.5327717,289.644037 81.7154937,288.220846 80.1091197,288.220846 C78.9959307,288.220846 78.1645617,289.334035 78.1645617,290.827681 C78.1645617,292.307236 78.7986567,293.392243 80.2218477,293.392243 Z M77.5586487,297.196813 L78.0518337,296.661355 C78.5168367,297.196813 79.1368407,297.478633 79.8413907,297.478633 C81.2645817,297.478633 82.5468627,296.238625 82.6314087,292.687693 C81.9550407,293.504971 81.0813987,294.05452 80.1232107,294.05452 C78.4041087,294.05452 77.3472837,292.913149 77.3472837,290.827681 C77.3472837,288.897214 78.6295647,287.544478 80.1232107,287.544478 C82.1100417,287.544478 83.4345957,289.207216 83.4345957,292.307236 C83.4345957,296.633173 81.7014027,298.183183 79.8272997,298.183183 C78.8268387,298.183183 78.1081977,297.774544 77.5586487,297.196813 Z" id="1988-2019" transform="translate(10.865484, 292.863830) rotate(-270.000000) translate(-10.865484, -292.863830) "></path>
                    <path d="M44.154768,359 L44.154768,344.180888 L48.240696,344.180888 C51.228912,344.180888 53.1804,345.2786 53.1804,347.778944 C53.1804,349.303544 52.387608,350.56388 50.903664,351.011096 L50.903664,351.112736 C52.814496,351.437984 54.074832,352.637336 54.074832,354.670136 C54.074832,357.536384 51.879408,359 48.545616,359 L44.154768,359 Z M45.374448,350.645192 L47.854464,350.645192 C50.781696,350.645192 51.96072,349.608464 51.96072,347.92124 C51.96072,345.908768 50.598744,345.17696 47.976432,345.17696 L45.374448,345.17696 L45.374448,350.645192 Z M45.374448,357.9836 L48.261024,357.9836 C51.127272,357.9836 52.87548,356.9672 52.87548,354.670136 C52.87548,352.59668 51.208584,351.620936 48.261024,351.620936 L45.374448,351.620936 L45.374448,357.9836 Z M68.410761,359.264264 C66.662553,359.264264 65.259921,358.28852 65.259921,356.276048 C65.259921,353.877344 67.394361,352.738976 72.171441,352.19012 C72.212097,350.584208 71.744553,348.917312 69.691425,348.917312 C68.268465,348.917312 67.028457,349.588136 66.276321,350.15732 L65.747793,349.303544 C66.581241,348.73436 68.085513,347.880584 69.854049,347.880584 C72.435705,347.880584 73.350465,349.730432 73.350465,352.129136 L73.350465,359 L72.354393,359 L72.232425,357.617696 L72.191769,357.617696 C71.094057,358.512128 69.793065,359.264264 68.410761,359.264264 Z M68.654697,358.268192 C69.854049,358.268192 70.890777,357.699008 72.171441,356.580968 L72.171441,353.064224 C67.902561,353.552096 66.438945,354.548168 66.438945,356.215064 C66.438945,357.699008 67.455345,358.268192 68.654697,358.268192 Z M88.723122,359.264264 C87.137538,359.264264 85.714578,358.59344 84.738834,357.78032 L85.369002,356.926544 C86.30409,357.719336 87.300162,358.28852 88.784106,358.28852 C90.430674,358.28852 91.264122,357.353432 91.264122,356.235392 C91.264122,354.954728 89.902146,354.365216 88.64181,353.918 C87.035898,353.348816 85.247034,352.677992 85.247034,350.807816 C85.247034,349.222232 86.527698,347.880584 88.804434,347.880584 C89.983458,347.880584 91.142154,348.388784 91.955274,349.03928 L91.345434,349.8524 C90.613626,349.303544 89.820834,348.876656 88.763778,348.876656 C87.157866,348.876656 86.426058,349.771088 86.426058,350.746832 C86.426058,351.946184 87.686394,352.3934 88.94673,352.860944 C90.613626,353.491112 92.443146,354.080624 92.443146,356.174408 C92.443146,357.841304 91.121826,359.264264 88.723122,359.264264 Z M108.324003,359.264264 C105.539067,359.264264 103.282659,357.150152 103.282659,353.592752 C103.282659,350.076008 105.579723,347.880584 108.039411,347.880584 C110.661723,347.880584 112.226979,349.75076 112.226979,352.921928 C112.226979,353.226848 112.206651,353.51144 112.165995,353.775704 L104.482011,353.775704 C104.542995,356.418344 106.108251,358.268192 108.445971,358.268192 C109.604667,358.268192 110.519427,357.902288 111.332547,357.333104 L111.779763,358.207208 C110.905659,358.756064 109.889259,359.264264 108.324003,359.264264 Z M104.482011,352.840616 L111.149595,352.840616 C111.149595,350.218304 109.950243,348.896984 108.059739,348.896984 C106.291203,348.896984 104.705619,350.3606 104.482011,352.840616 Z M127.640292,359.264264 C124.91634,359.264264 123.147804,357.231464 123.147804,353.592752 C123.147804,350.096336 125.383884,347.880584 127.945212,347.880584 C129.246204,347.880584 130.120308,348.368456 131.177364,349.201904 L131.096052,347.250416 L131.096052,342.83924 L132.275076,342.83924 L132.275076,359 L131.299332,359 L131.157036,357.638024 L131.11638,357.638024 C130.242276,358.512128 129.042924,359.264264 127.640292,359.264264 Z M127.843572,358.227536 C129.002268,358.227536 130.018668,357.638024 131.096052,356.519984 L131.096052,350.25896 C129.99834,349.283216 129.08358,348.917312 128.06718,348.917312 C125.993724,348.917312 124.40814,350.929784 124.40814,353.592752 C124.40814,356.398016 125.648148,358.227536 127.843572,358.227536 Z M162.71547,359.264264 C160.093158,359.264264 157.816422,357.190808 157.816422,353.592752 C157.816422,349.974368 160.093158,347.880584 162.71547,347.880584 C165.337782,347.880584 167.614518,349.974368 167.614518,353.592752 C167.614518,357.190808 165.337782,359.264264 162.71547,359.264264 Z M162.71547,358.247864 C164.829582,358.247864 166.394838,356.35736 166.394838,353.592752 C166.394838,350.828144 164.829582,348.917312 162.71547,348.917312 C160.601358,348.917312 159.05643,350.828144 159.05643,353.592752 C159.05643,356.35736 160.601358,358.247864 162.71547,358.247864 Z M179.714367,359 L179.714367,348.165176 L180.690111,348.165176 L180.832407,349.811744 L180.873063,349.811744 C181.970775,348.73436 183.088815,347.880584 184.572759,347.880584 C186.829167,347.880584 187.865895,349.283216 187.865895,352.068152 L187.865895,359 L186.686871,359 L186.686871,352.230776 C186.686871,349.974368 185.975391,348.93764 184.308495,348.93764 C183.048159,348.93764 182.153727,349.588136 180.893391,350.889128 L180.893391,359 L179.714367,359 Z M217.045953,359 L212.187561,344.180888 L213.488553,344.180888 L216.151521,352.69832 C216.700377,354.487184 217.086609,355.869488 217.676121,357.658352 L217.757433,357.658352 C218.367273,355.869488 218.753505,354.487184 219.322689,352.69832 L221.965329,344.180888 L223.205337,344.180888 L218.387601,359 L217.045953,359 Z M236.28093,359.264264 C234.532722,359.264264 233.13009,358.28852 233.13009,356.276048 C233.13009,353.877344 235.26453,352.738976 240.04161,352.19012 C240.082266,350.584208 239.614722,348.917312 237.561594,348.917312 C236.138634,348.917312 234.898626,349.588136 234.14649,350.15732 L233.617962,349.303544 C234.45141,348.73436 235.955682,347.880584 237.724218,347.880584 C240.305874,347.880584 241.220634,349.730432 241.220634,352.129136 L241.220634,359 L240.224562,359 L240.102594,357.617696 L240.061938,357.617696 C238.964226,358.512128 237.663234,359.264264 236.28093,359.264264 Z M236.524866,358.268192 C237.724218,358.268192 238.760946,357.699008 240.04161,356.580968 L240.04161,353.064224 C235.77273,353.552096 234.309114,354.548168 234.309114,356.215064 C234.309114,357.699008 235.325514,358.268192 236.524866,358.268192 Z M253.930323,359 L253.930323,348.165176 L254.906067,348.165176 L255.048363,349.811744 L255.089019,349.811744 C256.186731,348.73436 257.304771,347.880584 258.788715,347.880584 C261.045123,347.880584 262.081851,349.283216 262.081851,352.068152 L262.081851,359 L260.902827,359 L260.902827,352.230776 C260.902827,349.974368 260.191347,348.93764 258.524451,348.93764 C257.264115,348.93764 256.369683,349.588136 255.109347,350.889128 L255.109347,359 L253.930323,359 Z M278.979108,359.264264 C276.153516,359.264264 274.019076,357.190808 274.019076,353.592752 C274.019076,349.974368 276.356796,347.880584 279.040092,347.880584 C280.48338,347.880584 281.459124,348.53108 282.21126,349.201904 L281.540436,350.015024 C280.869612,349.384856 280.07682,348.917312 279.06042,348.917312 C276.905652,348.917312 275.259084,350.828144 275.259084,353.592752 C275.259084,356.35736 276.763356,358.247864 279.040092,358.247864 C280.158132,358.247864 281.133876,357.699008 281.865684,357.048512 L282.434868,357.861632 C281.49978,358.674752 280.341084,359.264264 278.979108,359.264264 Z M297.563589,359.264264 C294.941277,359.264264 292.664541,357.190808 292.664541,353.592752 C292.664541,349.974368 294.941277,347.880584 297.563589,347.880584 C300.185901,347.880584 302.462637,349.974368 302.462637,353.592752 C302.462637,357.190808 300.185901,359.264264 297.563589,359.264264 Z M297.563589,358.247864 C299.677701,358.247864 301.242957,356.35736 301.242957,353.592752 C301.242957,350.828144 299.677701,348.917312 297.563589,348.917312 C295.449477,348.917312 293.904549,350.828144 293.904549,353.592752 C293.904549,356.35736 295.449477,358.247864 297.563589,358.247864 Z M317.67267,359.264264 C315.416262,359.264264 314.399862,357.88196 314.399862,355.097024 L314.399862,348.165176 L315.578886,348.165176 L315.578886,354.954728 C315.578886,357.17048 316.270038,358.207208 317.936934,358.207208 C319.19727,358.207208 320.091702,357.556712 321.311382,356.093096 L321.311382,348.165176 L322.490406,348.165176 L322.490406,359 L321.494334,359 L321.392694,357.211136 L321.33171,357.211136 C320.274654,358.430816 319.176942,359.264264 317.67267,359.264264 Z M337.741095,359 L333.716151,348.165176 L334.996815,348.165176 L337.334535,354.812432 C337.680111,355.869488 338.046015,356.9672 338.411919,357.942944 L338.493231,357.942944 C338.838807,356.9672 339.225039,355.869488 339.570615,354.812432 L341.928663,348.165176 L343.128015,348.165176 L339.143727,359 L337.741095,359 Z M358.500672,359.264264 C355.715736,359.264264 353.459328,357.150152 353.459328,353.592752 C353.459328,350.076008 355.756392,347.880584 358.21608,347.880584 C360.838392,347.880584 362.403648,349.75076 362.403648,352.921928 C362.403648,353.226848 362.38332,353.51144 362.342664,353.775704 L354.65868,353.775704 C354.719664,356.418344 356.28492,358.268192 358.62264,358.268192 C359.781336,358.268192 360.696096,357.902288 361.509216,357.333104 L361.956432,358.207208 C361.082328,358.756064 360.065928,359.264264 358.500672,359.264264 Z M354.65868,352.840616 L361.326264,352.840616 C361.326264,350.218304 360.126912,348.896984 358.236408,348.896984 C356.467872,348.896984 354.882288,350.3606 354.65868,352.840616 Z M374.218905,359 L374.218905,348.165176 L375.194649,348.165176 L375.336945,350.177648 L375.377601,350.177648 C376.109409,348.815672 377.186793,347.880584 378.447129,347.880584 C378.874017,347.880584 379.199265,347.941568 379.544841,348.12452 L379.300905,349.181576 C378.935001,349.03928 378.731721,348.998624 378.304833,348.998624 C377.349417,348.998624 376.190721,349.710104 375.397929,351.722576 L375.397929,359 L374.218905,359 Z M406.285539,359.264264 C404.537331,359.264264 403.134699,358.28852 403.134699,356.276048 C403.134699,353.877344 405.269139,352.738976 410.046219,352.19012 C410.086875,350.584208 409.619331,348.917312 407.566203,348.917312 C406.143243,348.917312 404.903235,349.588136 404.151099,350.15732 L403.622571,349.303544 C404.456019,348.73436 405.960291,347.880584 407.728827,347.880584 C410.310483,347.880584 411.225243,349.730432 411.225243,352.129136 L411.225243,359 L410.229171,359 L410.107203,357.617696 L410.066547,357.617696 C408.968835,358.512128 407.667843,359.264264 406.285539,359.264264 Z M406.529475,358.268192 C407.728827,358.268192 408.765555,357.699008 410.046219,356.580968 L410.046219,353.064224 C405.777339,353.552096 404.313723,354.548168 404.313723,356.215064 C404.313723,357.699008 405.330123,358.268192 406.529475,358.268192 Z M423.934932,359 L423.934932,348.165176 L424.910676,348.165176 L425.052972,349.811744 L425.093628,349.811744 C426.19134,348.73436 427.30938,347.880584 428.793324,347.880584 C431.049732,347.880584 432.08646,349.283216 432.08646,352.068152 L432.08646,359 L430.907436,359 L430.907436,352.230776 C430.907436,349.974368 430.195956,348.93764 428.52906,348.93764 C427.268724,348.93764 426.374292,349.588136 425.113956,350.889128 L425.113956,359 L423.934932,359 Z M448.516173,359.264264 C445.792221,359.264264 444.023685,357.231464 444.023685,353.592752 C444.023685,350.096336 446.259765,347.880584 448.821093,347.880584 C450.122085,347.880584 450.996189,348.368456 452.053245,349.201904 L451.971933,347.250416 L451.971933,342.83924 L453.150957,342.83924 L453.150957,359 L452.175213,359 L452.032917,357.638024 L451.992261,357.638024 C451.118157,358.512128 449.918805,359.264264 448.516173,359.264264 Z M448.719453,358.227536 C449.878149,358.227536 450.894549,357.638024 451.971933,356.519984 L451.971933,350.25896 C450.874221,349.283216 449.959461,348.917312 448.943061,348.917312 C446.869605,348.917312 445.284021,350.929784 445.284021,353.592752 C445.284021,356.398016 446.524029,358.227536 448.719453,358.227536 Z M482.859543,359 L482.859543,345.217616 L478.204431,345.217616 L478.204431,344.180888 L488.774991,344.180888 L488.774991,345.217616 L484.099551,345.217616 L484.099551,359 L482.859543,359 Z M503.00928,359.264264 C500.386968,359.264264 498.110232,357.190808 498.110232,353.592752 C498.110232,349.974368 500.386968,347.880584 503.00928,347.880584 C505.631592,347.880584 507.908328,349.974368 507.908328,353.592752 C507.908328,357.190808 505.631592,359.264264 503.00928,359.264264 Z M503.00928,358.247864 C505.123392,358.247864 506.688648,356.35736 506.688648,353.592752 C506.688648,350.828144 505.123392,348.917312 503.00928,348.917312 C500.895168,348.917312 499.35024,350.828144 499.35024,353.592752 C499.35024,356.35736 500.895168,358.247864 503.00928,358.247864 Z M520.008177,359 L520.008177,342.83924 L521.187201,342.83924 L521.187201,354.548168 L521.227857,354.548168 L526.411497,348.165176 L527.753145,348.165176 L524.216073,352.454384 L528.322329,359 L527.021337,359 L523.524921,353.30816 L521.187201,356.072768 L521.187201,359 L520.008177,359 Z M539.222826,363.87872 C538.795938,363.87872 538.36905,363.797408 538.06413,363.655112 L538.328394,362.65904 C538.552002,362.740352 538.897578,362.821664 539.202498,362.821664 C540.50349,362.821664 541.377594,361.64264 541.906122,360.077384 L542.190714,359.162624 L537.75921,348.165176 L539.039874,348.165176 L541.560546,354.792104 C541.906122,355.727192 542.312682,356.86556 542.698914,357.841304 L542.800554,357.841304 C543.125802,356.86556 543.471378,355.727192 543.776298,354.792104 L545.99205,348.165176 L547.191402,348.165176 L542.963178,360.260336 C542.312682,362.130512 541.21497,363.87872 539.222826,363.87872 Z M562.421763,359.264264 C559.799451,359.264264 557.522715,357.190808 557.522715,353.592752 C557.522715,349.974368 559.799451,347.880584 562.421763,347.880584 C565.044075,347.880584 567.320811,349.974368 567.320811,353.592752 C567.320811,357.190808 565.044075,359.264264 562.421763,359.264264 Z M562.421763,358.247864 C564.535875,358.247864 566.101131,356.35736 566.101131,353.592752 C566.101131,350.828144 564.535875,348.917312 562.421763,348.917312 C560.307651,348.917312 558.762723,350.828144 558.762723,353.592752 C558.762723,356.35736 560.307651,358.247864 562.421763,358.247864 Z" id="BasedonVancouverandTokyo"></path>
                </g>
            </g>
        </g>
    </g>
</svg>