<?xml version="1.0" encoding="UTF-8"?>
<svg width="1144px" height="496px" viewBox="0 0 1144 496" version="1.1" xmlns="http://www.w3.org/2000/svg" xmlns:xlink="http://www.w3.org/1999/xlink">
    <!-- Generator: Sketch 55.1 (78136) - https://sketchapp.com -->
    <title>title</title>
    <desc>Created with Sketch.</desc>
    <g id="Page-1" stroke="none" stroke-width="1" fill="none" fill-rule="evenodd">
        <g id="home" transform="translate(-385.000000, -305.000000)" fill="#1A1A1A" fill-rule="nonzero">
            <g id="hero" transform="translate(-98.000000, -140.000000)">
                <g id="title" transform="translate(483.000000, 442.000000)">
                    <g id="maintitle" transform="translate(932.000000, 0.000000)">
                        <path d="M22.5131262,33.9558664 L21.6535956,34.33788 C21.3352509,33.6852734 20.7940649,32.7302393 20.3642995,32.1413016 L21.207913,31.7752052 C21.6058438,32.3482256 22.1788643,33.3032597 22.5131262,33.9558664 Z M18.8999139,34.33788 L13.4084678,34.33788 C12.8831991,34.33788 12.3579303,34.3537972 11.9440822,34.3856317 L11.9440822,33.0645012 C12.405682,33.1122529 12.8831991,33.1600046 13.3925506,33.1600046 L18.8999139,33.1600046 C19.3455965,33.1600046 19.9186169,33.1281702 20.3802168,33.0645012 L20.3802168,34.3856317 C19.9186169,34.3537972 19.3615137,34.33788 18.8999139,34.33788 Z M11.4506479,37.1393134 L21.8605196,37.1393134 C22.1947815,37.1393134 22.7200503,37.1233961 23.1020639,37.0756444 L23.1020639,38.3808577 C22.7518848,38.3649405 22.2425333,38.3490232 21.8605196,38.3490232 L17.5310317,38.3490232 C17.48328,40.0680846 17.2286042,41.516553 16.5919148,42.6944284 C16.0188944,43.7608831 14.8091845,44.9069241 13.4562195,45.6072824 L12.2783441,44.7318345 C13.5198885,44.2224829 14.6659294,43.2992833 15.2867016,42.2964975 C15.9870599,41.1822911 16.1621495,39.8452433 16.2099012,38.3490232 L11.4506479,38.3490232 C10.9572136,38.3490232 10.4956138,38.3490232 10.0658485,38.3808577 L10.0658485,37.0756444 C10.4956138,37.1074789 10.9572136,37.1393134 11.4506479,37.1393134 Z M22.1151954,31.4886949 L22.9588088,31.1385158 C23.3726569,31.7115362 23.9934291,32.714322 24.2958566,33.3032597 L23.4363259,33.6852734 C23.0861467,32.984915 22.5767952,32.0935499 22.1151954,31.4886949 Z M22.3221194,72.5676454 L21.5421749,72.8382384 C21.3034164,72.1537972 20.93732,71.1987631 20.6348925,70.5939082 L21.3989198,70.3551497 C21.68543,70.9281702 22.1151954,71.9150387 22.3221194,72.5676454 Z M19.8867825,73.697769 L21.6217611,73.697769 C22.3380367,73.697769 22.8633054,73.6500173 23.0861467,73.6022656 L23.0861467,74.9552306 C22.9110571,74.9393134 22.3380367,74.9074789 21.6376783,74.9074789 L19.8867825,74.9074789 L19.8867825,75.4645821 C19.8867825,79.6985666 18.9635828,81.8792278 15.3344533,83.518703 L14.2679985,82.5 C17.1649353,81.4017108 18.5974864,80.0328286 18.5974864,75.5760028 L18.5974864,74.9074789 L14.0769917,74.9074789 L14.0769917,77.486071 C14.0769917,78.0750087 14.1247434,78.775367 14.1406606,78.9186221 L12.7240267,78.9186221 C12.739944,78.775367 12.8036129,78.0909259 12.8036129,77.486071 L12.8036129,74.9074789 L11.0845515,74.9074789 C10.3841932,74.9074789 9.6679176,74.9552306 9.49282801,74.9552306 L9.49282801,73.5863484 C9.63608313,73.6181829 10.4160276,73.697769 11.0845515,73.697769 L12.8036129,73.697769 L12.8036129,71.660363 C12.8036129,71.1350942 12.7558612,70.6416599 12.7240267,70.4984048 L14.1406606,70.4984048 C14.1247434,70.6416599 14.0769917,71.1032597 14.0769917,71.6444457 L14.0769917,73.697769 L18.5974864,73.697769 L18.5974864,71.7081147 C18.5974864,71.0873425 18.5497347,70.5620737 18.5338175,70.4029014 L19.9663686,70.4029014 C19.9504514,70.5620737 19.8867825,71.0873425 19.8867825,71.7081147 L19.8867825,73.697769 Z M22.2106988,70.1163912 L22.9747261,69.8776326 C23.2771535,70.4506531 23.7069189,71.4216044 23.9297602,72.0742111 L23.1498156,72.3288868 C22.8951399,71.6285285 22.5290435,70.7053289 22.2106988,70.1163912 Z M21.3670853,107.868639 L22.4176228,108.823674 C21.3193336,109.93788 19.7912791,111.243093 18.1518039,112.277714 L18.1518039,119.09029 C18.1518039,119.695145 18.1836383,120.47509 18.2473073,120.793434 L16.6874182,120.793434 C16.7351699,120.491007 16.7829216,119.695145 16.7829216,119.09029 L16.7829216,113.073575 C15.0797775,114.012692 12.8831991,114.935892 10.7980413,115.556664 L10.0658485,114.31512 C12.7240267,113.694347 15.4299567,112.484638 17.1808525,111.386348 C18.8044105,110.383563 20.4757202,108.998763 21.3670853,107.868639 Z M12.3260958,146.432667 C13.4562195,147.180777 15.4936256,148.836169 16.3849908,149.727534 L15.382205,150.73032 C14.5863432,149.902624 12.5966888,148.19948 11.4188134,147.403618 L12.3260958,146.432667 Z M10.9572136,157.097214 C13.7427298,156.683366 15.8119703,155.712415 17.3241076,154.773298 C19.7753618,153.229326 21.7172645,150.873575 22.6404641,148.915755 L23.4044914,150.26872 C22.3062022,152.258375 20.4598029,154.423119 18.0563004,155.919339 C16.4645769,156.938042 14.4590053,157.908993 11.8008271,158.402427 L10.9572136,157.097214 Z M24.2162704,184.598763 L23.3567397,184.980777 C23.0065605,184.296336 22.4812918,183.389053 22.0356092,182.784198 L22.8792227,182.434019 C23.2930708,183.00704 23.9138429,184.009825 24.2162704,184.598763 Z M22.4335401,185.25137 L21.5580921,185.633383 C21.2397474,184.996694 20.6985615,184.025743 20.2687961,183.420888 L21.1124096,183.070709 C21.5103404,183.627812 22.0992781,184.61468 22.4335401,185.25137 Z M13.9974055,183.436805 L15.4936256,183.58006 C15.4299567,183.882488 15.3503705,184.200832 15.3026188,184.519177 C15.2071154,184.980777 15.0638603,185.903976 14.8887707,186.74759 C15.6209635,186.683921 16.2735701,186.636169 16.6555838,186.636169 C18.0722177,186.636169 19.2182586,187.193272 19.2182586,189.326182 C19.2182586,191.204416 18.9635828,193.687504 18.3109762,195.008635 C17.8016247,196.059172 17.0216802,196.313848 16.0029771,196.313848 C15.3981222,196.313848 14.6500122,196.202427 14.1406606,196.091007 L13.9337366,194.738042 C14.6022604,194.960883 15.4299567,195.088221 15.8756392,195.088221 C16.4486597,195.088221 16.9102595,194.960883 17.2445215,194.276442 C17.753873,193.225905 17.9926315,191.172581 17.9926315,189.469437 C17.9926315,188.036886 17.3400249,187.78221 16.3213218,187.78221 C15.9393082,187.78221 15.318536,187.829962 14.6340949,187.893631 C14.0610745,190.153878 12.9787025,193.703422 11.32331,196.345683 L10.034014,195.820414 C11.6416547,193.671587 12.8036129,190.122044 13.3447989,188.020969 C12.5171027,188.100555 11.7689926,188.180141 11.3551445,188.227893 C10.9731309,188.275644 10.3364415,188.339313 9.93851059,188.4189 L9.81117271,187.0341 C10.304607,187.050017 10.7025379,187.050017 11.2118894,187.0341 C11.7371581,187.018183 12.6444405,186.938597 13.5994746,186.859011 C13.8223159,185.728887 14.0133228,184.50326 13.9974055,183.436805 Z M19.7435274,185.919894 L20.9054855,185.378708 C21.8923541,186.652086 23.2612363,189.517189 23.786505,190.981574 L22.5608779,191.586429 C22.0833609,189.962871 20.8418166,187.20919 19.7435274,185.919894 Z M15.859722,220.870709 L17.1649353,220.870709 C17.149018,221.077633 17.149018,221.332308 17.1331008,221.602901 C17.2763559,223.703976 18.1358866,231.057739 24.120767,233.795503 C23.786505,234.050179 23.4204086,234.44811 23.2453191,234.766455 C19.1386724,232.824552 17.3877766,228.74974 16.6237493,225.566293 C15.923391,228.74974 14.2839157,232.585794 10.2568553,234.766455 C10.0499312,234.479945 9.6679176,234.113848 9.30182119,233.859172 C15.7483014,230.564305 15.7483014,222.971784 15.859722,220.870709 Z M17.3081904,271.070235 L23.7546706,271.070235 L23.7546706,272.216276 L9.65200036,272.216276 L9.65200036,271.070235 L16.0984805,271.070235 L16.0984805,267.027257 L11.3710617,267.027257 L11.3710617,265.881216 L16.0984805,265.881216 L16.0984805,262.411259 L12.3579303,262.411259 C11.8485788,263.414045 11.2914756,264.289493 10.6866206,265.005768 C10.4637793,264.814761 9.93851059,264.464582 9.62016589,264.30541 C10.9253792,262.904693 11.9440822,260.708115 12.5648544,258.447867 L13.758647,258.702543 C13.5039712,259.577991 13.217461,260.437522 12.8672818,261.249301 L16.0984805,261.249301 L16.0984805,258.193192 L17.3081904,258.193192 L17.3081904,261.249301 L23.0065605,261.249301 L23.0065605,262.411259 L17.3081904,262.411259 L17.3081904,265.881216 L22.4176228,265.881216 L22.4176228,267.027257 L17.3081904,267.027257 L17.3081904,271.070235 Z M18.1358866,307.151173 L16.9102595,307.151173 C16.9580112,306.546318 16.9739285,305.527615 16.9739285,304.699919 C15.5095428,305.495781 14.4908398,306.30756 14.4908398,307.34218 C14.4908398,308.583724 15.7164669,308.758814 17.3400249,308.758814 C18.565652,308.758814 20.2528789,308.615559 21.6376783,308.3768 L21.6058438,309.666096 C20.4120512,309.809352 18.6611554,309.920772 17.2922732,309.920772 C15.0320258,309.920772 13.217461,309.443255 13.217461,307.51727 C13.217461,305.654953 15.0956947,304.477078 16.9261768,303.522044 C16.7670044,302.869437 16.1939839,302.551092 15.5095428,302.551092 C14.4749226,302.551092 13.5198885,303.060444 12.7876957,303.713051 C12.3420131,304.142816 11.8963305,304.731754 11.3551445,305.368443 L10.2727725,304.556664 C12.2783441,302.614761 13.3129644,300.991203 13.9019021,299.749659 L13.2492955,299.749659 C12.5807716,299.749659 11.5143169,299.717825 10.6547862,299.654156 L10.6547862,298.460363 C11.4983996,298.555866 12.5966888,298.619535 13.3129644,298.619535 C13.6472263,298.619535 13.9814883,298.619535 14.3475847,298.603618 C14.570426,297.90326 14.7136811,297.186984 14.7455156,296.645798 L16.0507288,296.757219 C15.9393082,297.202901 15.7960531,297.855508 15.5732118,298.571784 C17.1808525,298.492197 18.8999139,298.348942 20.396134,298.094267 L20.3802168,299.272142 C18.8203277,299.5109 16.8784251,299.654156 15.1593637,299.717825 C14.8091845,300.529604 14.3157502,301.405051 13.7427298,302.137244 C14.3157502,301.771148 15.2230326,301.548307 15.923391,301.548307 C16.942094,301.548307 17.7697902,302.041741 18.0085487,302.980858 C19.0909207,302.471506 20.0459548,302.089493 20.873651,301.707479 C21.3511681,301.500555 21.7331817,301.309548 22.1788643,301.086707 L22.6882158,302.280499 C22.290285,302.39192 21.7172645,302.614761 21.3034164,302.773934 C20.4120512,303.124113 19.2819275,303.585713 18.0881349,304.142816 C18.1040522,305.050098 18.1199694,306.387146 18.1358866,307.151173 Z M16.1939839,339.44381 L12.0236684,339.44381 L12.0236684,340.351092 L16.1939839,340.351092 L16.1939839,339.44381 Z M12.0077511,342.054237 L16.1939839,342.054237 L16.1939839,341.131037 L12.0236684,341.131037 L12.0236684,341.146954 C12.0236684,341.433464 12.0236684,341.735892 12.0077511,342.054237 Z M16.4486597,344.839753 L12.7876957,344.839753 L12.7876957,346.717986 L16.4486597,346.717986 L16.4486597,344.839753 Z M17.2604387,342.945602 L11.928165,342.945602 C11.8963305,343.263946 11.8485788,343.598208 11.7849099,343.93247 L17.4991972,343.93247 L17.4991972,348.166455 L16.4486597,348.166455 L16.4486597,347.625269 L12.7876957,347.625269 L12.7876957,348.277875 L11.7530754,348.277875 L11.7530754,344.139394 C11.4824824,345.492359 10.9890481,346.861241 10.0976829,347.959531 C9.95442783,347.736689 9.52466248,347.354676 9.30182119,347.227338 C10.7980413,345.412773 10.9731309,342.945602 10.9731309,341.131037 L10.9731309,338.552445 L17.2604387,338.552445 L17.2604387,342.945602 Z M13.4721368,333.936447 L14.5545087,333.936447 C15.7323841,334.827812 17.2445215,336.101191 18.0403832,336.928887 L17.2604387,337.820252 C16.5759976,337.056225 15.2867016,335.81468 14.1884123,334.95515 C13.7427298,335.52817 13.2015438,336.180777 12.5489371,336.817466 L16.2258184,336.817466 L16.2258184,337.676997 L12.3579303,337.676997 L12.3579303,337.008473 C11.7053237,337.629245 10.9253792,338.250017 10.0499312,338.807121 C9.90667612,338.568362 9.54057972,338.170431 9.30182119,338.011259 C11.2755583,336.833383 12.6921922,335.225743 13.4721368,333.936447 Z M19.6798584,335.687343 L19.6798584,344.441822 L18.565652,344.441822 L18.565652,335.687343 L19.6798584,335.687343 Z M22.1151954,334.095619 L23.2612363,334.095619 L23.2612363,346.749821 C23.2612363,347.545683 23.0543122,347.895862 22.5608779,348.102786 C22.0674437,348.293793 21.2238302,348.325627 19.8071963,348.30971 C19.7594446,348.007282 19.5684378,347.466096 19.3933482,347.131834 C20.4757202,347.179586 21.414837,347.163669 21.7172645,347.147752 C21.9878575,347.147752 22.1151954,347.052248 22.1151954,346.765738 L22.1151954,334.095619 Z M11.32331,378.517189 C11.7849099,378.437603 12.3101786,378.294347 12.7876957,378.135175 C13.9178193,377.784996 16.4964114,376.845879 18.3587279,376.845879 C20.5871408,376.845879 22.2106988,378.182927 22.2106988,380.331754 C22.2106988,383.371945 19.2819275,384.931834 15.0320258,385.18651 L14.5226743,383.960883 C17.9289626,383.849462 20.9214027,382.894428 20.9214027,380.315836 C20.9214027,378.978789 19.8708652,378.007837 18.2632245,378.007837 C16.3054046,378.007837 12.8672818,379.440388 11.8485788,379.838319 L11.32331,378.517189 Z M10.1295174,412.130956 C10.7343723,412.115039 11.2278066,412.083204 11.5302341,412.05137 C12.5648544,411.955866 15.5413773,411.653439 18.4383141,411.41468 C20.1573755,411.271425 21.6376783,411.191839 22.6882158,411.144087 L22.6882158,412.417466 C21.7968507,412.417466 20.4120512,412.433383 19.6002722,412.672142 C17.3559421,413.388418 16.0029771,415.776003 16.0029771,417.638319 C16.0029771,420.726263 18.8680794,421.697214 21.4307543,421.792718 L20.9691544,423.113848 C18.0563004,423.002427 14.7295983,421.442538 14.7295983,417.924829 C14.7295983,415.457658 16.2099012,413.468004 17.6583696,412.608473 C16.2735701,412.767645 11.9759167,413.181493 10.2727725,413.531673 L10.1295174,412.130956 Z M12.3101786,449.421604 C12.2465097,449.803618 12.198758,450.535811 12.1828407,450.949659 C12.1669235,451.936528 12.1828407,453.384996 12.2942614,454.674292 C12.5489371,457.316553 13.3129644,459.051532 14.4271709,459.051532 C15.2389498,459.051532 15.9711427,457.427974 16.3849908,455.83625 L17.3877766,456.982291 C16.4486597,459.656387 15.4777084,460.563669 14.3953364,460.563669 C12.9150335,460.563669 11.4824824,459.083366 11.052717,454.992637 C10.8935447,453.623754 10.8776275,451.713686 10.8776275,450.790487 C10.8776275,450.42439 10.8617102,449.771784 10.782124,449.38977 L12.3101786,449.421604 Z M20.5234719,449.85137 C21.9401058,451.681852 23.0702295,454.913051 23.2930708,457.571229 L22.0037747,458.08058 C21.7331817,455.247312 20.7781476,452.127534 19.2819275,450.281135 L20.5234719,449.85137 Z M16.6555838,497.774731 C17.1012663,497.774731 17.5310317,497.742897 17.9130453,497.679228 C17.7697902,496.437684 17.0216802,495.578153 15.8278875,495.578153 C15.111612,495.578153 14.570426,496.007918 14.570426,496.549104 C14.570426,497.329049 15.4777084,497.774731 16.6555838,497.774731 Z M19.9026997,486.330239 L20.6348925,487.253439 C20.3483823,487.444446 19.9982031,487.683204 19.7594446,487.858294 C18.9795001,488.447232 16.8625078,490.309548 15.652798,491.328251 C16.3690735,491.089493 17.0853491,490.993989 17.7857075,490.993989 C20.4120512,490.993989 22.3062022,492.585713 22.3062022,494.718622 C22.3062022,497.26538 20.1892099,498.920772 16.8625078,498.920772 C14.7136811,498.920772 13.3925506,497.965738 13.3925506,496.660525 C13.3925506,495.578153 14.3635019,494.591284 15.8278875,494.591284 C17.8016247,494.591284 18.8680794,495.912415 19.0750035,497.3768 C20.3165478,496.899283 21.0328234,495.992001 21.0328234,494.702705 C21.0328234,493.158733 19.4729344,492.028609 17.48328,492.028609 C14.8887707,492.028609 13.4562195,493.126899 11.4506479,495.164305 L10.5274483,494.225188 C11.8326616,493.142816 13.8541504,491.455589 14.77735,490.691562 C15.652798,489.959369 17.6106179,488.303976 18.3905624,487.603618 C17.5628662,487.635453 14.4590053,487.778708 13.6472263,487.826459 C13.2811299,487.842377 12.9150335,487.858294 12.5807716,487.921963 L12.5489371,486.600832 C12.8991163,486.648584 13.3447989,486.648584 13.6631436,486.648584 C14.4749226,486.648584 18.2154728,486.537163 19.043169,486.457577 C19.5047688,486.409825 19.7276101,486.377991 19.9026997,486.330239 Z" id="デザインが人生を創っている"></path>
                        <path d="M37.0284807,53.7054873 C31.0507473,53.7054873 26.2253481,48.8800881 26.2253481,42.9023547 C26.2253481,36.9246213 31.0507473,32.099222 37.0284807,32.099222 C43.0062141,32.099222 47.8316134,36.9246213 47.8316134,42.9023547 C47.8316134,48.8800881 43.0062141,53.7054873 37.0284807,53.7054873 Z M27.0895987,42.9023547 C27.0895987,48.3999488 31.5308866,52.8412367 37.0284807,52.8412367 C42.5260749,52.8412367 46.9673628,48.3999488 46.9673628,42.9023547 C46.9673628,37.4047605 42.5260749,32.9634726 37.0284807,32.9634726 C31.5308866,32.9634726 27.0895987,37.4047605 27.0895987,42.9023547 Z M66.3889946,32.1952499 L77.6722664,51.7369165 L55.1057227,51.7369165 L66.3889946,32.1952499 Z M66.3889946,34.3078625 L56.9302518,50.6806102 L75.8477374,50.6806102 L66.3889946,34.3078625 Z M86.1467238,33.2995701 L105.352293,33.2995701 L105.352293,52.5051392 L86.1467238,52.5051392 L86.1467238,33.2995701 Z M87.0109744,34.1638207 L87.0109744,51.6408886 L104.488042,51.6408886 L104.488042,34.1638207 L87.0109744,34.1638207 Z" id="○△□" transform="translate(65.788821, 42.902355) rotate(-270.000000) translate(-65.788821, -42.902355) "></path>
                    </g>
                    <g id="maintext" transform="translate(33.000000, 184.000000)">
                        <path d="M69.2622504,72.0634384 C69.2622504,83.9955775 65.8661039,93.1345995 59.073709,99.4807787 C52.281314,105.826958 42.4729784,109 29.6484079,109 L9.12258703,109 L9.12258703,36.5150965 L31.8794753,36.5150965 C43.7124554,36.5150965 52.9010562,39.6385598 59.4455535,45.8855799 C65.9900509,52.1326001 69.2622504,60.8584657 69.2622504,72.0634384 Z M53.2977231,72.4600726 C53.2977231,56.8921017 46.4227988,49.108233 32.6727438,49.108233 L24.492163,49.108233 L24.492163,96.307705 L31.0862069,96.307705 C45.8939584,96.307705 53.2977231,88.3585737 53.2977231,72.4600726 Z M106.050074,63.2879063 C102.843932,63.2879063 100.33194,64.3042713 98.5140241,66.3370318 C96.6961082,68.3697924 95.6549537,71.2536248 95.3905296,74.9886157 L116.61046,74.9886157 C116.544354,71.2536248 115.569305,68.3697924 113.685283,66.3370318 C111.801261,64.3042713 109.256217,63.2879063 106.050074,63.2879063 Z M108.181983,109.991586 C99.2576686,109.991586 92.2835867,107.529173 87.2595281,102.604273 C82.2354696,97.6793737 79.723478,90.7052918 79.723478,81.6818182 C79.723478,72.3939205 82.0454176,65.2132603 86.6893664,60.1396222 C91.3333153,55.0659841 97.7537675,52.5292031 105.950916,52.5292031 C113.784481,52.5292031 119.882671,54.7602483 124.245669,59.2224055 C128.608667,63.6845628 130.790134,69.848858 130.790134,77.715476 L130.790134,85.053209 L95.0434747,85.053209 C95.2087398,89.3501012 96.4812618,92.7049321 98.861079,95.1178023 C101.240896,97.5306726 104.579201,98.7370896 108.876093,98.7370896 C112.214448,98.7370896 115.370964,98.3900381 118.345735,97.6959248 C121.320507,97.0018114 124.427444,95.894552 127.666639,94.3741132 L127.666639,106.074823 C125.022398,107.396943 122.196407,108.380256 119.188583,109.02479 C116.180758,109.669323 112.511928,109.991586 108.181983,109.991586 Z M181.757631,92.5396799 C181.757631,98.2247988 179.782743,102.554679 175.832907,105.529451 C171.883072,108.504222 165.974933,109.991586 158.108315,109.991586 C154.075847,109.991586 150.638385,109.718902 147.795826,109.173527 C144.953266,108.628153 142.292538,107.826629 139.813562,106.768933 L139.813562,94.2749546 C142.623069,95.5970753 145.787847,96.7043348 149.307994,97.5967662 C152.82814,98.4891977 155.926814,98.9354067 158.604108,98.9354067 C164.090909,98.9354067 166.834268,97.3488857 166.834268,94.1757961 C166.834268,92.9858875 166.470691,92.0191012 165.743524,91.2754083 C165.016358,90.5317155 163.760362,89.6888762 161.975499,88.7468652 C160.190636,87.8048542 157.810855,86.7058579 154.836083,85.4498433 C150.572244,83.6649804 147.440518,82.0123543 145.44081,80.4919155 C143.441103,78.9714768 141.986792,77.2279563 141.077834,75.2613018 C140.168876,73.2946473 139.714404,70.8735501 139.714404,67.9979376 C139.714404,63.0730381 141.623187,59.2637351 145.44081,56.5699142 C149.258434,53.8760933 154.670784,52.5292031 161.678023,52.5292031 C168.354733,52.5292031 174.849553,53.983514 181.162679,56.8921795 L176.601386,67.7996205 C173.824932,66.6097119 171.23031,65.6346626 168.817439,64.8744432 C166.404569,64.1142238 163.942156,63.7341198 161.430127,63.7341198 C156.96797,63.7341198 154.736925,64.9405368 154.736925,67.353407 C154.736925,68.7085807 155.455817,69.8819452 156.893623,70.8735357 C158.331429,71.8651262 161.479682,73.3359634 166.338475,75.2860914 C170.668421,77.0379013 173.841463,78.6740011 175.857697,80.1944399 C177.873931,81.7148786 179.361294,83.4666623 180.319832,85.4498433 C181.278369,87.4330243 181.757631,89.7962795 181.757631,92.5396799 Z M192.912968,39.2419568 C192.912968,34.3170573 195.656327,31.8546445 201.143128,31.8546445 C206.629929,31.8546445 209.373288,34.3170573 209.373288,39.2419568 C209.373288,41.588721 208.687448,43.4148728 207.315748,44.7204669 C205.944048,46.0260611 203.886529,46.6788484 201.143128,46.6788484 C195.656327,46.6788484 192.912968,44.1999093 192.912968,39.2419568 Z M208.679178,109 L193.557499,109 L193.557499,53.5703679 L208.679178,53.5703679 L208.679178,109 Z M272.785184,53.5703679 L272.785184,61.2551559 L264.10881,63.4862234 C265.695355,65.9651997 266.488616,68.7416114 266.488616,71.815542 C266.488616,77.765085 264.41457,82.4007011 260.266416,85.7225293 C256.118263,89.0443575 250.358861,90.7052467 242.988038,90.7052467 L240.261178,90.5565088 L238.030111,90.3086124 C236.476619,91.498521 235.699884,92.8206219 235.699884,94.2749546 C235.699884,96.4564537 238.476296,97.5471869 244.029203,97.5471869 L253.449266,97.5471869 C259.531021,97.5471869 264.166637,98.8527615 267.356253,101.46395 C270.545869,104.075138 272.140653,107.909231 272.140653,112.966342 C272.140653,119.444733 269.43861,124.468717 264.034441,128.038442 C258.630273,131.608168 250.871194,133.393004 240.756971,133.393004 C233.022565,133.393004 227.114427,132.046114 223.032379,129.352293 C218.950332,126.658472 216.909338,122.882222 216.909338,118.023428 C216.909338,114.685074 217.950493,111.892136 220.032833,109.644531 C222.115173,107.396925 225.172531,105.793878 229.204999,104.835341 C227.651507,104.17428 226.296354,103.09181 225.139498,101.587898 C223.982643,100.083986 223.404224,98.4892016 223.404224,96.8034978 C223.404224,94.6881047 224.015695,92.928058 225.238657,91.5233047 C226.461619,90.1185515 228.229928,88.7386088 230.54364,87.3834351 C227.634974,86.1274204 225.329561,84.1112167 223.62733,81.3347632 C221.9251,78.5583098 221.073998,75.2861102 221.073998,71.5180663 C221.073998,65.4693642 223.040623,60.7924325 226.973932,57.4871308 C230.907241,54.1818292 236.526169,52.5292031 243.830886,52.5292031 C245.384378,52.5292031 247.227056,52.6696763 249.358975,52.950627 C251.490895,53.2315776 252.854311,53.4381559 253.449266,53.5703679 L272.785184,53.5703679 Z M229.998268,116.833526 C229.998268,118.915866 230.998106,120.551966 232.997814,121.741874 C234.997521,122.931783 237.798723,123.526728 241.401501,123.526728 C246.822196,123.526728 251.069445,122.783047 254.143376,121.295661 C257.217306,119.808275 258.754248,117.775545 258.754248,115.19741 C258.754248,113.11507 257.845304,111.677285 256.027388,110.884013 C254.209472,110.09074 251.400008,109.69411 247.598911,109.69411 L239.765385,109.69411 C236.988932,109.69411 234.666992,110.346897 232.799497,111.652491 C230.932001,112.958086 229.998268,114.68508 229.998268,116.833526 Z M235.501567,71.7163834 C235.501567,74.724208 236.187407,77.1039895 237.559107,78.8557994 C238.930808,80.6076093 241.02138,81.4835011 243.830886,81.4835011 C246.673445,81.4835011 248.755754,80.6076093 250.077875,78.8557994 C251.399996,77.1039895 252.061046,74.724208 252.061046,71.7163834 C252.061046,65.039674 249.317687,61.7013694 243.830886,61.7013694 C238.277979,61.7013694 235.501567,65.039674 235.501567,71.7163834 Z M333.073585,109 L317.951906,109 L317.951906,76.6247319 C317.951906,72.6253169 317.241276,69.6258006 315.819997,67.6260931 C314.398717,65.6263855 312.134619,64.6265468 309.027636,64.6265468 C304.79685,64.6265468 301.739491,66.0395421 299.855469,68.865575 C297.971447,71.6916079 297.029451,76.3768028 297.029451,82.9213001 L297.029451,109 L281.907771,109 L281.907771,53.5703679 L293.459743,53.5703679 L295.492493,60.6602046 L296.335341,60.6602046 C298.021045,57.9829102 300.342984,55.9584433 303.301229,54.5867431 C306.259474,53.2150429 309.622568,52.5292031 313.390612,52.5292031 C319.83595,52.5292031 324.727723,54.2727236 328.066078,57.7598169 C331.404433,61.2469101 333.073585,66.2791565 333.073585,72.8567068 L333.073585,109 Z M397.526646,109.991586 C380.272971,109.991586 371.646263,100.522038 371.646263,81.5826596 C371.646263,72.1625498 373.992992,64.9653634 378.68652,59.9908843 C383.380049,55.0164053 390.106237,52.5292031 398.865286,52.5292031 C405.277571,52.5292031 411.02871,53.7851989 416.118875,56.2972282 L411.65674,67.9979376 C409.276923,67.0394001 407.062404,66.2544028 405.013117,65.642922 C402.96383,65.0314412 400.914573,64.7257053 398.865286,64.7257053 C390.998668,64.7257053 387.065418,70.3115814 387.065418,81.4835011 C387.065418,92.3248906 390.998668,97.745504 398.865286,97.745504 C401.773952,97.745504 404.467732,97.3571369 406.946708,96.580391 C409.425685,95.8036451 411.904624,94.588965 414.3836,92.9363141 L414.3836,105.876506 C411.937677,107.429997 409.467001,108.504204 406.971498,109.099159 C404.475995,109.694113 401.327743,109.991586 397.526646,109.991586 Z M458.162102,52.5292031 C460.211389,52.5292031 461.913594,52.6779395 463.268768,52.9754166 L462.128444,67.1550899 C460.905482,66.8245598 459.418119,66.6592971 457.666309,66.6592971 C452.840569,66.6592971 449.080844,67.8987667 446.387024,70.3777429 C443.693203,72.8567192 442.346312,76.3272339 442.346312,80.7893912 L442.346312,109 L427.224633,109 L427.224633,53.5703679 L438.677446,53.5703679 L440.908513,62.8912721 L441.652203,62.8912721 C443.370959,59.7842885 445.692899,57.28056 448.618091,55.3800116 C451.543283,53.4794631 454.724588,52.5292031 458.162102,52.5292031 Z M496.288566,63.2879063 C493.082424,63.2879063 490.570432,64.3042713 488.752516,66.3370318 C486.9346,68.3697924 485.893446,71.2536248 485.629022,74.9886157 L506.848952,74.9886157 C506.782846,71.2536248 505.807797,68.3697924 503.923775,66.3370318 C502.039753,64.3042713 499.494709,63.2879063 496.288566,63.2879063 Z M498.420475,109.991586 C489.496161,109.991586 482.522079,107.529173 477.49802,102.604273 C472.473962,97.6793737 469.96197,90.7052918 469.96197,81.6818182 C469.96197,72.3939205 472.28391,65.2132603 476.927858,60.1396222 C481.571807,55.0659841 487.992259,52.5292031 496.189408,52.5292031 C504.022973,52.5292031 510.121163,54.7602483 514.484161,59.2224055 C518.847159,63.6845628 521.028626,69.848858 521.028626,77.715476 L521.028626,85.053209 L485.281967,85.053209 C485.447232,89.3501012 486.719754,92.7049321 489.099571,95.1178023 C491.479388,97.5306726 494.817693,98.7370896 499.114585,98.7370896 C502.45294,98.7370896 505.609455,98.3900381 508.584227,97.6959248 C511.558999,97.0018114 514.665935,95.894552 517.905131,94.3741132 L517.905131,106.074823 C515.26089,107.396943 512.434899,108.380256 509.427075,109.02479 C506.41925,109.669323 502.75042,109.991586 498.420475,109.991586 Z M568.525573,109 L565.600396,101.46395 L565.203762,101.46395 C562.658679,104.670092 560.039267,106.892875 557.345446,108.132363 C554.651625,109.371851 551.139795,109.991586 546.80985,109.991586 C541.488314,109.991586 537.298907,108.47117 534.241503,105.430292 C531.184099,102.389414 529.65542,98.0595342 529.65542,92.4405214 C529.65542,86.5570844 531.712939,82.218941 535.82804,79.4259611 C539.94314,76.6329811 546.148751,75.0877758 554.445059,74.7902986 L564.063438,74.492823 L564.063438,72.0634384 C564.063438,66.4444255 561.187869,63.6349612 555.436644,63.6349612 C551.00754,63.6349612 545.801768,64.9735883 539.819172,67.6508827 L534.811665,57.4375516 C541.190897,54.0991969 548.264136,52.4300446 556.031595,52.4300446 C563.468524,52.4300446 569.170084,54.0496181 573.136446,57.2888137 C577.102808,60.5280094 579.085959,65.452835 579.085959,72.0634384 L579.085959,109 L568.525573,109 Z M564.063438,83.3179343 L558.213084,83.5162514 C553.817032,83.6484635 550.544833,84.441724 548.396387,85.8960568 C546.247941,87.3503895 545.173734,89.5649084 545.173734,92.5396799 C545.173734,96.8035191 547.61962,98.9354067 552.511467,98.9354067 C556.015087,98.9354067 558.816288,97.9273048 560.915154,95.9110708 C563.014021,93.8948368 564.063438,91.2175826 564.063438,87.8792279 L564.063438,83.3179343 Z M618.005692,97.9438212 C620.649933,97.9438212 623.822975,97.365402 627.524913,96.2085464 L627.524913,107.463042 C623.756869,109.148746 619.129516,109.991586 613.642716,109.991586 C607.594014,109.991586 603.189765,108.462906 600.429838,105.405502 C597.669911,102.348098 596.289969,97.762061 596.289969,91.6472529 L596.289969,64.9240224 L589.051394,64.9240224 L589.051394,58.5282957 L597.380713,53.4712094 L601.743689,41.7704999 L611.411648,41.7704999 L611.411648,53.5703679 L626.929962,53.5703679 L626.929962,64.9240224 L611.411648,64.9240224 L611.411648,91.6472529 C611.411648,93.795699 612.014857,95.38222 613.221292,96.4068636 C614.427727,97.4315071 616.022511,97.9438212 618.005692,97.9438212 Z M661.685035,63.2879063 C658.478893,63.2879063 655.966901,64.3042713 654.148985,66.3370318 C652.331069,68.3697924 651.289915,71.2536248 651.025491,74.9886157 L672.245422,74.9886157 C672.179315,71.2536248 671.204266,68.3697924 669.320244,66.3370318 C667.436222,64.3042713 664.891178,63.2879063 661.685035,63.2879063 Z M663.816944,109.991586 C654.89263,109.991586 647.918548,107.529173 642.894489,102.604273 C637.870431,97.6793737 635.358439,90.7052918 635.358439,81.6818182 C635.358439,72.3939205 637.680379,65.2132603 642.324328,60.1396222 C646.968276,55.0659841 653.388729,52.5292031 661.585877,52.5292031 C669.419442,52.5292031 675.517632,54.7602483 679.88063,59.2224055 C684.243628,63.6845628 686.425095,69.848858 686.425095,77.715476 L686.425095,85.053209 L650.678436,85.053209 C650.843701,89.3501012 652.116223,92.7049321 654.49604,95.1178023 C656.875857,97.5306726 660.214162,98.7370896 664.511054,98.7370896 C667.849409,98.7370896 671.005925,98.3900381 673.980696,97.6959248 C676.955468,97.0018114 680.062405,95.894552 683.3016,94.3741132 L683.3016,106.074823 C680.657359,107.396943 677.831368,108.380256 674.823544,109.02479 C671.815719,109.669323 668.14689,109.991586 663.816944,109.991586 Z M774.725788,109 L759.604108,109 L759.604108,76.6247319 C759.604108,72.6253169 758.934795,69.6258006 757.596147,67.6260931 C756.2575,65.6263855 754.150402,64.6265468 751.27479,64.6265468 C747.407587,64.6265468 744.598122,66.0478052 742.846312,68.8903646 C741.094503,71.7329241 740.218611,76.4098558 740.218611,82.9213001 L740.218611,109 L725.096931,109 L725.096931,53.5703679 L736.648903,53.5703679 L738.681653,60.6602046 L739.524501,60.6602046 C741.011887,58.1151223 743.1603,56.1237079 745.969807,54.6859017 C748.779313,53.2480954 752.001934,52.5292031 755.637766,52.5292031 C763.934073,52.5292031 769.553002,55.2395098 772.49472,60.6602046 L773.833361,60.6602046 C775.320747,58.0820693 777.510476,56.0823918 780.402615,54.661112 C783.294754,53.2398323 786.55869,52.5292031 790.194522,52.5292031 C796.474596,52.5292031 801.225895,54.1405135 804.448565,57.3631826 C807.671234,60.5858518 809.282544,65.7503082 809.282544,72.8567068 L809.282544,109 L794.111285,109 L794.111285,76.6247319 C794.111285,72.6253169 793.441972,69.6258006 792.103324,67.6260931 C790.764677,65.6263855 788.657579,64.6265468 785.781967,64.6265468 C782.080029,64.6265468 779.31188,65.9486476 777.477438,68.592889 C775.642995,71.2371303 774.725788,75.4348005 774.725788,81.1860254 L774.725788,109 Z M816.868174,53.5703679 L833.427652,53.5703679 L843.88888,84.7557334 C844.781311,87.4660808 845.392783,90.6721753 845.723313,94.3741132 L846.020789,94.3741132 C846.384372,90.9696525 847.095001,87.7635579 848.152698,84.7557334 L858.415608,53.5703679 L874.628032,53.5703679 L851.177033,116.089837 C849.028587,121.874115 845.962966,126.203995 841.980077,129.079607 C837.997189,131.95522 833.345047,133.393004 828.023511,133.393004 C825.412323,133.393004 822.850752,133.112058 820.338723,132.550157 L820.338723,120.551972 C822.156639,120.981661 824.13979,121.196502 826.288236,121.196502 C828.965531,121.196502 831.303996,120.378452 833.303704,118.742328 C835.303411,117.106204 836.865143,114.635528 837.988946,111.330226 L838.881373,108.603366 L816.868174,53.5703679 Z M976.810922,109 L961.689243,109 L961.689243,31.8546445 L976.810922,31.8546445 L976.810922,109 Z M992.03176,39.2419568 C992.03176,34.3170573 994.77512,31.8546445 1000.26192,31.8546445 C1005.74872,31.8546445 1008.49208,34.3170573 1008.49208,39.2419568 C1008.49208,41.588721 1007.80624,43.4148728 1006.43454,44.7204669 C1005.06284,46.0260611 1003.00532,46.6788484 1000.26192,46.6788484 C994.77512,46.6788484 992.03176,44.1999093 992.03176,39.2419568 Z M1007.79797,109 L992.676291,109 L992.676291,53.5703679 L1007.79797,53.5703679 L1007.79797,109 Z M1054.30333,64.9240224 L1041.2144,64.9240224 L1041.2144,109 L1026.09272,109 L1026.09272,64.9240224 L1017.76341,64.9240224 L1017.76341,57.6358687 L1026.09272,53.5703679 L1026.09272,49.5048672 C1026.09272,43.191741 1027.64619,38.5809143 1030.75318,35.6722488 C1033.86016,32.7635833 1038.83456,31.3092724 1045.67654,31.3092724 C1050.89892,31.3092724 1055.54279,32.0860066 1059.60832,33.6394984 L1055.74113,44.7452566 C1052.70025,43.7867191 1049.89079,43.3074575 1047.31265,43.3074575 C1045.16421,43.3074575 1043.61074,43.9437185 1042.6522,45.2162597 C1041.69367,46.4888008 1041.2144,48.1166375 1041.2144,50.0998185 L1041.2144,53.5703679 L1054.30333,53.5703679 L1054.30333,64.9240224 Z M1085.93491,63.2879063 C1082.72877,63.2879063 1080.21678,64.3042713 1078.39886,66.3370318 C1076.58095,68.3697924 1075.53979,71.2536248 1075.27537,74.9886157 L1096.4953,74.9886157 C1096.42919,71.2536248 1095.45414,68.3697924 1093.57012,66.3370318 C1091.6861,64.3042713 1089.14105,63.2879063 1085.93491,63.2879063 Z M1088.06682,109.991586 C1079.14251,109.991586 1072.16842,107.529173 1067.14437,102.604273 C1062.12031,97.6793737 1059.60832,90.7052918 1059.60832,81.6818182 C1059.60832,72.3939205 1061.93025,65.2132603 1066.5742,60.1396222 C1071.21815,55.0659841 1077.6386,52.5292031 1085.83575,52.5292031 C1093.66932,52.5292031 1099.76751,54.7602483 1104.13051,59.2224055 C1108.4935,63.6845628 1110.67497,69.848858 1110.67497,77.715476 L1110.67497,85.053209 L1074.92831,85.053209 C1075.09358,89.3501012 1076.3661,92.7049321 1078.74592,95.1178023 C1081.12573,97.5306726 1084.46404,98.7370896 1088.76093,98.7370896 C1092.09929,98.7370896 1095.2558,98.3900381 1098.23057,97.6959248 C1101.20534,97.0018114 1104.31228,95.894552 1107.55148,94.3741132 L1107.55148,106.074823 C1104.90724,107.396943 1102.08124,108.380256 1099.07342,109.02479 C1096.0656,109.669323 1092.39677,109.991586 1088.06682,109.991586 Z" id="Designcreatemylife" transform="translate(559.898779, 82.351138) rotate(-360.000000) translate(-559.898779, -82.351138) "></path>
                    </g>
                    <path d="M-63.758,298 L-63.758,297.3115 L-61.5305,297.3115 L-61.5305,289.306 L-63.245,289.306 L-63.245,288.7795 C-62.4485,288.6445 -61.841,288.4285 -61.3685,288.1585 L-60.734,288.1585 L-60.734,297.3115 L-58.682,297.3115 L-58.682,298 L-63.758,298 Z M-44.5541394,293.5855 C-43.8251394,293.5855 -43.0016394,293.167 -42.2591394,292.141 C-42.3401394,289.9945 -43.1231394,288.631 -44.6621394,288.631 C-45.7286394,288.631 -46.5251394,289.6975 -46.5251394,291.1285 C-46.5251394,292.546 -45.9176394,293.5855 -44.5541394,293.5855 Z M-47.1056394,297.2305 L-46.6331394,296.7175 C-46.1876394,297.2305 -45.5936394,297.5005 -44.9186394,297.5005 C-43.5551394,297.5005 -42.3266394,296.3125 -42.2456394,292.9105 C-42.8936394,293.6935 -43.7306394,294.22 -44.6486394,294.22 C-46.2956394,294.22 -47.3081394,293.1265 -47.3081394,291.1285 C-47.3081394,289.279 -46.0796394,287.983 -44.6486394,287.983 C-42.7451394,287.983 -41.4761394,289.576 -41.4761394,292.546 C-41.4761394,296.6905 -43.1366394,298.1755 -44.9321394,298.1755 C-45.8906394,298.1755 -46.5791394,297.784 -47.1056394,297.2305 Z M-27.1997788,298.1755 C-28.9682788,298.1755 -30.2507788,297.055 -30.2507788,295.5565 C-30.2507788,294.2065 -29.2787788,293.248 -28.3742788,292.7485 L-28.3742788,292.6945 C-29.0762788,292.222 -29.7242788,291.493 -29.7242788,290.4535 C-29.7242788,289.0225 -28.6172788,288.0235 -27.1862788,288.0235 C-25.5527788,288.0235 -24.5807788,289.117 -24.5807788,290.602 C-24.5807788,291.6685 -25.3772788,292.6 -25.9307788,293.0455 L-25.9307788,293.113 C-25.0937788,293.6125 -24.2567788,294.328 -24.2567788,295.678 C-24.2567788,297.0685 -25.4447788,298.1755 -27.1997788,298.1755 Z M-26.5112788,292.8295 C-25.7282788,292.1815 -25.3097788,291.439 -25.3097788,290.629 C-25.3097788,289.5625 -25.9982788,288.658 -27.1997788,288.658 C-28.2257788,288.658 -28.9682788,289.414 -28.9682788,290.4535 C-28.9682788,291.79 -27.7397788,292.3435 -26.5112788,292.8295 Z M-27.1997788,297.541 C-25.8902788,297.541 -25.0397788,296.7175 -25.0397788,295.6645 C-25.0397788,294.166 -26.4167788,293.626 -27.9017788,293.0455 C-28.8332788,293.599 -29.5082788,294.4495 -29.5082788,295.516 C-29.5082788,296.6635 -28.5362788,297.541 -27.1997788,297.541 Z M-10.1289181,298.1755 C-11.8974181,298.1755 -13.1799181,297.055 -13.1799181,295.5565 C-13.1799181,294.2065 -12.2079181,293.248 -11.3034181,292.7485 L-11.3034181,292.6945 C-12.0054181,292.222 -12.6534181,291.493 -12.6534181,290.4535 C-12.6534181,289.0225 -11.5464181,288.0235 -10.1154181,288.0235 C-8.48191815,288.0235 -7.50991815,289.117 -7.50991815,290.602 C-7.50991815,291.6685 -8.30641815,292.6 -8.85991815,293.0455 L-8.85991815,293.113 C-8.02291815,293.6125 -7.18591815,294.328 -7.18591815,295.678 C-7.18591815,297.0685 -8.37391815,298.1755 -10.1289181,298.1755 Z M-9.44041815,292.8295 C-8.65741815,292.1815 -8.23891815,291.439 -8.23891815,290.629 C-8.23891815,289.5625 -8.92741815,288.658 -10.1289181,288.658 C-11.1549181,288.658 -11.8974181,289.414 -11.8974181,290.4535 C-11.8974181,291.79 -10.6689181,292.3435 -9.44041815,292.8295 Z M-10.1289181,297.541 C-8.81941815,297.541 -7.96891815,296.7175 -7.96891815,295.6645 C-7.96891815,294.166 -9.34591815,293.626 -10.8309181,293.0455 C-11.7624181,293.599 -12.4374181,294.4495 -12.4374181,295.516 C-12.4374181,296.6635 -11.4654181,297.541 -10.1289181,297.541 Z M3.89094247,294.598 L3.89094247,293.9365 L7.21194247,293.9365 L7.21194247,294.598 L3.89094247,294.598 Z M18.2348031,298 L18.2348031,297.514 C21.5693031,294.6385 22.8923031,292.6135 22.8923031,290.8315 C22.8923031,289.603 22.2713031,288.6445 20.8808031,288.6445 C20.0303031,288.6445 19.2608031,289.171 18.6938031,289.873 L18.1943031,289.4005 C18.9368031,288.577 19.7738031,287.983 20.9618031,287.983 C22.6763031,287.983 23.6888031,289.1035 23.6888031,290.8045 C23.6888031,292.87 22.0958031,294.9355 19.4768031,297.379 C20.0168031,297.3385 20.5838031,297.298 21.0968031,297.298 L24.1613031,297.298 L24.1613031,298 L18.2348031,298 Z M38.3161637,298.1755 C36.5206637,298.1755 35.4136637,296.5015 35.4136637,293.0455 C35.4136637,289.63 36.5206637,287.983 38.3161637,287.983 C40.0981637,287.983 41.2051637,289.63 41.2051637,293.0455 C41.2051637,296.5015 40.0981637,298.1755 38.3161637,298.1755 Z M38.3161637,297.514 C39.5851637,297.514 40.4221637,296.029 40.4221637,293.0455 C40.4221637,290.116 39.5851637,288.6445 38.3161637,288.6445 C37.0336637,288.6445 36.1966637,290.116 36.1966637,293.0455 C36.1966637,296.029 37.0336637,297.514 38.3161637,297.514 Z M53.0110243,298 L53.0110243,297.3115 L55.2385243,297.3115 L55.2385243,289.306 L53.5240243,289.306 L53.5240243,288.7795 C54.3205243,288.6445 54.9280243,288.4285 55.4005243,288.1585 L56.0350243,288.1585 L56.0350243,297.3115 L58.0870243,297.3115 L58.0870243,298 L53.0110243,298 Z M72.2148849,293.5855 C72.9438849,293.5855 73.7673849,293.167 74.5098849,292.141 C74.4288849,289.9945 73.6458849,288.631 72.1068849,288.631 C71.0403849,288.631 70.2438849,289.6975 70.2438849,291.1285 C70.2438849,292.546 70.8513849,293.5855 72.2148849,293.5855 Z M69.6633849,297.2305 L70.1358849,296.7175 C70.5813849,297.2305 71.1753849,297.5005 71.8503849,297.5005 C73.2138849,297.5005 74.4423849,296.3125 74.5233849,292.9105 C73.8753849,293.6935 73.0383849,294.22 72.1203849,294.22 C70.4733849,294.22 69.4608849,293.1265 69.4608849,291.1285 C69.4608849,289.279 70.6893849,287.983 72.1203849,287.983 C74.0238849,287.983 75.2928849,289.576 75.2928849,292.546 C75.2928849,296.6905 73.6323849,298.1755 71.8368849,298.1755 C70.8783849,298.1755 70.1898849,297.784 69.6633849,297.2305 Z" id="1988-2019" transform="translate(5.767442, 293.079250) rotate(-270.000000) translate(-5.767442, -293.079250) "></path>
                    <path d="M42.154768,363 L42.154768,348.180888 L46.240696,348.180888 C49.228912,348.180888 51.1804,349.2786 51.1804,351.778944 C51.1804,353.303544 50.387608,354.56388 48.903664,355.011096 L48.903664,355.112736 C50.814496,355.437984 52.074832,356.637336 52.074832,358.670136 C52.074832,361.536384 49.879408,363 46.545616,363 L42.154768,363 Z M43.374448,354.645192 L45.854464,354.645192 C48.781696,354.645192 49.96072,353.608464 49.96072,351.92124 C49.96072,349.908768 48.598744,349.17696 45.976432,349.17696 L43.374448,349.17696 L43.374448,354.645192 Z M43.374448,361.9836 L46.261024,361.9836 C49.127272,361.9836 50.87548,360.9672 50.87548,358.670136 C50.87548,356.59668 49.208584,355.620936 46.261024,355.620936 L43.374448,355.620936 L43.374448,361.9836 Z M66.410761,363.264264 C64.662553,363.264264 63.259921,362.28852 63.259921,360.276048 C63.259921,357.877344 65.394361,356.738976 70.171441,356.19012 C70.212097,354.584208 69.744553,352.917312 67.691425,352.917312 C66.268465,352.917312 65.028457,353.588136 64.276321,354.15732 L63.747793,353.303544 C64.581241,352.73436 66.085513,351.880584 67.854049,351.880584 C70.435705,351.880584 71.350465,353.730432 71.350465,356.129136 L71.350465,363 L70.354393,363 L70.232425,361.617696 L70.191769,361.617696 C69.094057,362.512128 67.793065,363.264264 66.410761,363.264264 Z M66.654697,362.268192 C67.854049,362.268192 68.890777,361.699008 70.171441,360.580968 L70.171441,357.064224 C65.902561,357.552096 64.438945,358.548168 64.438945,360.215064 C64.438945,361.699008 65.455345,362.268192 66.654697,362.268192 Z M86.723122,363.264264 C85.137538,363.264264 83.714578,362.59344 82.738834,361.78032 L83.369002,360.926544 C84.30409,361.719336 85.300162,362.28852 86.784106,362.28852 C88.430674,362.28852 89.264122,361.353432 89.264122,360.235392 C89.264122,358.954728 87.902146,358.365216 86.64181,357.918 C85.035898,357.348816 83.247034,356.677992 83.247034,354.807816 C83.247034,353.222232 84.527698,351.880584 86.804434,351.880584 C87.983458,351.880584 89.142154,352.388784 89.955274,353.03928 L89.345434,353.8524 C88.613626,353.303544 87.820834,352.876656 86.763778,352.876656 C85.157866,352.876656 84.426058,353.771088 84.426058,354.746832 C84.426058,355.946184 85.686394,356.3934 86.94673,356.860944 C88.613626,357.491112 90.443146,358.080624 90.443146,360.174408 C90.443146,361.841304 89.121826,363.264264 86.723122,363.264264 Z M106.324003,363.264264 C103.539067,363.264264 101.282659,361.150152 101.282659,357.592752 C101.282659,354.076008 103.579723,351.880584 106.039411,351.880584 C108.661723,351.880584 110.226979,353.75076 110.226979,356.921928 C110.226979,357.226848 110.206651,357.51144 110.165995,357.775704 L102.482011,357.775704 C102.542995,360.418344 104.108251,362.268192 106.445971,362.268192 C107.604667,362.268192 108.519427,361.902288 109.332547,361.333104 L109.779763,362.207208 C108.905659,362.756064 107.889259,363.264264 106.324003,363.264264 Z M102.482011,356.840616 L109.149595,356.840616 C109.149595,354.218304 107.950243,352.896984 106.059739,352.896984 C104.291203,352.896984 102.705619,354.3606 102.482011,356.840616 Z M125.640292,363.264264 C122.91634,363.264264 121.147804,361.231464 121.147804,357.592752 C121.147804,354.096336 123.383884,351.880584 125.945212,351.880584 C127.246204,351.880584 128.120308,352.368456 129.177364,353.201904 L129.096052,351.250416 L129.096052,346.83924 L130.275076,346.83924 L130.275076,363 L129.299332,363 L129.157036,361.638024 L129.11638,361.638024 C128.242276,362.512128 127.042924,363.264264 125.640292,363.264264 Z M125.843572,362.227536 C127.002268,362.227536 128.018668,361.638024 129.096052,360.519984 L129.096052,354.25896 C127.99834,353.283216 127.08358,352.917312 126.06718,352.917312 C123.993724,352.917312 122.40814,354.929784 122.40814,357.592752 C122.40814,360.398016 123.648148,362.227536 125.843572,362.227536 Z M156.710854,363 L156.710854,352.165176 L157.889878,352.165176 L157.889878,363 L156.710854,363 Z M157.320694,349.624176 C156.771838,349.624176 156.324622,349.237944 156.324622,348.689088 C156.324622,348.079248 156.771838,347.713344 157.320694,347.713344 C157.849222,347.713344 158.316766,348.079248 158.316766,348.689088 C158.316766,349.237944 157.849222,349.624176 157.320694,349.624176 Z M170.863831,363 L170.863831,352.165176 L171.839575,352.165176 L171.981871,353.811744 L172.022527,353.811744 C173.120239,352.73436 174.238279,351.880584 175.722223,351.880584 C177.978631,351.880584 179.015359,353.283216 179.015359,356.068152 L179.015359,363 L177.836335,363 L177.836335,356.230776 C177.836335,353.974368 177.124855,352.93764 175.457959,352.93764 C174.197623,352.93764 173.303191,353.588136 172.042855,354.889128 L172.042855,363 L170.863831,363 Z M208.195417,363 L203.337025,348.180888 L204.638017,348.180888 L207.300985,356.69832 C207.849841,358.487184 208.236073,359.869488 208.825585,361.658352 L208.906897,361.658352 C209.516737,359.869488 209.902969,358.487184 210.472153,356.69832 L213.114793,348.180888 L214.354801,348.180888 L209.537065,363 L208.195417,363 Z M227.430394,363.264264 C225.682186,363.264264 224.279554,362.28852 224.279554,360.276048 C224.279554,357.877344 226.413994,356.738976 231.191074,356.19012 C231.23173,354.584208 230.764186,352.917312 228.711058,352.917312 C227.288098,352.917312 226.04809,353.588136 225.295954,354.15732 L224.767426,353.303544 C225.600874,352.73436 227.105146,351.880584 228.873682,351.880584 C231.455338,351.880584 232.370098,353.730432 232.370098,356.129136 L232.370098,363 L231.374026,363 L231.252058,361.617696 L231.211402,361.617696 C230.11369,362.512128 228.812698,363.264264 227.430394,363.264264 Z M227.67433,362.268192 C228.873682,362.268192 229.91041,361.699008 231.191074,360.580968 L231.191074,357.064224 C226.922194,357.552096 225.458578,358.548168 225.458578,360.215064 C225.458578,361.699008 226.474978,362.268192 227.67433,362.268192 Z M245.079787,363 L245.079787,352.165176 L246.055531,352.165176 L246.197827,353.811744 L246.238483,353.811744 C247.336195,352.73436 248.454235,351.880584 249.938179,351.880584 C252.194587,351.880584 253.231315,353.283216 253.231315,356.068152 L253.231315,363 L252.052291,363 L252.052291,356.230776 C252.052291,353.974368 251.340811,352.93764 249.673915,352.93764 C248.413579,352.93764 247.519147,353.588136 246.258811,354.889128 L246.258811,363 L245.079787,363 Z M270.128572,363.264264 C267.30298,363.264264 265.16854,361.190808 265.16854,357.592752 C265.16854,353.974368 267.50626,351.880584 270.189556,351.880584 C271.632844,351.880584 272.608588,352.53108 273.360724,353.201904 L272.6899,354.015024 C272.019076,353.384856 271.226284,352.917312 270.209884,352.917312 C268.055116,352.917312 266.408548,354.828144 266.408548,357.592752 C266.408548,360.35736 267.91282,362.247864 270.189556,362.247864 C271.307596,362.247864 272.28334,361.699008 273.015148,361.048512 L273.584332,361.861632 C272.649244,362.674752 271.490548,363.264264 270.128572,363.264264 Z M288.713053,363.264264 C286.090741,363.264264 283.814005,361.190808 283.814005,357.592752 C283.814005,353.974368 286.090741,351.880584 288.713053,351.880584 C291.335365,351.880584 293.612101,353.974368 293.612101,357.592752 C293.612101,361.190808 291.335365,363.264264 288.713053,363.264264 Z M288.713053,362.247864 C290.827165,362.247864 292.392421,360.35736 292.392421,357.592752 C292.392421,354.828144 290.827165,352.917312 288.713053,352.917312 C286.598941,352.917312 285.054013,354.828144 285.054013,357.592752 C285.054013,360.35736 286.598941,362.247864 288.713053,362.247864 Z M308.822134,363.264264 C306.565726,363.264264 305.549326,361.88196 305.549326,359.097024 L305.549326,352.165176 L306.72835,352.165176 L306.72835,358.954728 C306.72835,361.17048 307.419502,362.207208 309.086398,362.207208 C310.346734,362.207208 311.241166,361.556712 312.460846,360.093096 L312.460846,352.165176 L313.63987,352.165176 L313.63987,363 L312.643798,363 L312.542158,361.211136 L312.481174,361.211136 C311.424118,362.430816 310.326406,363.264264 308.822134,363.264264 Z M328.890559,363 L324.865615,352.165176 L326.146279,352.165176 L328.483999,358.812432 C328.829575,359.869488 329.195479,360.9672 329.561383,361.942944 L329.642695,361.942944 C329.988271,360.9672 330.374503,359.869488 330.720079,358.812432 L333.078127,352.165176 L334.277479,352.165176 L330.293191,363 L328.890559,363 Z M349.650136,363.264264 C346.8652,363.264264 344.608792,361.150152 344.608792,357.592752 C344.608792,354.076008 346.905856,351.880584 349.365544,351.880584 C351.987856,351.880584 353.553112,353.75076 353.553112,356.921928 C353.553112,357.226848 353.532784,357.51144 353.492128,357.775704 L345.808144,357.775704 C345.869128,360.418344 347.434384,362.268192 349.772104,362.268192 C350.9308,362.268192 351.84556,361.902288 352.65868,361.333104 L353.105896,362.207208 C352.231792,362.756064 351.215392,363.264264 349.650136,363.264264 Z M345.808144,356.840616 L352.475728,356.840616 C352.475728,354.218304 351.276376,352.896984 349.385872,352.896984 C347.617336,352.896984 346.031752,354.3606 345.808144,356.840616 Z M365.368369,363 L365.368369,352.165176 L366.344113,352.165176 L366.486409,354.177648 L366.527065,354.177648 C367.258873,352.815672 368.336257,351.880584 369.596593,351.880584 C370.023481,351.880584 370.348729,351.941568 370.694305,352.12452 L370.450369,353.181576 C370.084465,353.03928 369.881185,352.998624 369.454297,352.998624 C368.498881,352.998624 367.340185,353.710104 366.547393,355.722576 L366.547393,363 L365.368369,363 Z M397.435003,363.264264 C395.686795,363.264264 394.284163,362.28852 394.284163,360.276048 C394.284163,357.877344 396.418603,356.738976 401.195683,356.19012 C401.236339,354.584208 400.768795,352.917312 398.715667,352.917312 C397.292707,352.917312 396.052699,353.588136 395.300563,354.15732 L394.772035,353.303544 C395.605483,352.73436 397.109755,351.880584 398.878291,351.880584 C401.459947,351.880584 402.374707,353.730432 402.374707,356.129136 L402.374707,363 L401.378635,363 L401.256667,361.617696 L401.216011,361.617696 C400.118299,362.512128 398.817307,363.264264 397.435003,363.264264 Z M397.678939,362.268192 C398.878291,362.268192 399.915019,361.699008 401.195683,360.580968 L401.195683,357.064224 C396.926803,357.552096 395.463187,358.548168 395.463187,360.215064 C395.463187,361.699008 396.479587,362.268192 397.678939,362.268192 Z M415.084396,363 L415.084396,352.165176 L416.06014,352.165176 L416.202436,353.811744 L416.243092,353.811744 C417.340804,352.73436 418.458844,351.880584 419.942788,351.880584 C422.199196,351.880584 423.235924,353.283216 423.235924,356.068152 L423.235924,363 L422.0569,363 L422.0569,356.230776 C422.0569,353.974368 421.34542,352.93764 419.678524,352.93764 C418.418188,352.93764 417.523756,353.588136 416.26342,354.889128 L416.26342,363 L415.084396,363 Z M439.665637,363.264264 C436.941685,363.264264 435.173149,361.231464 435.173149,357.592752 C435.173149,354.096336 437.409229,351.880584 439.970557,351.880584 C441.271549,351.880584 442.145653,352.368456 443.202709,353.201904 L443.121397,351.250416 L443.121397,346.83924 L444.300421,346.83924 L444.300421,363 L443.324677,363 L443.182381,361.638024 L443.141725,361.638024 C442.267621,362.512128 441.068269,363.264264 439.665637,363.264264 Z M439.868917,362.227536 C441.027613,362.227536 442.044013,361.638024 443.121397,360.519984 L443.121397,354.25896 C442.023685,353.283216 441.108925,352.917312 440.092525,352.917312 C438.019069,352.917312 436.433485,354.929784 436.433485,357.592752 C436.433485,360.398016 437.673493,362.227536 439.868917,362.227536 Z M474.009007,363 L474.009007,349.217616 L469.353895,349.217616 L469.353895,348.180888 L479.924455,348.180888 L479.924455,349.217616 L475.249015,349.217616 L475.249015,363 L474.009007,363 Z M494.158744,363.264264 C491.536432,363.264264 489.259696,361.190808 489.259696,357.592752 C489.259696,353.974368 491.536432,351.880584 494.158744,351.880584 C496.781056,351.880584 499.057792,353.974368 499.057792,357.592752 C499.057792,361.190808 496.781056,363.264264 494.158744,363.264264 Z M494.158744,362.247864 C496.272856,362.247864 497.838112,360.35736 497.838112,357.592752 C497.838112,354.828144 496.272856,352.917312 494.158744,352.917312 C492.044632,352.917312 490.499704,354.828144 490.499704,357.592752 C490.499704,360.35736 492.044632,362.247864 494.158744,362.247864 Z M511.157641,363 L511.157641,346.83924 L512.336665,346.83924 L512.336665,358.548168 L512.377321,358.548168 L517.560961,352.165176 L518.902609,352.165176 L515.365537,356.454384 L519.471793,363 L518.170801,363 L514.674385,357.30816 L512.336665,360.072768 L512.336665,363 L511.157641,363 Z M530.37229,367.87872 C529.945402,367.87872 529.518514,367.797408 529.213594,367.655112 L529.477858,366.65904 C529.701466,366.740352 530.047042,366.821664 530.351962,366.821664 C531.652954,366.821664 532.527058,365.64264 533.055586,364.077384 L533.340178,363.162624 L528.908674,352.165176 L530.189338,352.165176 L532.71001,358.792104 C533.055586,359.727192 533.462146,360.86556 533.848378,361.841304 L533.950018,361.841304 C534.275266,360.86556 534.620842,359.727192 534.925762,358.792104 L537.141514,352.165176 L538.340866,352.165176 L534.112642,364.260336 C533.462146,366.130512 532.364434,367.87872 530.37229,367.87872 Z M553.571227,363.264264 C550.948915,363.264264 548.672179,361.190808 548.672179,357.592752 C548.672179,353.974368 550.948915,351.880584 553.571227,351.880584 C556.193539,351.880584 558.470275,353.974368 558.470275,357.592752 C558.470275,361.190808 556.193539,363.264264 553.571227,363.264264 Z M553.571227,362.247864 C555.685339,362.247864 557.250595,360.35736 557.250595,357.592752 C557.250595,354.828144 555.685339,352.917312 553.571227,352.917312 C551.457115,352.917312 549.912187,354.828144 549.912187,357.592752 C549.912187,360.35736 551.457115,362.247864 553.571227,362.247864 Z" id="BasedinVancouverandTokyo"></path>
                </g>
            </g>
        </g>
    </g>
</svg>