<?xml version="1.0" encoding="UTF-8"?>
<svg width="1167px" height="471px" viewBox="0 0 1167 471" version="1.1" xmlns="http://www.w3.org/2000/svg" xmlns:xlink="http://www.w3.org/1999/xlink">
    <!-- Generator: Sketch 55.2 (78181) - https://sketchapp.com -->
    <title>hero</title>
    <desc>Created with Sketch.</desc>
    <g id="Page-1" stroke="none" stroke-width="1" fill="none" fill-rule="evenodd">
        <g id="home" transform="translate(-402.000000, -289.000000)" fill="#1A1A1A">
            <g id="hero" transform="translate(-73.000000, -161.000000)">
                <g id="maintitle" transform="translate(1379.000000, 450.000000)" fill-rule="nonzero">
                    <path d="M14.3198503,31.4703189 L13.4498211,31.8569985 C13.127588,31.1964208 12.5797919,30.2297217 12.1447773,29.6335906 L12.9986948,29.2630226 C13.4014861,29.843042 13.9815056,30.8097412 14.3198503,31.4703189 Z M10.6625053,31.8569985 L5.10398534,31.8569985 C4.57230082,31.8569985 4.04061631,31.8731102 3.62171336,31.9053335 L3.62171336,30.5680664 C4.08895126,30.6164013 4.57230082,30.6647363 5.08787369,30.6647363 L10.6625053,30.6647363 C11.1136315,30.6647363 11.693651,30.632513 12.1608889,30.5680664 L12.1608889,31.9053335 C11.693651,31.8731102 11.1297432,31.8569985 10.6625053,31.8569985 Z M3.12225214,34.6926493 L13.6592726,34.6926493 C13.9976172,34.6926493 14.5293018,34.6765376 14.9159814,34.6282027 L14.9159814,35.9493582 C14.5615251,35.9332465 14.0459522,35.9171349 13.6592726,35.9171349 L9.27690321,35.9171349 C9.22856825,37.6571933 8.97078182,39.1233536 8.32631574,40.3156158 C7.74629627,41.3950965 6.52181072,42.5551355 5.1523203,43.2640482 L3.96005805,42.3779073 C5.2167669,41.8623344 6.37680585,40.9278586 7.00516028,39.9128245 C7.71407296,38.7850089 7.89130114,37.4316301 7.93963609,35.9171349 L3.12225214,35.9171349 C2.62279093,35.9171349 2.15555302,35.9171349 1.72053842,35.9493582 L1.72053842,34.6282027 C2.15555302,34.660426 2.62279093,34.6926493 3.12225214,34.6926493 Z M13.917059,28.9730128 L14.7709765,28.6185565 C15.1898795,29.198576 15.8182339,30.21361 16.1243553,30.8097412 L15.2543261,31.1964208 C14.8998698,30.4875081 14.3842969,29.5852556 13.917059,28.9730128 Z M14.1265105,68.2920132 L13.3370395,68.5659112 C13.0953647,67.8731102 12.7247967,66.9064111 12.4186753,66.2941683 L13.1920346,66.0524935 C13.4820444,66.632513 13.917059,67.6314354 14.1265105,68.2920132 Z M11.6614277,69.4359404 L13.4175978,69.4359404 C14.1426221,69.4359404 14.6743066,69.3876055 14.8998698,69.3392705 L14.8998698,70.708761 C14.7226416,70.6926493 14.1426221,70.660426 13.4337094,70.660426 L11.6614277,70.660426 L11.6614277,71.2243338 C11.6614277,75.5100332 10.7269519,77.7173296 7.05349523,79.3768297 L5.97401455,78.345684 C8.90633521,77.23398 10.3563839,75.8483779 10.3563839,71.3371154 L10.3563839,70.660426 L5.78067472,70.660426 L5.78067472,73.2705136 C5.78067472,73.8666447 5.82900968,74.5755574 5.84512133,74.7205623 L4.4111843,74.7205623 C4.42729596,74.5755574 4.49174256,73.8827564 4.49174256,73.2705136 L4.49174256,70.660426 L2.75168415,70.660426 C2.04277146,70.660426 1.31774712,70.708761 1.14051895,70.708761 L1.14051895,69.3231589 C1.28552382,69.3553822 2.07499476,69.4359404 2.75168415,69.4359404 L4.49174256,69.4359404 L4.49174256,67.373649 C4.49174256,66.8419645 4.44340761,66.3425033 4.4111843,66.1974984 L5.84512133,66.1974984 C5.82900968,66.3425033 5.78067472,66.8097412 5.78067472,67.3575373 L5.78067472,69.4359404 L10.3563839,69.4359404 L10.3563839,67.4219839 C10.3563839,66.7936295 10.3080489,66.261945 10.2919373,66.1008285 L11.741986,66.1008285 C11.7258743,66.261945 11.6614277,66.7936295 11.6614277,67.4219839 L11.6614277,69.4359404 Z M14.0137289,65.8108187 L14.7870882,65.569144 C15.0932096,66.1491634 15.5282242,67.1319742 15.7537873,67.7925519 L14.9643164,68.0503384 C14.7065299,67.3414257 14.3359619,66.4069499 14.0137289,65.8108187 Z M13.1598113,101.762484 L14.2231804,102.729183 C13.1114764,103.856999 11.5647578,105.178154 9.90525764,106.225411 L9.90525764,113.121198 C9.90525764,113.733441 9.93748094,114.522912 10.0019275,114.845145 L8.42298565,114.845145 C8.47132061,114.539024 8.51965556,113.733441 8.51965556,113.121198 L8.51965556,107.030994 C6.7957088,107.981581 4.57230082,108.916057 2.46167441,109.544412 L1.72053842,108.287703 C4.4111843,107.659348 7.15016514,106.434863 8.92244686,105.323159 C10.5658354,104.308125 12.2575588,102.906411 13.1598113,101.762484 Z M4.008393,138.535843 C5.1523203,139.293091 7.21461175,140.968703 8.11686426,141.870955 L7.10183019,142.885989 C6.29624759,142.048183 4.28229109,140.324236 3.09002884,139.518654 L4.008393,138.535843 Z M2.62279093,149.33065 C5.44233003,148.911747 7.53684479,147.928936 9.06745173,146.978349 C11.5486461,145.415518 13.5142677,143.030994 14.4487435,141.049261 L15.2221028,142.418751 C14.1103988,144.432708 12.2414472,146.623892 9.80858772,148.138388 C8.19742252,149.169533 6.16735437,150.152344 3.47670849,150.651805 L2.62279093,149.33065 Z M16.043797,174.906411 L15.1737678,175.293091 C14.8193115,174.60029 14.287627,173.681926 13.8365007,173.069683 L14.6904183,172.715226 C15.1093212,173.295246 15.7376757,174.31028 16.043797,174.906411 Z M14.239292,175.566989 L13.3531512,175.953668 C13.0309181,175.309202 12.483122,174.326392 12.0481074,173.714149 L12.9020249,173.359692 C13.3048162,173.9236 13.9009473,174.922523 14.239292,175.566989 Z M5.70011646,173.73026 L7.21461175,173.875265 C7.15016514,174.181387 7.06960688,174.50362 7.02127193,174.825853 C6.92460202,175.293091 6.77959715,176.227567 6.60236898,177.081484 C7.34350497,177.017037 8.0040827,176.968703 8.39076235,176.968703 C9.82469938,176.968703 10.9847383,177.53261 10.9847383,179.691572 C10.9847383,181.592747 10.7269519,184.106164 10.0663742,185.443431 C9.55080129,186.506801 8.76133034,186.764587 7.73018462,186.764587 C7.11794184,186.764587 6.3606942,186.651805 5.84512133,186.539024 L5.63566986,185.169533 C6.31235924,185.395097 7.15016514,185.52399 7.6012914,185.52399 C8.18131087,185.52399 8.64854878,185.395097 8.98689347,184.702295 C9.50246634,183.638926 9.74414112,181.560523 9.74414112,179.836577 C9.74414112,178.386528 9.08356338,178.128741 8.05241766,178.128741 C7.66573801,178.128741 7.03738358,178.177076 6.34458254,178.241523 C5.76456307,180.529378 4.66897074,184.122276 2.99335893,186.79681 L1.68831512,186.265126 C3.31559197,184.090053 4.49174256,180.497154 5.03953873,178.370416 C4.20173283,178.450975 3.44448518,178.531533 3.02558223,178.579868 C2.63890258,178.628203 1.9944365,178.692649 1.5916452,178.773208 L1.46275199,177.371494 C1.9622132,177.387605 2.3650045,177.387605 2.88057736,177.371494 C3.41226188,177.355382 4.33062604,177.274824 5.29732516,177.194266 C5.52288829,176.050338 5.71622812,174.809741 5.70011646,173.73026 Z M11.5164228,176.243678 L12.6925734,175.695882 C13.6914959,176.984814 15.0770979,179.884912 15.6087824,181.367184 L14.3681852,181.979426 C13.8848357,180.336038 12.6281268,177.548722 11.5164228,176.243678 Z M7.58517975,205.359692 L8.90633521,205.359692 C8.89022356,205.569144 8.89022356,205.82693 8.87411191,206.100828 C9.01911678,208.227567 9.88914598,215.67115 15.9471271,218.442354 C15.6087824,218.70014 15.2382144,219.102932 15.0609863,219.425165 C10.9041801,217.459543 9.13189834,213.33496 8.35853904,210.11263 C7.64962636,213.33496 5.9901262,217.217868 1.91387824,219.425165 C1.70442677,219.135155 1.31774712,218.764587 0.947179124,218.506801 C7.47239818,215.171689 7.47239818,207.486431 7.58517975,205.359692 Z M9.05134008,253.910669 L15.5765591,253.910669 L15.5765591,255.070708 L1.30163547,255.070708 L1.30163547,253.910669 L7.82685453,253.910669 L7.82685453,249.81831 L3.04169388,249.81831 L3.04169388,248.658271 L7.82685453,248.658271 L7.82685453,245.145931 L4.04061631,245.145931 C3.52504344,246.160965 2.96113562,247.047106 2.34889285,247.77213 C2.12332972,247.57879 1.5916452,247.224334 1.26941216,247.063217 C2.59056763,245.645392 3.62171336,243.421984 4.25006778,241.134129 L5.45844168,241.391916 C5.20065525,242.278057 4.91064552,243.148086 4.55618917,243.96978 L7.82685453,243.96978 L7.82685453,240.876343 L9.05134008,240.876343 L9.05134008,243.96978 L14.8193115,243.96978 L14.8193115,245.145931 L9.05134008,245.145931 L9.05134008,248.658271 L14.2231804,248.658271 L14.2231804,249.81831 L9.05134008,249.81831 L9.05134008,253.910669 Z M9.88914598,288.170611 L8.64854878,288.170611 C8.69688374,287.558368 8.71299539,286.527222 8.71299539,285.689417 C7.2307234,286.494999 6.19957768,287.316693 6.19957768,288.363951 C6.19957768,289.62066 7.44017488,289.797888 9.08356338,289.797888 C10.3241606,289.797888 12.0319957,289.652883 13.4337094,289.411208 L13.4014861,290.716252 C12.1931122,290.861257 10.4208305,290.974038 9.03522843,290.974038 C6.74737384,290.974038 4.91064552,290.490689 4.91064552,288.541179 C4.91064552,286.656116 6.81182045,285.463853 8.66466043,284.497154 C8.50354391,283.836577 7.92352444,283.514344 7.2307234,283.514344 C6.18346602,283.514344 5.2167669,284.029916 4.47563091,284.690494 C4.02450466,285.125509 3.5733784,285.72164 3.02558223,286.366106 L1.9299899,285.544412 C3.96005805,283.57879 5.00731543,281.935402 5.60344655,280.678693 L4.94286882,280.678693 C4.26617944,280.678693 3.18669875,280.646469 2.31666954,280.582023 L2.31666954,279.373649 C3.1705871,279.470319 4.28229109,279.534766 5.00731543,279.534766 C5.34566012,279.534766 5.68400481,279.534766 6.05457281,279.518654 C6.28013594,278.809741 6.4251408,278.084717 6.45736411,277.536921 L7.77851957,277.649702 C7.66573801,278.100828 7.52073314,278.761406 7.29517001,279.486431 C8.92244686,279.405872 10.6625053,279.260867 12.1770006,279.003081 L12.1608889,280.195343 C10.581947,280.437018 8.61632548,280.582023 6.87626706,280.646469 C6.52181072,281.468164 6.0223495,282.354305 5.44233003,283.095441 C6.0223495,282.724873 6.94071367,282.499309 7.64962636,282.499309 C8.68077208,282.499309 9.51857799,282.998771 9.76025277,283.949358 C10.8558451,283.433785 11.8225442,283.047106 12.6603501,282.660426 C13.1436997,282.450975 13.5303793,282.257635 13.9815056,282.032072 L14.4970785,283.240445 C14.0942872,283.353227 13.5142677,283.57879 13.0953647,283.739907 C12.1931122,284.094363 11.0491849,284.561601 9.84081103,285.125509 C9.85692268,286.043873 9.87303433,287.397252 9.88914598,288.170611 Z M7.92352444,318.595979 L3.70227162,318.595979 L3.70227162,319.514344 L7.92352444,319.514344 L7.92352444,318.595979 Z M3.68615996,321.23829 L7.92352444,321.23829 L7.92352444,320.303815 L3.70227162,320.303815 L3.70227162,320.319926 C3.70227162,320.609936 3.70227162,320.916057 3.68615996,321.23829 Z M8.18131087,324.057829 L4.47563091,324.057829 L4.47563091,325.959004 L8.18131087,325.959004 L8.18131087,324.057829 Z M9.00300512,322.140543 L3.6056017,322.140543 C3.5733784,322.462776 3.52504344,322.801121 3.46059684,323.139465 L9.2446799,323.139465 L9.2446799,327.425165 L8.18131087,327.425165 L8.18131087,326.877369 L4.47563091,326.877369 L4.47563091,327.537946 L3.42837353,327.537946 L3.42837353,323.348917 C3.15447545,324.718407 2.65501424,326.104009 1.75276172,327.215713 C1.60775686,326.99015 1.17274225,326.60347 0.947179124,326.474577 C2.46167441,324.637849 2.63890258,322.140543 2.63890258,320.303814 L2.63890258,317.693727 L9.00300512,317.693727 L9.00300512,322.140543 Z M5.16843195,313.021348 L6.26402428,313.021348 C7.45628653,313.9236 8.98689347,315.212532 9.79247607,316.050338 L9.00300512,316.952591 C8.31020409,316.179232 7.00516028,314.922523 5.89345629,314.052494 C5.44233003,314.632513 4.89453386,315.293091 4.23395613,315.937557 L7.95574774,315.937557 L7.95574774,316.807586 L4.04061631,316.807586 L4.04061631,316.130897 C3.38003858,316.759251 2.59056763,317.387605 1.70442677,317.951513 C1.5594219,317.709839 1.1888539,317.307047 0.947179124,317.145931 C2.94502397,315.953668 4.378961,314.326392 5.16843195,313.021348 Z M11.4519762,314.79363 L11.4519762,323.655038 L10.3241606,323.655038 L10.3241606,314.79363 L11.4519762,314.79363 Z M13.917059,313.182464 L15.0770979,313.182464 L15.0770979,325.991228 C15.0770979,326.79681 14.8676465,327.151267 14.3681852,327.360718 C13.868724,327.554058 13.0148065,327.586281 11.5808694,327.57017 C11.5325345,327.264048 11.3391947,326.716252 11.1619665,326.377907 C12.2575588,326.426242 13.2081463,326.410131 13.5142677,326.394019 C13.7881658,326.394019 13.917059,326.297349 13.917059,326.007339 L13.917059,313.182464 Z M2.99335893,355.884912 C3.46059684,355.804353 3.99228135,355.659348 4.47563091,355.498232 C5.6195582,355.143776 8.22964583,354.193188 10.1147091,354.193188 C12.3703404,354.193188 14.0137289,355.546567 14.0137289,357.72164 C14.0137289,360.798965 11.0491849,362.377907 6.74737384,362.635694 L6.23180098,361.395097 C9.67969451,361.282315 12.7086851,360.315616 12.7086851,357.705528 C12.7086851,356.352149 11.6453161,355.369339 10.0180392,355.369339 C8.036306,355.369339 4.55618917,356.819387 3.52504344,357.222179 L2.99335893,355.884912 Z M1.78498503,387.647547 C2.3972278,387.631435 2.89668902,387.599212 3.2028104,387.566989 C4.25006778,387.470319 7.26294671,387.164198 10.1952674,386.922523 C11.9353258,386.777518 13.4337094,386.69696 14.4970785,386.648625 L14.4970785,387.937557 C13.5948259,387.937557 12.1931122,387.953668 11.371418,388.195343 C9.09967504,388.920368 7.73018462,391.337115 7.73018462,393.222179 C7.73018462,396.347839 10.630282,397.33065 13.2242579,397.42732 L12.75702,398.764587 C9.80858772,398.651805 6.44125246,397.072863 6.44125246,393.512188 C6.44125246,391.014882 7.93963609,389.000926 9.40579642,388.130897 C8.0040827,388.292013 3.65393666,388.710916 1.9299899,389.065372 L1.78498503,387.647547 Z M3.99228135,423.131974 C3.92783474,423.518654 3.87949979,424.25979 3.86338814,424.678693 C3.84727648,425.677615 3.86338814,427.143776 3.9761697,428.448819 C4.23395613,431.123354 5.00731543,432.879524 6.13513107,432.879524 C6.95682532,432.879524 7.69796131,431.236135 8.11686426,429.62497 L9.13189834,430.785009 C8.18131087,433.491766 7.1985001,434.410131 6.10290776,434.410131 C4.60452413,434.410131 3.15447545,432.911747 2.71946084,428.771052 C2.55834432,427.38545 2.54223267,425.452052 2.54223267,424.517576 C2.54223267,424.147008 2.52612102,423.486431 2.44556276,423.099751 L3.99228135,423.131974 Z M12.3058938,423.566989 C13.7398308,425.419829 14.8837581,428.690494 15.1093212,431.38114 L13.8042774,431.896713 C13.5303793,429.028839 12.5636802,425.870955 11.0491849,424.002003 L12.3058938,423.566989 Z M8.39076235,469.813999 C8.8418886,469.813999 9.27690321,469.781776 9.66358286,469.71733 C9.51857799,468.460621 8.76133034,467.590592 7.55295644,467.590592 C6.8279321,467.590592 6.28013594,468.025606 6.28013594,468.573402 C6.28013594,469.362873 7.1985001,469.813999 8.39076235,469.813999 Z M11.6775394,458.229722 L12.4186753,459.164198 C12.1286656,459.357537 11.7742093,459.599212 11.5325345,459.77644 C10.7430635,460.372571 8.60021382,462.257635 7.37572827,463.28878 C8.10075261,463.047106 8.82577695,462.950436 9.53468964,462.950436 C12.1931122,462.950436 14.1103988,464.561601 14.1103988,466.720562 C14.1103988,469.298427 11.9675491,470.974038 8.60021382,470.974038 C6.4251408,470.974038 5.08787369,470.007339 5.08787369,468.686184 C5.08787369,467.590592 6.07068446,466.591669 7.55295644,466.591669 C9.55080129,466.591669 10.630282,467.928936 10.8397335,469.411208 C12.0964423,468.927859 12.8214666,468.009494 12.8214666,466.704451 C12.8214666,465.14162 11.2425248,463.997693 9.22856825,463.997693 C6.60236898,463.997693 5.1523203,465.109397 3.12225214,467.171689 L2.18777633,466.221101 C3.50893179,465.125509 5.5551116,463.417674 6.48958741,462.644314 C7.37572827,461.903178 9.35746147,460.227567 10.1469324,459.518654 C9.30912651,459.550877 6.16735437,459.695882 5.34566012,459.744217 C4.97509212,459.760329 4.60452413,459.77644 4.26617944,459.840887 L4.23395613,458.50362 C4.58841248,458.551955 5.03953873,458.551955 5.36177177,458.551955 C6.18346602,458.551955 9.96970424,458.439173 10.8075101,458.358615 C11.2747481,458.31028 11.5003112,458.278057 11.6775394,458.229722 Z" id="デザインが僕の人生を創っている"></path>
                    <path d="M27.9318865,40.3204641 C23.234807,40.3204641 19.4431886,36.5288457 19.4431886,31.8317663 C19.4431886,27.1346868 23.234807,23.3430684 27.9318865,23.3430684 C32.628966,23.3430684 36.4205843,27.1346868 36.4205843,31.8317663 C36.4205843,36.5288457 32.628966,40.3204641 27.9318865,40.3204641 Z M20.1222845,31.8317663 C20.1222845,36.1515703 23.6120825,39.6413683 27.9318865,39.6413683 C32.2516905,39.6413683 35.7414885,36.1515703 35.7414885,31.8317663 C35.7414885,27.5119622 32.2516905,24.0221642 27.9318865,24.0221642 C23.6120825,24.0221642 20.1222845,27.5119622 20.1222845,31.8317663 Z M51.0022809,23.4185235 L59.8682542,38.7736347 L42.1363076,38.7736347 L51.0022809,23.4185235 Z M51.0022809,25.0785355 L43.5699543,37.9436287 L58.4346074,37.9436287 L51.0022809,25.0785355 Z M66.5271661,24.2862571 L81.6181845,24.2862571 L81.6181845,39.3772755 L66.5271661,39.3772755 L66.5271661,24.2862571 Z M67.2062619,24.9653529 L67.2062619,38.6981796 L80.9390886,38.6981796 L80.9390886,24.9653529 L67.2062619,24.9653529 Z" id="○△□" transform="translate(50.530687, 31.831766) rotate(-270.000000) translate(-50.530687, -31.831766) "></path>
                </g>
                <g id="maintext" transform="translate(512.500000, 649.000000)" fill-rule="nonzero">
                    <path d="M31.7875128,24.124656 C31.7875128,28.0463348 30.5744693,32.2504444 28.148346,36.7371108 C25.7222227,41.2237772 22.5151351,45.5940571 18.5269872,49.8480816 C17.397012,51.1109951 15.8848619,52.54006 13.9904916,54.1353192 C12.0961213,55.7305784 10.5175031,56.9270048 9.2545896,57.7246344 C9.12165134,57.7911035 8.75607659,58.023742 8.1578544,58.4225568 C7.55963221,58.8213716 6.92818492,59.0540101 6.2634936,59.1204792 L6.0640872,59.1204792 C6.32996373,60.1839853 6.5626022,60.8819007 6.7620096,61.2142464 C6.961417,61.6130612 7.0611192,61.9786359 7.0611192,62.3109816 C7.0611192,62.9092038 6.87833183,63.4077148 6.5127516,63.8065296 C6.14717137,64.2053444 5.66527739,64.4047488 5.0670552,64.4047488 C4.40236388,64.4047488 3.88723583,64.1554933 3.5216556,63.6569748 C3.15607537,63.1584563 2.90681986,62.5768601 2.7738816,61.9121688 C1.84331375,57.3257987 1.2783346,52.6065611 1.0789272,47.7543144 C0.879519803,42.7691295 0.7798176,37.7840193 0.7798176,32.7988344 C0.7798176,26.8830816 0.945987938,21.8979715 1.2783336,17.8433544 C1.2783336,17.5110087 1.31156767,16.9294126 1.3780368,16.0985484 C1.44450593,15.2676842 1.54420814,14.5199177 1.6771464,13.8552264 C1.74361553,13.5228807 1.79346663,13.0077527 1.8267012,12.3098268 C1.85993577,11.6119009 2.04272314,11.0635388 2.3750688,10.664724 C2.77388359,10.1994401 3.27239461,9.9668016 3.8706168,9.9668016 C4.53530812,9.9668016 5.08367024,10.2160571 5.5157196,10.7145756 C5.94776896,11.2130941 6.0640882,11.7946903 5.8646808,12.4593816 C5.13352034,14.9852086 4.63500933,18.5412539 4.3691328,23.127624 C4.1697254,26.118735 4.0700232,29.3756736 4.0700232,32.8985376 C4.0700232,38.8807595 4.33589574,44.6967214 4.8676488,50.3465976 C4.93411793,51.4101037 5.10028827,53.0718071 5.3661648,55.3317576 L5.5655712,55.2320544 C7.89199083,53.9691409 10.0854393,52.5068419 12.1459824,50.8451136 C16.4000069,47.4551879 20.2219247,43.0018228 23.6118504,37.4848848 C26.7358996,32.4332307 28.2979008,28.0463338 28.2979008,24.3240624 C28.2979008,21.3329514 27.2842617,18.640992 25.2569532,16.2481032 C23.2296447,13.8552144 20.7537066,12.2267451 17.8290648,11.3626464 C16.433213,10.9638316 15.0706162,10.7644272 13.7412336,10.7644272 C12.0130362,10.7644272 10.2516306,11.0635338 8.456964,11.661756 C7.72580354,11.9276325 7.07773922,11.8279303 6.5127516,11.3626464 C5.94776398,10.8973625 5.6652744,10.3323833 5.6652744,9.667692 C5.6652744,8.80359328 6.09731728,8.23861413 6.961416,7.9727376 C8.75608257,7.30804628 10.6836585,6.9757056 12.7442016,6.9757056 C15.93472,6.9757056 18.9922542,7.72347212 21.916896,9.2190276 C24.8415378,10.7145831 27.2177737,12.7750953 29.0456748,15.400626 C30.8735759,18.0261567 31.7875128,20.9341376 31.7875128,24.124656 Z M87.6213048,4.5828288 C87.8207122,4.51635967 88.4023084,4.3834234 89.3661108,4.184016 C90.3299132,3.9846086 91.2770841,3.8849064 92.207652,3.8849064 C94.201726,3.8849064 95.198748,4.54958775 95.198748,5.8789704 C95.198748,6.80953825 94.9494925,7.39113444 94.450974,7.6237764 C93.9524555,7.85641836 93.4040934,7.95612057 92.8058712,7.922886 C92.207649,7.88965143 91.8088402,7.8730344 91.6094328,7.8730344 C90.213581,7.8730344 88.8011331,8.07243881 87.3720468,8.4712536 C85.9429605,8.87006839 85.0954917,9.10270687 84.8296152,9.169176 C79.3126772,10.697966 73.0148214,13.1739041 65.9358588,16.5970644 C58.8568962,20.0202247 51.6617206,23.8919936 44.350116,28.2124872 C43.8183629,28.5448329 43.3198519,28.8771735 42.854568,29.2095192 C42.3892841,29.5418649 41.8907731,29.8742055 41.35902,30.2065512 C41.1596126,30.3394895 40.8106549,30.588745 40.3121364,30.9543252 C39.8136179,31.3199054 39.3317239,31.5026928 38.86644,31.5026928 C38.2682178,31.5026928 37.7863238,31.3032884 37.4207436,30.9044736 C37.0551634,30.5056588 36.872376,30.0403819 36.872376,29.5086288 C36.872376,28.7774683 37.1714826,28.2124892 37.7697048,27.8136744 C44.0178032,23.6925882 52.4094053,19.156138 62.9447628,14.2041876 C73.4801203,9.25223724 81.705552,6.04514971 87.6213048,4.5828288 Z M87.4218984,29.608332 C88.219528,29.4753937 88.8177412,29.4089256 89.216556,29.4089256 C90.0141856,29.4089256 90.5791647,29.6747981 90.9115104,30.2065512 C91.1773869,30.5388969 91.3103232,30.9709397 91.3103232,31.5026928 C91.3103232,32.2338533 90.9779825,32.7988324 90.3132912,33.1976472 C89.9809455,33.3970546 89.4990516,33.4967568 88.8675948,33.4967568 L87.4218984,33.4967568 C86.7572071,33.5632259 86.1589939,33.6629281 85.6272408,33.7958664 C85.0954877,33.9288047 84.6302108,34.0285069 84.231396,34.094976 C79.0468037,35.092013 73.8955232,36.6540142 68.7774,38.7810264 C68.4450543,38.9139647 67.6806708,39.2296883 66.4842264,39.7282068 C65.287782,40.2267253 64.1910578,40.7750874 63.1940208,41.3733096 C62.795206,41.6391861 62.4960994,41.8053565 62.296692,41.8718256 C63.1607907,45.8599735 64.6064727,49.033827 66.6337812,51.3934812 C68.6610897,53.7531354 71.269964,54.9329448 74.4604824,54.9329448 C77.3186551,54.9329448 80.6088278,53.9026887 84.3310992,51.8421456 C85.3946053,51.2439234 86.1589889,50.9448168 86.6242728,50.9448168 C87.0230876,50.9448168 87.3886623,51.0777531 87.721008,51.3436296 C88.1862919,51.8089135 88.4189304,52.3074245 88.4189304,52.8391776 C88.4189304,53.5038689 88.219526,53.9857629 87.8207112,54.284874 C87.4218964,54.5839851 86.7904491,54.9329428 85.9263504,55.3317576 C83.5334616,56.3952637 81.4729494,57.1928813 79.744752,57.7246344 C78.0165546,58.2563875 76.255149,58.52226 74.4604824,58.52226 C70.9376184,58.52226 67.9465523,57.4255358 65.4871944,55.2320544 C63.0278365,53.038573 61.1833457,50.1305921 59.9536668,46.5080244 C58.7239879,42.8854567 58.1091576,38.9472197 58.1091576,34.6931952 C58.1091576,31.1038621 58.4747323,27.8801575 59.2058928,25.0219848 C59.3388311,24.5567009 59.5050014,23.7424662 59.7044088,22.5792564 C59.9038162,21.4160466 60.2361569,20.4356416 60.7014408,19.638012 C61.1002556,18.9733207 61.6652347,18.64098 62.3963952,18.64098 C62.9281483,18.64098 63.4100422,18.8237674 63.8420916,19.1893476 C64.274141,19.5549278 64.4901624,20.0368218 64.4901624,20.635044 L64.290756,21.4326696 C62.5625586,25.4208175 61.6984728,29.8741826 61.6984728,34.7928984 C61.6984728,36.1887502 61.7317069,37.2190063 61.798176,37.8836976 C71.2367928,33.563204 79.7779482,30.8047764 87.4218984,29.608332 Z M153.126307,7.175112 C153.259245,7.57392679 153.325714,7.8730334 153.325714,8.0724408 C153.325714,8.60419386 153.126309,9.08608784 152.727494,9.5181372 C152.32868,9.95018656 151.830169,10.1329739 151.231946,10.0665048 L149.337586,9.9668016 C145.415907,9.9668016 140.663435,10.8973555 135.080028,12.7584912 C129.363683,14.686096 124.179168,16.8463104 119.526329,19.2391992 C116.734625,20.7015201 114.092517,22.2967554 111.599924,24.0249528 C109.107332,25.7531502 107.296075,27.3483855 106.1661,28.8107064 C105.767285,29.4089286 105.567881,29.9074396 105.567881,30.3062544 C105.567881,30.7715383 105.866987,31.3697515 106.46521,32.100912 C107.794592,33.6961712 109.888339,35.2249383 112.746511,36.6872592 C116.335844,38.614864 119.692485,40.1103971 122.816534,41.1739032 C125.940584,42.2374093 129.862204,43.3341336 134.581512,44.4641088 C135.312672,44.5970471 135.94412,44.9127707 136.475873,45.4112892 C137.007626,45.9098077 137.273498,46.4914039 137.273498,47.1560952 C137.273498,47.3555026 137.20703,47.6546092 137.074092,48.053424 C136.209993,50.3133745 131.789862,52.7394614 123.813566,55.3317576 C120.822455,56.2623255 118.230198,56.9934749 116.036717,57.525228 L112.148292,58.3228536 C110.75244,58.522261 109.954823,58.6219632 109.755415,58.6219632 C109.3566,58.6219632 109.057494,58.5887291 108.858086,58.52226 C107.861049,58.3228526 107.362538,57.7578735 107.362538,56.8273056 C107.362538,56.2290834 107.57856,55.7139554 108.010609,55.281906 C108.442659,54.8498566 108.957787,54.6006011 109.556009,54.534132 C112.480651,54.4011937 115.33878,54.0023849 118.130484,53.3376936 C120.456904,52.7394714 123.148863,51.8920027 126.206443,50.795262 C129.264023,49.6985213 131.457472,48.6848823 132.786854,47.7543144 L125.508521,45.7602504 C122.251533,44.6967443 118.695488,43.2842964 114.840278,41.5228644 C110.985069,39.7614324 108.060471,38.083112 106.066397,36.4878528 C103.274693,34.2943714 101.878862,32.2338592 101.878862,30.3062544 C101.878862,28.3121804 103.241459,26.151966 105.966694,23.8255464 C108.691928,21.4991268 112.148271,19.2059761 116.335826,16.9460256 C121.321011,14.2872603 126.837867,11.9110245 132.886558,9.8172468 C138.935249,7.72346913 144.219465,6.51042566 148.739366,6.17808 L150.633727,6.0783768 C151.896641,6.0783768 152.727492,6.44395154 153.126307,7.175112 Z M189.418272,52.7394744 C189.883556,53.2047583 190.116194,53.7032693 190.116194,54.2350224 C190.116194,54.7667755 189.900173,55.2320524 189.468124,55.6308672 C189.036074,56.029682 188.520946,56.2290864 187.922724,56.2290864 C186.992156,56.2290864 186.294241,56.1958523 185.828957,56.1293832 C185.496611,56.1293832 184.9981,56.1127662 184.333409,56.0795316 C183.668717,56.046297 183.103738,56.0629141 182.638454,56.1293832 C180.046158,56.2623215 177.453901,56.5614281 174.861605,57.026712 C173.399284,57.3590577 171.305538,57.6913983 168.580303,58.023744 C168.247958,58.0902131 167.849149,58.1899153 167.383865,58.3228536 C166.918581,58.4557919 166.519772,58.52226 166.187426,58.52226 C165.589204,58.52226 165.123927,58.3228556 164.791582,57.9240408 C164.459236,57.525226 164.293066,57.0599491 164.293066,56.528196 C164.293066,56.0629121 164.426002,55.6308692 164.691878,55.2320544 C164.957755,54.8332396 165.356564,54.6006011 165.888317,54.534132 C167.284169,54.2017863 170.109064,53.8029775 174.363089,53.3376936 C174.29662,52.9388788 174.263386,52.3074315 174.263386,51.4433328 L174.263386,45.1620312 C174.263386,39.512155 174.595726,31.9680216 175.260418,22.5294048 L175.459824,19.8374184 C175.592762,15.6498631 176.058039,12.4593926 176.855669,10.2659112 C173.000459,10.664726 168.580328,11.4291096 163.595143,12.5590848 C163.196328,12.6920231 162.6812,12.8748104 162.049744,13.1074524 C161.418287,13.3400944 160.869925,13.3899455 160.404641,13.2570072 C159.939357,13.1240689 159.573782,12.8581964 159.307906,12.4593816 C159.042029,12.0605668 158.909093,11.661758 158.909093,11.2629432 C158.909093,10.7976593 159.042029,10.3822334 159.307906,10.0166532 C159.573782,9.65107297 159.939357,9.43505153 160.404641,9.3685824 C162.398715,8.90329847 165.888292,8.33831932 170.873477,7.673628 C175.858662,7.00893668 179.580877,6.5768938 182.040235,6.3774864 C182.970803,6.24454814 183.768421,6.17808 184.433112,6.17808 C185.031334,6.17808 185.496611,6.24454814 185.828957,6.3774864 C186.693056,6.64336293 187.125098,7.27481021 187.125098,8.2718472 C187.125098,9.33535332 186.659821,10.0000347 185.729254,10.2659112 C185.596315,10.3323803 185.330443,10.3656144 184.931628,10.3656144 C184.466344,10.3656144 183.98445,10.3157633 183.485932,10.2160596 C182.987413,10.1163559 182.538753,10.0665048 182.139938,10.0665048 L181.24261,10.0665048 C181.24261,10.3988505 181.076439,10.7311911 180.744094,11.0635368 C180.677624,11.1964751 180.577922,11.4291135 180.444984,11.7614592 C180.312046,12.0938049 180.212344,12.3929115 180.145874,12.658788 C179.813529,13.8552324 179.447954,15.8492764 179.049139,18.64098 C178.650324,21.4326836 178.317984,25.6201761 178.052107,31.2035832 C177.786231,35.8564225 177.653294,39.6783402 177.653294,42.6694512 C177.653294,46.1923152 177.852699,49.4492538 178.251514,52.4403648 L178.251514,52.9388808 L184.333409,52.4403648 C185.928668,52.2409574 186.92569,52.1412552 187.324505,52.1412552 C188.255073,52.1412552 188.952988,52.3406596 189.418272,52.7394744 Z M247.246128,31.5026928 C247.84435,31.7685693 248.143457,32.2670803 248.143457,32.9982408 C248.143457,33.596463 247.877584,34.1448251 247.345831,34.6433436 C246.814078,35.1418621 246.116163,35.3246495 245.252064,35.1917112 C244.919718,35.1252421 244.587378,35.0421569 244.255032,34.9424532 C243.922686,34.8427495 242.925664,34.7928984 241.263936,34.7928984 C240.399837,34.7928984 239.103709,34.8593665 237.375511,34.9923048 L237.375511,35.2914144 C237.375511,35.4908218 237.309043,35.8563965 237.176105,36.3881496 C236.644352,37.3851866 236.312011,38.2825064 236.179073,39.080136 C235.514381,42.5365309 235.182041,46.026108 235.182041,49.548972 C235.182041,51.1442312 235.281743,52.506828 235.48115,53.6368032 C235.54762,54.035618 235.71379,54.5673631 235.979666,55.2320544 C236.245543,55.8967457 236.378479,56.4284908 236.378479,56.8273056 C236.378479,57.4919969 235.97967,57.9905079 235.182041,58.3228536 L234.384415,58.52226 C232.789156,58.52226 231.92507,56.1958753 231.792132,51.543036 C226.939885,55.2653074 221.988009,57.1264152 216.936355,57.1264152 C215.739911,57.1264152 214.609953,57.026713 213.546446,56.8273056 C210.355928,56.2955525 207.514415,54.9828069 205.021823,52.8890292 C202.52923,50.7952515 200.751208,48.2196113 199.687702,45.1620312 C198.956541,42.9685498 198.590966,40.8748036 198.590966,38.8807296 C198.590966,34.4937669 200.020031,30.2730403 202.878204,26.2184232 C204.872278,23.2937814 207.38145,20.7015241 210.405796,18.4415736 C213.430141,16.1816231 216.703697,14.3205153 220.226561,12.8581944 C223.550017,11.4623426 227.172531,10.4653206 231.09421,9.8670984 C231.758901,9.73416014 232.257412,9.667692 232.589758,9.667692 C233.586795,9.667692 234.251476,10.0665008 234.583822,10.8641304 L234.783228,11.661756 C234.783228,12.1935091 234.600441,12.658786 234.23486,13.0576008 C233.86928,13.4564156 233.387386,13.6890541 232.789164,13.7555232 C228.335732,14.0878689 223.948835,15.2344442 219.628342,17.1952836 C215.307848,19.156123 211.585632,21.7151462 208.461583,24.87243 C205.337534,28.0297138 203.34349,31.4694398 202.479391,35.1917112 C202.147046,36.6540321 201.980875,37.9169267 201.980875,38.9804328 C201.980875,41.7721364 202.678791,44.2979255 204.074642,46.557876 C205.470494,48.8178265 207.331602,50.5792321 209.658022,51.8421456 C211.984441,53.1050591 214.476996,53.7365064 217.135762,53.7365064 C220.392749,53.7365064 223.516751,52.7727184 226.507862,50.8451136 C227.903714,49.9145457 229.033672,49.0172259 229.897771,48.1531272 C230.097179,47.9537198 230.396285,47.6379962 230.7951,47.2059468 C231.193915,46.7738974 231.592724,46.4249397 231.991538,46.1590632 C232.323884,42.8356066 232.622991,40.4427537 232.888867,38.9804328 C232.955336,38.581618 233.038422,38.0000218 233.138125,37.2356268 C233.237829,36.4712318 233.354148,35.8564015 233.487086,35.3911176 C231.825358,35.590525 229.332803,35.9560997 226.009346,36.4878528 C225.145248,36.6207911 224.414098,36.7038762 223.815876,36.7371108 C223.217654,36.7703454 222.719143,36.7869624 222.320328,36.7869624 C221.256822,36.9199007 220.459204,36.9863688 219.927451,36.9863688 C219.395698,36.9863688 219.030123,36.9531347 218.830716,36.8866656 C217.966617,36.6207891 217.534574,36.0225759 217.534574,35.092008 C217.534574,34.5602549 217.733979,34.0617439 218.132794,33.59646 C218.531608,33.1311761 219.030119,32.9317717 219.628342,32.9982408 C221.954761,33.1311791 224.463933,33.0647109 227.155933,32.7988344 C229.847933,32.5329579 231.426551,32.3667875 231.891835,32.3003184 C232.755934,32.1673801 233.919126,32.0344439 235.381447,31.9015056 C237.973743,31.6356291 240.034256,31.4029906 241.563046,31.2035832 C242.626552,31.0706449 243.59034,31.0041768 244.454438,31.0041768 C245.650883,31.0041768 246.581437,31.1703471 247.246128,31.5026928 Z M295.502477,11.4623496 C296.300106,11.4623496 296.848469,11.7282221 297.14758,12.2599752 C297.446691,12.7917283 297.596244,13.4896437 297.596244,14.3537424 C297.596244,19.0730508 296.565988,24.9554808 294.505445,32.0012088 C292.57784,38.648122 290.251455,43.6997003 287.526221,47.1560952 C286.196838,48.8178235 284.734539,49.6486752 283.13928,49.6486752 C282.40812,49.6486752 281.776672,49.5157389 281.244919,49.2498624 C280.114944,48.7845785 279.084688,48.1365142 278.15412,47.30565 C277.223552,46.4747858 276.22653,45.4279127 275.163024,44.1649992 C271.174876,39.4456908 268.01764,34.0950059 265.69122,28.112784 C264.760652,25.7863644 264.195673,24.1911291 263.996266,23.3270304 C263.597451,25.121697 262.932769,28.8106785 262.002202,34.3940856 C261.33751,38.3822335 261.00517,42.7691305 261.00517,47.554908 C261.00517,49.4825128 261.104872,51.1109822 261.304279,52.4403648 C261.304279,52.6397722 261.35413,53.0718151 261.453834,53.7365064 C261.553538,54.4011977 261.703091,54.9827939 261.902498,55.4813124 C262.101906,55.9798309 262.367778,56.3620227 262.700124,56.6278992 C263.630692,57.2925905 264.095969,57.9240378 264.095969,58.52226 C264.095969,58.7881365 263.996267,59.1204772 263.796859,59.519292 C263.464514,60.1175142 262.932768,60.4166208 262.201608,60.4166208 C261.470448,60.4166208 260.772532,60.1507483 260.107841,59.6189952 C258.911396,58.6884273 258.180247,57.4421498 257.91437,55.8801252 C257.648494,54.3181006 257.482324,52.2409714 257.415854,49.6486752 C257.282916,44.6634903 257.814661,38.61489 259.011106,31.5026928 C260.20755,24.3904956 261.669849,18.0760228 263.398046,12.5590848 C263.730392,11.4955787 264.112584,10.5982589 264.544633,9.8670984 C264.976683,9.13593794 265.591513,8.7703632 266.389142,8.7703632 C266.920895,8.7703632 267.369555,8.96976761 267.735136,9.3685824 C268.100716,9.76739719 268.283503,10.2326741 268.283503,10.7644272 C268.283503,11.0967729 268.183801,11.4291135 267.984394,11.7614592 C267.120295,12.9579036 266.256209,14.9187136 265.39211,17.643948 C265.923863,17.643948 266.38914,17.8101183 266.787955,18.142464 C267.18677,18.4748097 267.386174,18.9400866 267.386174,19.5383088 C267.452644,21.9311976 267.984389,24.3739015 268.981426,26.866494 C269.978463,29.3590865 271.307825,32.067663 272.969554,34.9923048 C274.365405,37.5181318 275.860938,39.7448144 277.456198,41.6724192 C279.915555,44.7299993 281.776663,46.2587664 283.039577,46.2587664 C284.103083,46.2587664 285.299509,45.06234 286.628892,42.6694512 C287.958275,40.2765624 289.221169,37.3519645 290.417614,33.8955696 C292.544626,27.9798168 293.608116,21.4327055 293.608116,14.2540392 C293.608116,12.3929035 294.239563,11.4623496 295.502477,11.4623496 Z M384.437731,18.4415736 C383.640102,16.1816231 382.211037,14.5033027 380.150494,13.406562 C378.08995,12.3098213 375.730332,11.7614592 373.071566,11.7614592 C371.542776,11.7614592 370.014009,11.9276295 368.485219,12.2599752 C364.63001,13.1905431 361.173666,14.9685657 358.116086,17.5940964 C355.058506,20.2196271 352.865058,23.3602465 351.535675,27.0160488 C350.538638,29.6748141 350.040127,32.6326461 350.040127,35.8896336 C350.040127,40.4760037 351.070383,44.3311556 353.130926,47.4552048 C356.122037,51.9751058 361.173616,54.2350224 368.285813,54.2350224 C371.941615,54.2350224 375.630597,53.6700432 379.352868,52.540068 C383.473954,51.2771545 386.564722,49.9477918 388.625266,48.55194 C388.957611,48.3525326 389.422888,47.9703408 390.02111,47.4053532 C390.619333,46.8403656 391.134461,46.4249397 391.56651,46.1590632 C391.998559,45.8931867 392.447219,45.7602504 392.912503,45.7602504 C393.444256,45.7602504 393.909533,45.9762718 394.308348,46.4083212 C394.707163,46.8403706 394.906567,47.3222645 394.906567,47.8540176 C394.906567,48.1863633 394.806865,48.5187039 394.607458,48.8510496 C394.009235,49.7816175 393.02883,50.5958521 391.666213,51.293778 C390.303596,51.9917039 389.522595,52.3738957 389.323188,52.4403648 C386.265608,53.9691548 382.809265,55.2320494 378.954055,56.2290864 C375.098846,57.2261234 371.509566,57.7246344 368.18611,57.7246344 C362.669172,57.7246344 358.08287,56.3620376 354.427068,53.6368032 C350.771266,50.9115688 348.378413,46.9899488 347.248438,41.8718256 C346.783154,39.9442208 346.550515,37.8504745 346.550515,35.590524 C346.550515,30.6718082 347.730325,26.1187409 350.089979,21.9311856 C352.449633,17.7436303 355.673338,14.4202235 359.761189,11.9608656 C363.849041,9.5015077 368.352257,8.2718472 373.270973,8.2718472 C377.192652,8.2718472 380.482824,9.13593296 383.14159,10.8641304 C384.338034,11.66176 385.36829,12.5923139 386.232389,13.65582 C386.365327,13.8552274 386.764136,14.4035895 387.428827,15.3009228 C388.093519,16.1982561 388.425859,17.0457248 388.425859,17.8433544 C388.425859,18.0427618 388.359391,18.3418684 388.226453,18.7406832 C388.093515,19.0730289 387.860876,19.3389014 387.52853,19.5383088 C387.196185,19.7377162 386.83061,19.8374184 386.431795,19.8374184 C386.03298,19.8374184 385.634172,19.7044821 385.235357,19.4386056 C384.836542,19.1727291 384.570669,18.8403884 384.437731,18.4415736 Z M437.579537,39.4789488 C438.643043,40.2765784 439.174788,41.1074301 439.174788,41.9715288 C439.174788,42.4368127 438.975384,42.8688556 438.576569,43.2676704 C438.244223,43.6000161 437.845414,43.7661864 437.38013,43.7661864 C436.914846,43.7661864 436.349867,43.5335479 435.685176,43.068264 C434.355793,42.0047579 433.358771,41.3068425 432.69408,40.9744968 C430.567068,39.8445216 428.240683,39.1466061 425.714856,38.8807296 C423.189029,38.6148531 420.098261,38.4819168 416.442458,38.4819168 C416.110113,38.4819168 415.462048,38.5317679 414.498246,38.6314716 C413.534444,38.7311753 412.620507,38.7810264 411.756408,38.7810264 C411.025248,38.7810264 410.460268,38.7477923 410.061454,38.6813232 L410.958782,47.2557984 C411.357597,50.4463168 411.739789,53.0718081 412.105369,55.1323512 C412.470949,57.1928943 413.019312,59.2201724 413.750472,61.2142464 C413.88341,61.4801229 414.199134,61.995251 414.697652,62.759646 C415.196171,63.524041 415.445426,64.1388713 415.445426,64.6041552 C415.445426,65.2023774 415.262639,65.6676543 414.897059,66 C414.531479,66.3323457 414.116053,66.498516 413.650769,66.498516 C412.986077,66.498516 412.421098,66.2658775 411.955814,65.8005936 C411.025247,64.8035566 410.294097,63.3578747 409.762344,61.4635044 C409.230591,59.5691341 408.698846,56.8605576 408.167093,53.3376936 C407.037118,45.8931508 406.272734,36.2220371 405.873919,24.3240624 C405.740981,20.8676675 405.674513,18.0095377 405.674513,15.7495872 C405.674513,12.0937849 405.840683,8.33833528 406.173029,4.4831256 C406.173029,4.35018734 406.206263,3.95137852 406.272732,3.2866872 C406.339201,2.62199588 406.538606,2.05701673 406.870951,1.5917328 C407.269766,1.12644887 407.735043,0.8938104 408.266796,0.8938104 C408.865018,0.8938104 409.396763,1.14306591 409.862047,1.6415844 C410.327331,2.14010289 410.493501,2.72169908 410.360563,3.3863904 L410.061454,4.4831256 C412.520811,3.48608861 415.345707,2.9875776 418.536226,2.9875776 C422.524374,2.9875776 426.013951,3.76857819 429.005062,5.3306028 C431.996173,6.89262741 433.491706,9.23562918 433.491706,12.3596784 C433.491706,12.8914315 433.458472,13.3234743 433.392002,13.65582 C432.993188,16.7134001 431.780144,19.5881469 429.752836,22.2801468 C427.725527,24.9721467 425.183121,27.7139572 422.125541,30.5056608 C420.131467,32.3003274 417.87155,33.8955626 415.345723,35.2914144 C417.539205,35.2249453 419.932057,35.2581793 422.524354,35.3911176 C425.84781,35.6569941 428.722557,36.0558029 431.14868,36.587556 C433.574804,37.1193091 435.718401,38.083097 437.579537,39.4789488 Z M411.656705,33.4967568 C412.653742,33.1644111 413.551062,32.7489853 414.348691,32.2504668 C415.146321,31.7519483 416.276279,30.9709477 417.7386,29.9074416 C421.327933,27.2486763 424.318999,24.1911421 426.711888,20.7347472 C428.971838,17.4777597 430.101797,14.8190343 430.101797,12.7584912 C430.101797,10.8308864 429.038307,9.30211925 426.911294,8.172144 C424.784282,7.04216875 422.258493,6.4771896 419.333851,6.4771896 C417.273308,6.4771896 415.345732,6.77629621 413.551066,7.3745184 C413.21872,7.50745666 412.753443,7.7234781 412.155221,8.0225892 C411.556999,8.3217003 411.058488,8.50448767 410.659673,8.5709568 C410.12792,8.5709568 409.762345,8.50448866 409.562938,8.3715504 C409.429999,9.70093305 409.363531,11.661743 409.363531,14.2540392 C409.297062,14.9187305 409.263828,15.8825185 409.263828,17.145432 C409.197359,21.9976787 409.363529,27.6474702 409.762344,34.094976 C410.028221,33.9620377 410.360561,33.8457185 410.759376,33.7460148 C411.158191,33.6463111 411.457297,33.5632259 411.656705,33.4967568 Z M494.310658,4.5828288 C494.510065,4.51635967 495.091661,4.3834234 496.055464,4.184016 C497.019266,3.9846086 497.966437,3.8849064 498.897005,3.8849064 C500.891079,3.8849064 501.888101,4.54958775 501.888101,5.8789704 C501.888101,6.80953825 501.638845,7.39113444 501.140327,7.6237764 C500.641808,7.85641836 500.093446,7.95612057 499.495224,7.922886 C498.897002,7.88965143 498.498193,7.8730344 498.298786,7.8730344 C496.902934,7.8730344 495.490486,8.07243881 494.0614,8.4712536 C492.632313,8.87006839 491.784845,9.10270687 491.518968,9.169176 C486.00203,10.697966 479.704174,13.1739041 472.625212,16.5970644 C465.546249,20.0202247 458.351073,23.8919936 451.039469,28.2124872 C450.507716,28.5448329 450.009205,28.8771735 449.543921,29.2095192 C449.078637,29.5418649 448.580126,29.8742055 448.048373,30.2065512 C447.848965,30.3394895 447.500008,30.588745 447.001489,30.9543252 C446.502971,31.3199054 446.021077,31.5026928 445.555793,31.5026928 C444.957571,31.5026928 444.475677,31.3032884 444.110096,30.9044736 C443.744516,30.5056588 443.561729,30.0403819 443.561729,29.5086288 C443.561729,28.7774683 443.860835,28.2124892 444.459058,27.8136744 C450.707156,23.6925882 459.098758,19.156138 469.634116,14.2041876 C480.169473,9.25223724 488.394905,6.04514971 494.310658,4.5828288 Z M494.111251,29.608332 C494.908881,29.4753937 495.507094,29.4089256 495.905909,29.4089256 C496.703538,29.4089256 497.268518,29.6747981 497.600863,30.2065512 C497.86674,30.5388969 497.999676,30.9709397 497.999676,31.5026928 C497.999676,32.2338533 497.667335,32.7988324 497.002644,33.1976472 C496.670298,33.3970546 496.188404,33.4967568 495.556948,33.4967568 L494.111251,33.4967568 C493.44656,33.5632259 492.848347,33.6629281 492.316594,33.7958664 C491.784841,33.9288047 491.319564,34.0285069 490.920749,34.094976 C485.736156,35.092013 480.584876,36.6540142 475.466753,38.7810264 C475.134407,38.9139647 474.370024,39.2296883 473.173579,39.7282068 C471.977135,40.2267253 470.880411,40.7750874 469.883374,41.3733096 C469.484559,41.6391861 469.185452,41.8053565 468.986045,41.8718256 C469.850144,45.8599735 471.295825,49.033827 473.323134,51.3934812 C475.350443,53.7531354 477.959317,54.9329448 481.149835,54.9329448 C484.008008,54.9329448 487.298181,53.9026887 491.020452,51.8421456 C492.083958,51.2439234 492.848342,50.9448168 493.313626,50.9448168 C493.71244,50.9448168 494.078015,51.0777531 494.410361,51.3436296 C494.875645,51.8089135 495.108283,52.3074245 495.108283,52.8391776 C495.108283,53.5038689 494.908879,53.9857629 494.510064,54.284874 C494.111249,54.5839851 493.479802,54.9329428 492.615703,55.3317576 C490.222814,56.3952637 488.162302,57.1928813 486.434105,57.7246344 C484.705907,58.2563875 482.944502,58.52226 481.149835,58.52226 C477.626971,58.52226 474.635905,57.4255358 472.176547,55.2320544 C469.717189,53.038573 467.872699,50.1305921 466.64302,46.5080244 C465.413341,42.8854567 464.79851,38.9472197 464.79851,34.6931952 C464.79851,31.1038621 465.164085,27.8801575 465.895246,25.0219848 C466.028184,24.5567009 466.194354,23.7424662 466.393762,22.5792564 C466.593169,21.4160466 466.92551,20.4356416 467.390794,19.638012 C467.789608,18.9733207 468.354588,18.64098 469.085748,18.64098 C469.617501,18.64098 470.099395,18.8237674 470.531444,19.1893476 C470.963494,19.5549278 471.179515,20.0368218 471.179515,20.635044 L470.980109,21.4326696 C469.251911,25.4208175 468.387826,29.8741826 468.387826,34.7928984 C468.387826,36.1887502 468.42106,37.2190063 468.487529,37.8836976 C477.926146,33.563204 486.467301,30.8047764 494.111251,29.608332 Z M544.461367,32.7988344 C545.192528,33.1976492 545.558102,33.7626283 545.558102,34.4937888 C545.558102,34.8926036 545.391932,35.3246465 545.059586,35.7899304 C544.594302,36.3216835 543.829919,36.587556 542.766413,36.587556 L540.971755,36.4878528 C539.974718,36.4878528 538.479185,36.5543209 536.485111,36.6872592 C536.618049,37.7507653 536.750986,39.3460006 536.883924,41.4730128 C537.149801,45.4611607 537.282737,47.8872477 537.282737,48.7513464 C537.282737,49.2166303 537.26612,49.8646946 537.232885,50.6955588 C537.199651,51.526423 537.183034,52.8391686 537.183034,54.6338352 C537.183034,56.2955635 536.983629,57.3922877 536.584814,57.9240408 C536.186,58.4557939 535.654255,58.7216664 534.989563,58.7216664 C534.590748,58.7216664 534.225174,58.6219642 533.892828,58.4225568 C533.294606,58.0902111 532.995499,57.5584661 532.995499,56.8273056 C532.995499,56.4949599 533.061967,56.0629171 533.194906,55.531164 C533.527251,53.3376826 533.693422,51.3104045 533.693422,49.4492688 C533.693422,45.9264048 533.460783,41.7721463 532.995499,36.9863688 C530.60261,37.2522453 527.511842,37.7175223 523.723102,38.3822136 C521.463151,38.7810284 519.302937,39.3127735 517.242394,39.9774648 C517.109455,40.0439339 516.943285,40.077168 516.743878,40.077168 C515.148618,46.3252664 514.18483,51.8088876 513.852485,56.528196 C513.719547,58.2563934 513.653078,59.519288 513.653078,60.3169176 L513.752782,61.9121688 C513.752782,62.4439219 513.619845,62.8759647 513.353969,63.2083104 C512.822216,63.7400635 512.257237,64.005936 511.659014,64.005936 C511.19373,64.005936 510.778305,63.8397657 510.412724,63.50742 C510.047144,63.1750743 509.831123,62.7430315 509.764654,62.2112784 C509.631715,60.6160192 509.83112,58.3228686 510.362873,55.3317576 L510.661982,53.2379904 C511.59255,46.6575463 513.785999,37.4849436 517.242394,25.7199072 L518.040019,23.0279208 C519.037056,19.7044642 519.867908,17.0125047 520.532599,14.9519616 C521.197291,12.8914185 522.028142,10.8641404 523.025179,8.8700664 C524.354562,6.07836284 525.683925,4.682532 527.013307,4.682532 C527.744468,4.682532 528.442383,5.04810674 529.107074,5.7792672 C530.170581,6.97571158 531.101134,8.88667047 531.898764,11.5122012 C532.696394,14.1377319 533.560479,17.8433305 534.491047,22.629108 C535.089269,25.5537498 535.621014,28.9768588 536.086298,32.8985376 C538.27978,32.6991302 540.40676,32.599428 542.467303,32.599428 L543.264929,32.599428 C543.796682,32.599428 544.195491,32.6658961 544.461367,32.7988344 Z M517.840613,35.9893368 C523.689896,34.6599542 528.608538,33.7626343 532.596686,33.2973504 L531.599654,26.11872 C531.13437,23.1940782 530.469689,19.8706714 529.60559,16.1484 C529.007368,13.6890421 528.525474,11.9276365 528.159894,10.8641304 C527.794314,9.80062428 527.445356,9.2688792 527.11301,9.2688792 C526.514788,9.2688792 525.517766,11.2629233 524.121914,15.2510712 C522.859001,18.8404043 521.429936,23.3270035 519.834677,28.7110032 C518.904109,31.9015216 518.239428,34.3276085 517.840613,35.9893368 Z M602.289223,12.4593816 C603.884482,12.4593816 605.197228,12.6089349 606.2275,12.908046 C607.257771,13.2071571 607.772899,13.8552214 607.772899,14.8522584 C607.772899,16.1151719 607.108218,16.7466192 605.778835,16.7466192 C605.579428,16.7466192 605.147385,16.6801511 604.482694,16.5472128 C603.485657,16.2148671 602.355698,16.0486968 601.092785,16.0486968 C600.561032,16.0486968 599.497542,16.1151649 597.902282,16.2481032 C594.977641,16.3145723 591.853638,16.6801471 588.530182,17.3448384 C588.530182,17.6771841 588.496948,17.9098225 588.430478,18.0427608 C588.031664,19.2392052 587.832259,20.8012064 587.832259,22.7288112 C587.832259,23.9252556 587.898727,25.6534271 588.031666,27.9133776 C588.231073,32.6991551 588.646499,37.8172015 589.277956,43.2676704 C589.909412,48.7181393 590.756881,53.503845 591.820387,57.6249312 C592.019795,58.4225608 591.870241,59.1038592 591.371723,59.6688468 C590.873204,60.2338344 590.291608,60.516324 589.626917,60.516324 C588.962225,60.516324 588.43048,60.1839833 588.031666,59.519292 C587.566382,58.7881315 587.267275,57.3923007 587.134337,55.3317576 C586.934929,52.4735849 586.718908,49.9145617 586.486266,47.6546112 C586.253624,45.3946607 586.070837,43.5003188 585.937898,41.9715288 C584.940861,32.4664429 584.44235,25.8528634 584.44235,22.130592 C584.44235,20.8012094 584.475584,19.8706555 584.542054,19.3389024 C584.542054,18.8071493 584.575288,18.3751065 584.641757,18.0427608 C581.251831,18.7739213 576.765232,19.9038796 571.181825,21.4326696 C567.393084,22.4297066 562.906485,23.7590693 557.721893,25.4207976 C557.256609,25.5537359 556.458991,25.8362254 555.329016,26.2682748 C554.199041,26.7003242 553.268487,26.9163456 552.537326,26.9163456 C551.939104,26.9163456 551.473827,26.7169412 551.141482,26.3181264 C550.809136,25.9193116 550.642966,25.4208006 550.642966,24.8225784 C550.642966,24.4237636 550.775902,24.0415718 551.041778,23.6759916 C551.307655,23.3104114 551.67323,23.0611559 552.138514,22.9282176 C555.129625,22.130588 558.652436,21.1668 562.707053,20.0368248 C570.351003,17.9762817 576.349752,16.4475146 580.70348,15.4504776 C585.057209,14.4534406 589.593659,13.655823 594.312967,13.0576008 C597.769362,12.658786 600.428087,12.4593816 602.289223,12.4593816 Z M661.612627,4.5828288 C661.812035,4.51635967 662.393631,4.3834234 663.357433,4.184016 C664.321236,3.9846086 665.268407,3.8849064 666.198974,3.8849064 C668.193048,3.8849064 669.19007,4.54958775 669.19007,5.8789704 C669.19007,6.80953825 668.940815,7.39113444 668.442296,7.6237764 C667.943778,7.85641836 667.395416,7.95612057 666.797194,7.922886 C666.198971,7.88965143 665.800163,7.8730344 665.600755,7.8730344 C664.204903,7.8730344 662.792456,8.07243881 661.363369,8.4712536 C659.934283,8.87006839 659.086814,9.10270687 658.820938,9.169176 C653.304,10.697966 647.006144,13.1739041 639.927181,16.5970644 C632.848219,20.0202247 625.653043,23.8919936 618.341438,28.2124872 C617.809685,28.5448329 617.311174,28.8771735 616.84589,29.2095192 C616.380606,29.5418649 615.882095,29.8742055 615.350342,30.2065512 C615.150935,30.3394895 614.801977,30.588745 614.303459,30.9543252 C613.80494,31.3199054 613.323046,31.5026928 612.857762,31.5026928 C612.25954,31.5026928 611.777646,31.3032884 611.412066,30.9044736 C611.046486,30.5056588 610.863698,30.0403819 610.863698,29.5086288 C610.863698,28.7774683 611.162805,28.2124892 611.761027,27.8136744 C618.009126,23.6925882 626.400728,19.156138 636.936085,14.2041876 C647.471443,9.25223724 655.696874,6.04514971 661.612627,4.5828288 Z M661.413221,29.608332 C662.21085,29.4753937 662.809064,29.4089256 663.207878,29.4089256 C664.005508,29.4089256 664.570487,29.6747981 664.902833,30.2065512 C665.168709,30.5388969 665.301646,30.9709397 665.301646,31.5026928 C665.301646,32.2338533 664.969305,32.7988324 664.304614,33.1976472 C663.972268,33.3970546 663.490374,33.4967568 662.858917,33.4967568 L661.413221,33.4967568 C660.748529,33.5632259 660.150316,33.6629281 659.618563,33.7958664 C659.08681,33.9288047 658.621533,34.0285069 658.222718,34.094976 C653.038126,35.092013 647.886846,36.6540142 642.768722,38.7810264 C642.436377,38.9139647 641.671993,39.2296883 640.475549,39.7282068 C639.279104,40.2267253 638.18238,40.7750874 637.185343,41.3733096 C636.786528,41.6391861 636.487422,41.8053565 636.288014,41.8718256 C637.152113,45.8599735 638.597795,49.033827 640.625104,51.3934812 C642.652412,53.7531354 645.261286,54.9329448 648.451805,54.9329448 C651.309977,54.9329448 654.60015,53.9026887 658.322422,51.8421456 C659.385928,51.2439234 660.150311,50.9448168 660.615595,50.9448168 C661.01441,50.9448168 661.379985,51.0777531 661.71233,51.3436296 C662.177614,51.8089135 662.410253,52.3074245 662.410253,52.8391776 C662.410253,53.5038689 662.210848,53.9857629 661.812034,54.284874 C661.413219,54.5839851 660.781772,54.9329428 659.917673,55.3317576 C657.524784,56.3952637 655.464272,57.1928813 653.736074,57.7246344 C652.007877,58.2563875 650.246471,58.52226 648.451805,58.52226 C644.928941,58.52226 641.937875,57.4255358 639.478517,55.2320544 C637.019159,53.038573 635.174668,50.1305921 633.944989,46.5080244 C632.71531,42.8854567 632.10048,38.9472197 632.10048,34.6931952 C632.10048,31.1038621 632.466055,27.8801575 633.197215,25.0219848 C633.330153,24.5567009 633.496324,23.7424662 633.695731,22.5792564 C633.895139,21.4160466 634.227479,20.4356416 634.692763,19.638012 C635.091578,18.9733207 635.656557,18.64098 636.387718,18.64098 C636.919471,18.64098 637.401365,18.8237674 637.833414,19.1893476 C638.265463,19.5549278 638.481485,20.0368218 638.481485,20.635044 L638.282078,21.4326696 C636.553881,25.4208175 635.689795,29.8741826 635.689795,34.7928984 C635.689795,36.1887502 635.723029,37.2190063 635.789498,37.8836976 C645.228115,33.563204 653.769271,30.8047764 661.413221,29.608332 Z M763.509298,52.1412552 C763.642236,52.3406626 763.924725,52.6730033 764.356775,53.1382872 C764.788824,53.6035711 765.004846,54.1020821 765.004846,54.6338352 C765.004846,55.2320574 764.822058,55.7471854 764.456478,56.1792348 C764.090898,56.6112842 763.609004,56.8273056 763.010782,56.8273056 C762.213152,56.8273056 761.448768,56.1958583 760.717608,54.9329448 C759.321756,52.3406486 758.391202,49.7816254 757.925918,47.2557984 C757.327696,43.9323418 757.02859,40.6754032 757.02859,37.4848848 C757.02859,34.8261195 757.327696,30.7383292 757.925918,25.2213912 C757.128289,26.2184282 755.931862,27.3483865 754.336603,28.6113 C750.880208,31.2035962 746.759184,32.4997248 741.973406,32.4997248 C739.048765,32.4997248 736.240486,31.9181286 733.548486,30.7549188 C730.856486,29.591709 728.646421,27.9133886 726.918223,25.7199072 C725.854717,24.3905246 725.090334,23.2273322 724.62505,22.2302952 L724.525346,22.0308888 C723.594779,26.151975 722.730693,30.4724038 721.933063,34.9923048 C721.068964,40.4427737 720.636922,44.9293728 720.636922,48.4522368 C720.636922,51.5098169 720.902794,54.2017764 721.434547,56.528196 C721.501016,56.8605417 721.683804,57.4089038 721.982915,58.1732988 C722.282026,58.9376938 722.431579,59.5525241 722.431579,60.017808 C722.431579,60.3501537 722.331877,60.6824943 722.13247,61.01484 C721.800124,61.6130622 721.268379,61.9121688 720.537218,61.9121688 C719.67312,61.9121688 719.008438,61.4801259 718.543154,60.6160272 C718.07787,59.6189902 717.762147,58.522266 717.595974,57.3258216 C717.429801,56.1293772 717.313482,54.6670782 717.247013,52.9388808 C716.981136,47.3554737 717.562732,40.3430854 718.991819,31.9015056 C720.420905,23.4599258 722.165694,16.3810694 724.226237,10.664724 C724.558582,9.60121788 724.90754,8.77036619 725.27312,8.172144 C725.638701,7.57392181 726.187063,7.2748152 726.918223,7.2748152 C727.516445,7.2748152 728.014956,7.47421961 728.413771,7.8730344 C728.812586,8.27184919 729.01199,8.73712614 729.01199,9.2688792 C729.01199,9.60122486 728.912288,9.93356554 728.712881,10.2659112 C727.915251,11.5952938 726.984697,13.9216786 725.921191,17.2451352 C726.78529,17.3780735 727.317035,17.8765845 727.516442,18.7406832 C728.247603,21.9976707 729.992391,24.5068428 732.75086,26.2682748 C735.509329,28.0297068 738.649949,28.9104096 742.172813,28.9104096 C744.366294,28.9104096 746.476657,28.5780689 748.503966,27.9133776 C750.531275,27.2486863 752.276063,26.2516642 753.738384,24.9222816 C755.333643,23.5264298 756.496836,22.0142797 757.227996,20.385786 C757.959156,18.7572923 758.55737,16.7133971 759.022654,14.2540392 C759.28853,12.7917183 759.521169,11.7282281 759.720576,11.0635368 C759.919983,10.5317837 760.202473,10.0997409 760.568053,9.7673952 C760.933633,9.43504954 761.315825,9.30211327 761.71464,9.3685824 C762.578739,9.5679898 763.010782,10.2991393 763.010782,11.5620528 C763.010782,11.6949911 762.911079,12.658779 762.711672,14.4534456 C762.179919,17.643964 761.814344,20.0368168 761.614937,21.632076 C760.883776,27.2154831 760.518202,31.8017845 760.518202,35.3911176 C760.518202,36.3881546 760.58467,37.9501558 760.717608,40.077168 C760.917015,43.068279 761.199505,45.5109829 761.565085,47.4053532 C761.930665,49.2997235 762.57873,50.8783417 763.509298,52.1412552 Z M811.366834,12.160272 C812.031525,12.4261485 812.530036,12.8581914 812.862382,13.4564136 C813.194727,14.0546358 813.360898,14.7193171 813.360898,15.4504776 C813.360898,16.1151689 813.194727,16.8463184 812.862382,17.643948 C812.330629,18.7739232 810.619074,20.7513503 807.727667,23.5762884 C804.83626,26.4012265 802.493258,28.4783558 800.698591,29.8077384 C797.441604,35.2582073 793.65292,41.9382549 789.332426,49.8480816 C787.338352,53.5038839 785.809585,56.5946522 784.746079,59.1204792 C783.749042,61.4468988 783.150829,62.9091978 782.951422,63.50742 C782.818483,63.8397657 782.685547,64.2551915 782.552609,64.75371 C782.419671,65.2522285 782.2535,65.6510373 782.054093,65.9501484 C781.854685,66.2492595 781.522345,66.4320469 781.057061,66.498516 L780.658248,66.498516 C780.126495,66.498516 779.677835,66.3323457 779.312255,66 C778.946675,65.6676543 778.763887,65.2356115 778.763887,64.7038584 C778.763887,64.0391671 779.062994,62.9756769 779.661216,61.513356 C780.1265,60.2504425 781.156756,58.0902281 782.752015,55.032648 C783.416707,53.8362036 783.881983,52.9388838 784.14786,52.3406616 C786.673687,47.2890075 790.196498,40.9745347 794.716399,33.3970536 L794.816102,33.1976472 C793.619658,33.596462 792.423232,33.7958664 791.226787,33.7958664 C788.833898,33.7958664 786.507514,33.0148658 784.247563,31.4528412 C781.987613,29.8908166 780.026803,27.6807511 778.365074,24.8225784 C776.969223,22.4296896 775.673094,19.4552406 774.47665,15.899142 C773.280205,12.3430434 772.681992,8.4048064 772.681992,4.0843128 C772.681992,3.28668321 772.814928,2.63861889 773.080805,2.1401004 C773.346681,1.64158191 773.91166,1.3923264 774.775759,1.3923264 C775.307512,1.3923264 775.756172,1.64158191 776.121752,2.1401004 C776.487333,2.63861889 776.636886,3.22021508 776.570417,3.8849064 C776.371009,6.61014083 776.786435,9.78399429 777.816707,13.406562 C778.846978,17.0291297 780.226192,20.2694513 781.95439,23.127624 C784.480217,27.1822411 786.939538,29.4753917 789.332426,30.0071448 C789.864179,30.1400831 790.595329,30.2065512 791.525897,30.2065512 C793.453502,30.2065512 795.414312,29.641572 797.408386,28.5115968 L797.707495,28.3121904 C801.230359,22.2634994 804.022021,17.9430706 806.082564,15.3507744 C808.143107,12.7584782 809.904513,11.6949881 811.366834,12.160272 Z M975.77741,48.4522368 C976.176225,48.2528294 976.5418,48.1531272 976.874146,48.1531272 C977.472368,48.1531272 977.954262,48.3525316 978.319842,48.7513464 C978.685422,49.1501612 978.86821,49.6154381 978.86821,50.1471912 C978.86821,50.8118825 978.502635,51.4100957 977.771474,51.9418488 C976.641499,52.6730093 975.395222,53.2878395 974.032604,53.786358 C972.669987,54.2848765 970.891965,54.8664727 968.698483,55.531164 C965.10915,56.5946701 960.788721,57.4587559 955.737067,58.1234472 C950.685413,58.7881385 946.099112,59.1204792 941.978026,59.1204792 C940.715112,59.1204792 939.153111,59.0540111 937.291975,58.9210728 C935.962593,58.7881345 935.264677,58.2231554 935.198208,57.2261184 L935.198208,56.9270088 C935.198208,56.528194 935.29791,56.1792363 935.497318,55.8801252 C935.696725,55.5810141 935.929363,55.3649927 936.19524,55.2320544 C936.394647,55.1655853 936.544201,55.1323512 936.643904,55.1323512 C936.743608,55.1323512 936.826693,55.0991171 936.893162,55.032648 C938.089607,53.8362036 939.153097,50.4629458 940.083665,44.9127732 C941.014233,39.3626006 941.745382,33.4967877 942.277135,27.3151584 C942.808888,20.8011834 943.074761,15.8825414 943.074761,12.5590848 C943.074761,11.0967639 943.041527,10.0332737 942.975058,9.3685824 L942.875354,8.3715504 C942.875354,7.77332821 943.074759,7.27481719 943.473574,6.8760024 C943.872388,6.47718761 944.337665,6.2777832 944.869418,6.2777832 C945.467641,6.2777832 945.966152,6.46057057 946.364966,6.8261508 C946.763781,7.19173103 946.929952,7.67362501 946.863482,8.2718472 L946.564373,14.5531488 C946.497904,15.8160623 946.34835,18.6908092 946.115708,23.1774756 C945.883066,27.664142 945.534109,31.8350175 945.068825,35.6902272 C944.537072,40.608943 943.938859,44.6967333 943.274167,47.9537208 C942.609476,51.2107083 941.778624,53.7364974 940.781587,55.531164 L944.171496,55.6308672 C949.688434,55.6308672 954.773246,55.1655903 959.426086,54.2350224 C962.683073,53.5703311 965.208862,52.9721179 967.003529,52.4403648 C968.532319,51.9750809 970.82547,50.9780588 973.88305,49.4492688 C974.148926,49.3163305 974.431416,49.1667772 974.730527,49.0006044 C975.029638,48.8344316 975.378596,48.6516442 975.77741,48.4522368 Z M1015.25988,52.7394744 C1015.72516,53.2047583 1015.9578,53.7032693 1015.9578,54.2350224 C1015.9578,54.7667755 1015.74178,55.2320524 1015.30973,55.6308672 C1014.87768,56.029682 1014.36255,56.2290864 1013.76433,56.2290864 C1012.83376,56.2290864 1012.13585,56.1958523 1011.67056,56.1293832 C1011.33822,56.1293832 1010.83971,56.1127662 1010.17501,56.0795316 C1009.51032,56.046297 1008.94534,56.0629141 1008.48006,56.1293832 C1005.88776,56.2623215 1003.29551,56.5614281 1000.70321,57.026712 C999.240889,57.3590577 997.147143,57.6913983 994.421909,58.023744 C994.089563,58.0902131 993.690754,58.1899153 993.22547,58.3228536 C992.760186,58.4557919 992.361378,58.52226 992.029032,58.52226 C991.43081,58.52226 990.965533,58.3228556 990.633187,57.9240408 C990.300842,57.525226 990.134671,57.0599491 990.134671,56.528196 C990.134671,56.0629121 990.267607,55.6308692 990.533484,55.2320544 C990.799361,54.8332396 991.198169,54.6006011 991.729922,54.534132 C993.125774,54.2017863 995.95067,53.8029775 1000.20469,53.3376936 C1000.13823,52.9388788 1000.10499,52.3074315 1000.10499,51.4433328 L1000.10499,45.1620312 C1000.10499,39.512155 1000.43733,31.9680216 1001.10202,22.5294048 L1001.30143,19.8374184 C1001.43437,15.6498631 1001.89964,12.4593926 1002.69727,10.2659112 C998.842065,10.664726 994.421934,11.4291096 989.436749,12.5590848 C989.037934,12.6920231 988.522806,12.8748104 987.891349,13.1074524 C987.259892,13.3400944 986.71153,13.3899455 986.246246,13.2570072 C985.780962,13.1240689 985.415388,12.8581964 985.149511,12.4593816 C984.883635,12.0605668 984.750698,11.661758 984.750698,11.2629432 C984.750698,10.7976593 984.883635,10.3822334 985.149511,10.0166532 C985.415388,9.65107297 985.780962,9.43505153 986.246246,9.3685824 C988.24032,8.90329847 991.729897,8.33831932 996.715082,7.673628 C1001.70027,7.00893668 1005.42248,6.5768938 1007.88184,6.3774864 C1008.81241,6.24454814 1009.61003,6.17808 1010.27472,6.17808 C1010.87294,6.17808 1011.33822,6.24454814 1011.67056,6.3774864 C1012.53466,6.64336293 1012.9667,7.27481021 1012.9667,8.2718472 C1012.9667,9.33535332 1012.50143,10.0000347 1011.57086,10.2659112 C1011.43792,10.3323803 1011.17205,10.3656144 1010.77323,10.3656144 C1010.30795,10.3656144 1009.82606,10.3157633 1009.32754,10.2160596 C1008.82902,10.1163559 1008.38036,10.0665048 1007.98154,10.0665048 L1007.08422,10.0665048 C1007.08422,10.3988505 1006.91804,10.7311911 1006.5857,11.0635368 C1006.51923,11.1964751 1006.41953,11.4291135 1006.28659,11.7614592 C1006.15365,12.0938049 1006.05395,12.3929115 1005.98748,12.658788 C1005.65513,13.8552324 1005.28956,15.8492764 1004.89074,18.64098 C1004.49193,21.4326836 1004.15959,25.6201761 1003.89371,31.2035832 C1003.62784,35.8564225 1003.4949,39.6783402 1003.4949,42.6694512 C1003.4949,46.1923152 1003.6943,49.4492538 1004.09312,52.4403648 L1004.09312,52.9388808 L1010.17501,52.4403648 C1011.77027,52.2409574 1012.7673,52.1412552 1013.16611,52.1412552 C1014.09668,52.1412552 1014.79459,52.3406596 1015.25988,52.7394744 Z M1064.21415,26.0190168 C1064.94531,26.2848933 1065.31088,26.8831065 1065.31088,27.8136744 C1065.31088,28.2789583 1065.16133,28.7110012 1064.86222,29.109816 C1064.56311,29.5086308 1064.14768,29.7412693 1063.61593,29.8077384 L1063.31682,29.8077384 C1062.91801,29.8077384 1062.48596,29.7578873 1062.02068,29.6581836 C1061.55539,29.5584799 1061.12335,29.5086288 1060.72454,29.5086288 C1057.60049,29.5086288 1054.55957,29.7578843 1051.60169,30.2564028 C1048.64382,30.7549213 1045.10439,31.5359219 1040.9833,32.599428 C1040.65096,32.6658971 1040.11921,32.8819186 1039.38805,33.2474988 C1038.65689,33.613079 1038.12515,33.8291005 1037.7928,33.8955696 C1037.92574,38.2825323 1038.30793,42.3370886 1038.93939,46.05936 C1039.57084,49.7816314 1040.45155,52.6729953 1041.58152,54.7335384 C1041.64799,54.8664767 1041.81416,55.1489662 1042.08004,55.5810156 C1042.34591,56.013065 1042.47885,56.4617249 1042.47885,56.9270088 C1042.47885,57.3922927 1042.34591,57.7911015 1042.08004,58.1234472 C1041.68122,58.6552003 1041.18271,58.9210728 1040.58449,58.9210728 C1039.85333,58.9210728 1039.28835,58.6219662 1038.88954,58.023744 C1038.09191,56.8937688 1037.47708,55.5810231 1037.04503,54.0854676 C1036.61298,52.5899121 1036.23079,50.8451236 1035.89844,48.8510496 C1034.83493,42.6694203 1034.30319,36.122309 1034.30319,29.2095192 C1034.30319,22.8949516 1034.76847,17.6107349 1035.69903,13.3567104 C1035.7655,13.157303 1035.84859,12.8083453 1035.94829,12.3098268 C1036.048,11.8113083 1036.19755,11.3958825 1036.39696,11.0635368 C1033.33938,11.5952899 1031.07946,12.0273327 1029.61714,12.3596784 C1029.21832,12.4261475 1028.63673,12.5923179 1027.87233,12.8581944 C1027.10794,13.1240709 1026.45987,13.2570072 1025.92812,13.2570072 C1025.3299,13.2570072 1024.86462,13.1240709 1024.53228,12.8581944 C1023.93405,12.4593796 1023.63495,11.9276345 1023.63495,11.2629432 C1023.63495,10.7976593 1023.7845,10.3656164 1024.08361,9.9668016 C1024.38272,9.56798681 1024.79815,9.33534833 1025.3299,9.2688792 C1037.09494,7.27480523 1049.09244,6.2777832 1061.32276,6.2777832 C1062.45273,6.2777832 1063.36667,6.41071947 1064.06459,6.676596 C1064.76252,6.94247253 1065.11148,7.50745168 1065.11148,8.3715504 C1065.11148,8.96977259 1064.89546,9.46828361 1064.46341,9.8670984 C1064.03136,10.2659132 1063.51623,10.4653176 1062.91801,10.4653176 C1062.78507,10.4653176 1062.05392,10.3323813 1060.72454,10.0665048 C1058.66399,9.66769001 1056.23791,9.4682856 1053.4462,9.4682856 C1049.19218,9.4682856 1044.57264,9.83386034 1039.58746,10.5650208 C1039.98627,10.9638356 1040.18568,11.4291125 1040.18568,11.9608656 C1040.18568,12.160273 1040.11921,12.4593796 1039.98627,12.8581944 C1039.25511,14.2540462 1038.7566,15.7661963 1038.49072,17.39469 C1038.22485,19.0231837 1038.02544,21.100313 1037.8925,23.62614 C1037.82603,24.8890535 1037.7928,26.9495657 1037.7928,29.8077384 C1041.84742,28.6777632 1045.51978,27.7804433 1048.81,27.115752 C1052.10023,26.4510607 1055.57319,25.9857837 1059.22899,25.7199072 L1061.52216,25.620204 C1062.71861,25.620204 1063.61593,25.7531403 1064.21415,26.0190168 Z M1121.44379,4.5828288 C1121.64319,4.51635967 1122.22479,4.3834234 1123.18859,4.184016 C1124.15239,3.9846086 1125.09956,3.8849064 1126.03013,3.8849064 C1128.02421,3.8849064 1129.02123,4.54958775 1129.02123,5.8789704 C1129.02123,6.80953825 1128.77197,7.39113444 1128.27345,7.6237764 C1127.77494,7.85641836 1127.22657,7.95612057 1126.62835,7.922886 C1126.03013,7.88965143 1125.63132,7.8730344 1125.43191,7.8730344 C1124.03606,7.8730344 1122.62361,8.07243881 1121.19453,8.4712536 C1119.76544,8.87006839 1118.91797,9.10270687 1118.6521,9.169176 C1113.13516,10.697966 1106.8373,13.1739041 1099.75834,16.5970644 C1092.67938,20.0202247 1085.4842,23.8919936 1078.1726,28.2124872 C1077.64084,28.5448329 1077.14233,28.8771735 1076.67705,29.2095192 C1076.21176,29.5418649 1075.71325,29.8742055 1075.1815,30.2065512 C1074.98209,30.3394895 1074.63314,30.588745 1074.13462,30.9543252 C1073.6361,31.3199054 1073.1542,31.5026928 1072.68892,31.5026928 C1072.0907,31.5026928 1071.6088,31.3032884 1071.24322,30.9044736 C1070.87764,30.5056588 1070.69486,30.0403819 1070.69486,29.5086288 C1070.69486,28.7774683 1070.99396,28.2124892 1071.59219,27.8136744 C1077.84028,23.6925882 1086.23189,19.156138 1096.76724,14.2041876 C1107.3026,9.25223724 1115.52803,6.04514971 1121.44379,4.5828288 Z M1121.24438,29.608332 C1122.04201,29.4753937 1122.64022,29.4089256 1123.03904,29.4089256 C1123.83667,29.4089256 1124.40165,29.6747981 1124.73399,30.2065512 C1124.99987,30.5388969 1125.1328,30.9709397 1125.1328,31.5026928 C1125.1328,32.2338533 1124.80046,32.7988324 1124.13577,33.1976472 C1123.80343,33.3970546 1123.32153,33.4967568 1122.69008,33.4967568 L1121.24438,33.4967568 C1120.57969,33.5632259 1119.98147,33.6629281 1119.44972,33.7958664 C1118.91797,33.9288047 1118.45269,34.0285069 1118.05388,34.094976 C1112.86928,35.092013 1107.718,36.6540142 1102.59988,38.7810264 C1102.26754,38.9139647 1101.50315,39.2296883 1100.30671,39.7282068 C1099.11026,40.2267253 1098.01354,40.7750874 1097.0165,41.3733096 C1096.61769,41.6391861 1096.31858,41.8053565 1096.11917,41.8718256 C1096.98327,45.8599735 1098.42895,49.033827 1100.45626,51.3934812 C1102.48357,53.7531354 1105.09244,54.9329448 1108.28296,54.9329448 C1111.14114,54.9329448 1114.43131,53.9026887 1118.15358,51.8421456 C1119.21709,51.2439234 1119.98147,50.9448168 1120.44675,50.9448168 C1120.84557,50.9448168 1121.21114,51.0777531 1121.54349,51.3436296 C1122.00877,51.8089135 1122.24141,52.3074245 1122.24141,52.8391776 C1122.24141,53.5038689 1122.04201,53.9857629 1121.64319,54.284874 C1121.24438,54.5839851 1120.61293,54.9329428 1119.74883,55.3317576 C1117.35594,56.3952637 1115.29543,57.1928813 1113.56723,57.7246344 C1111.83904,58.2563875 1110.07763,58.52226 1108.28296,58.52226 C1104.7601,58.52226 1101.76903,57.4255358 1099.30968,55.2320544 C1096.85032,53.038573 1095.00583,50.1305921 1093.77615,46.5080244 C1092.54647,42.8854567 1091.93164,38.9472197 1091.93164,34.6931952 C1091.93164,31.1038621 1092.29721,27.8801575 1093.02837,25.0219848 C1093.16131,24.5567009 1093.32748,23.7424662 1093.52689,22.5792564 C1093.7263,21.4160466 1094.05864,20.4356416 1094.52392,19.638012 C1094.92274,18.9733207 1095.48772,18.64098 1096.21888,18.64098 C1096.75063,18.64098 1097.23252,18.8237674 1097.66457,19.1893476 C1098.09662,19.5549278 1098.31264,20.0368218 1098.31264,20.635044 L1098.11324,21.4326696 C1096.38504,25.4208175 1095.52095,29.8741826 1095.52095,34.7928984 C1095.52095,36.1887502 1095.55419,37.2190063 1095.62066,37.8836976 C1105.05927,33.563204 1113.60043,30.8047764 1121.24438,29.608332 Z" id="Designcreatemylife" transform="translate(564.900523, 33.696163) rotate(-360.000000) translate(-564.900523, -33.696163) "></path>
                </g>
                <path d="M411.73464,735 L411.73464,734.31558 L413.94894,734.31558 L413.94894,726.35752 L412.2446,726.35752 L412.2446,725.83414 C413.03638,725.69994 413.64028,725.48522 414.10998,725.21682 L414.74072,725.21682 L414.74072,734.31558 L416.78056,734.31558 L416.78056,735 L411.73464,735 Z M430.8247,730.61166 C431.54938,730.61166 432.368,730.19564 433.1061,729.17572 C433.02558,727.04194 432.24722,725.68652 430.71734,725.68652 C429.65716,725.68652 428.86538,726.7467 428.86538,728.16922 C428.86538,729.57832 429.46928,730.61166 430.8247,730.61166 Z M428.28832,734.23506 L428.75802,733.7251 C429.20088,734.23506 429.79136,734.50346 430.46236,734.50346 C431.81778,734.50346 433.039,733.3225 433.11952,729.94066 C432.47536,730.71902 431.64332,731.2424 430.73076,731.2424 C429.09352,731.2424 428.08702,730.15538 428.08702,728.16922 C428.08702,726.33068 429.30824,725.04236 430.73076,725.04236 C432.62298,725.04236 433.88446,726.62592 433.88446,729.57832 C433.88446,733.69826 432.2338,735.17446 430.44894,735.17446 C429.49612,735.17446 428.8117,734.78528 428.28832,734.23506 Z M448.07622,735.17446 C446.3182,735.17446 445.0433,734.0606 445.0433,732.57098 C445.0433,731.22898 446.00954,730.27616 446.90868,729.77962 L446.90868,729.72594 C446.21084,729.25624 445.56668,728.53156 445.56668,727.49822 C445.56668,726.0757 446.66712,725.08262 448.08964,725.08262 C449.71346,725.08262 450.6797,726.16964 450.6797,727.64584 C450.6797,728.70602 449.88792,729.632 449.3377,730.07486 L449.3377,730.14196 C450.16974,730.6385 451.00178,731.34976 451.00178,732.69176 C451.00178,734.07402 449.82082,735.17446 448.07622,735.17446 Z M448.76064,729.86014 C449.539,729.21598 449.95502,728.47788 449.95502,727.67268 C449.95502,726.6125 449.2706,725.71336 448.07622,725.71336 C447.0563,725.71336 446.3182,726.46488 446.3182,727.49822 C446.3182,728.8268 447.53942,729.37702 448.76064,729.86014 Z M448.07622,734.54372 C449.37796,734.54372 450.22342,733.7251 450.22342,732.67834 C450.22342,731.18872 448.85458,730.65192 447.37838,730.07486 C446.4524,730.62508 445.7814,731.47054 445.7814,732.53072 C445.7814,733.67142 446.74764,734.54372 448.07622,734.54372 Z M465.04592,735.17446 C463.2879,735.17446 462.013,734.0606 462.013,732.57098 C462.013,731.22898 462.97924,730.27616 463.87838,729.77962 L463.87838,729.72594 C463.18054,729.25624 462.53638,728.53156 462.53638,727.49822 C462.53638,726.0757 463.63682,725.08262 465.05934,725.08262 C466.68316,725.08262 467.6494,726.16964 467.6494,727.64584 C467.6494,728.70602 466.85762,729.632 466.3074,730.07486 L466.3074,730.14196 C467.13944,730.6385 467.97148,731.34976 467.97148,732.69176 C467.97148,734.07402 466.79052,735.17446 465.04592,735.17446 Z M465.73034,729.86014 C466.5087,729.21598 466.92472,728.47788 466.92472,727.67268 C466.92472,726.6125 466.2403,725.71336 465.04592,725.71336 C464.026,725.71336 463.2879,726.46488 463.2879,727.49822 C463.2879,728.8268 464.50912,729.37702 465.73034,729.86014 Z M465.04592,734.54372 C466.34766,734.54372 467.19312,733.7251 467.19312,732.67834 C467.19312,731.18872 465.82428,730.65192 464.34808,730.07486 C463.4221,730.62508 462.7511,731.47054 462.7511,732.53072 C462.7511,733.67142 463.71734,734.54372 465.04592,734.54372 Z M478.9827,731.61816 L478.9827,730.96058 L482.28402,730.96058 L482.28402,731.61816 L478.9827,731.61816 Z M493.24156,735 L493.24156,734.51688 C496.5563,731.65842 497.87146,729.64542 497.87146,727.87398 C497.87146,726.65276 497.25414,725.69994 495.87188,725.69994 C495.02642,725.69994 494.26148,726.22332 493.69784,726.92116 L493.2013,726.45146 C493.9394,725.63284 494.77144,725.04236 495.9524,725.04236 C497.65674,725.04236 498.66324,726.15622 498.66324,727.84714 C498.66324,729.9004 497.07968,731.95366 494.4762,734.38268 C495.013,734.34242 495.57664,734.30216 496.0866,734.30216 L499.13294,734.30216 L499.13294,735 L493.24156,735 Z M513.20392,735.17446 C511.41906,735.17446 510.31862,733.51038 510.31862,730.07486 C510.31862,726.6796 511.41906,725.04236 513.20392,725.04236 C514.97536,725.04236 516.0758,726.6796 516.0758,730.07486 C516.0758,733.51038 514.97536,735.17446 513.20392,735.17446 Z M513.20392,734.51688 C514.4654,734.51688 515.29744,733.04068 515.29744,730.07486 C515.29744,727.16272 514.4654,725.69994 513.20392,725.69994 C511.92902,725.69994 511.09698,727.16272 511.09698,730.07486 C511.09698,733.04068 511.92902,734.51688 513.20392,734.51688 Z M527.8117,735 L527.8117,734.31558 L530.026,734.31558 L530.026,726.35752 L528.32166,726.35752 L528.32166,725.83414 C529.11344,725.69994 529.71734,725.48522 530.18704,725.21682 L530.81778,725.21682 L530.81778,734.31558 L532.85762,734.31558 L532.85762,735 L527.8117,735 Z M546.90176,730.61166 C547.62644,730.61166 548.44506,730.19564 549.18316,729.17572 C549.10264,727.04194 548.32428,725.68652 546.7944,725.68652 C545.73422,725.68652 544.94244,726.7467 544.94244,728.16922 C544.94244,729.57832 545.54634,730.61166 546.90176,730.61166 Z M544.36538,734.23506 L544.83508,733.7251 C545.27794,734.23506 545.86842,734.50346 546.53942,734.50346 C547.89484,734.50346 549.11606,733.3225 549.19658,729.94066 C548.55242,730.71902 547.72038,731.2424 546.80782,731.2424 C545.17058,731.2424 544.16408,730.15538 544.16408,728.16922 C544.16408,726.33068 545.3853,725.04236 546.80782,725.04236 C548.70004,725.04236 549.96152,726.62592 549.96152,729.57832 C549.96152,733.69826 548.31086,735.17446 546.526,735.17446 C545.57318,735.17446 544.88876,734.78528 544.36538,734.23506 Z" id="1988-2019" fill-rule="nonzero" transform="translate(480.848080, 730.108410) rotate(-270.000000) translate(-480.848080, -730.108410) "></path>
                <text id="Based-in-Vancouver-a" font-family="NotoSansCJKjp-Light, Noto Sans CJK JP" font-size="19.36" font-weight="300" letter-spacing="8.50350618">
                    <tspan x="515" y="799">Based in Vancouver and Toky</tspan>
                    <tspan x="998.365547" y="799" letter-spacing="8.04632854">o</tspan>
                </text>
            </g>
        </g>
    </g>
</svg>